<svg xmlns="http://www.w3.org/2000/svg" viewBox="0 0 86.88 92.63"><defs><style>.cls-1{fill:#f1f3f3;}.cls-2{fill:#325179;}</style></defs><title>Asset 2</title><g id="Layer_2" data-name="Layer 2"><g id="Layer_1-2" data-name="Layer 1"><path class="cls-1" d="M82.65,53.73a6.69,6.69,0,0,0,4-5.8c.1-2.89-3.16-4.91-2.3-7.68.53-1.73,1.77-2.5,1.91-4.43a5.92,5.92,0,0,0-.86-3.53c-.52-.84-2.14-1.61-2-2.68A4.67,4.67,0,0,1,84,28.14a7.19,7.19,0,0,0-2.38-9.51c-1-.57-2.45-.92-2.79-2.19-.22-.81.32-1.38.38-2.12a5.33,5.33,0,0,0-1-3,6.8,6.8,0,0,0-4.56-3.5c-1.56-.29-3.29,0-4.63-1s-2-2.51-3.51-3.35a5,5,0,0,0-5.12,0c-.88.45-1.83,1.19-2.8.57a2.79,2.79,0,0,1-.74-.87,3.05,3.05,0,0,0-.95-.8,5.8,5.8,0,0,0-4.39-.49,10.86,10.86,0,0,1-1.86.66,4.82,4.82,0,0,1-2.05-.41A10.2,10.2,0,0,0,43.36.94a9.15,9.15,0,0,0-4.07,1,4.88,4.88,0,0,1-2,.41,12.88,12.88,0,0,1-1.86-.66A5.79,5.79,0,0,0,31,2.17,3.09,3.09,0,0,0,30,3a2.62,2.62,0,0,1-.73.86c-1,.63-1.93-.11-2.8-.56a5,5,0,0,0-5.12,0c-1.55.84-2.21,2.32-3.51,3.34s-3.07.74-4.63,1a6.81,6.81,0,0,0-4.57,3.5,5.48,5.48,0,0,0-1,3c.06.75.61,1.31.39,2.13-.34,1.27-1.84,1.62-2.8,2.19A7.19,7.19,0,0,0,2.91,28a4.67,4.67,0,0,1,.64,1.47c.13,1.07-1.48,1.84-2,2.68a5.91,5.91,0,0,0-.87,3.53c.15,1.93,1.38,2.69,1.92,4.43C3.46,42.85.2,44.87.29,47.76a6.68,6.68,0,0,0,4,5.8"/><path class="cls-2" d="M4.26,53.56a2,2,0,0,1-.81-.31,6.15,6.15,0,0,1-1.9-1.57A6.73,6.73,0,0,1,0,48.14a5,5,0,0,1,.35-2.42,23.26,23.26,0,0,1,1.19-2.33A4.8,4.8,0,0,0,2.32,41,3.35,3.35,0,0,0,2,39.69a9.8,9.8,0,0,0-.73-1.27A7.83,7.83,0,0,1,.47,37a5.18,5.18,0,0,1-.3-1.74,6.3,6.3,0,0,1,1-3.45,9.29,9.29,0,0,1,1.27-1.3,2.49,2.49,0,0,0,.46-.55.57.57,0,0,0,.1-.43,7.31,7.31,0,0,0-.68-1.43,8,8,0,0,1-.66-1.79A7.84,7.84,0,0,1,3.56,19a8,8,0,0,1,.75-.67c.28-.18.53-.39.85-.56a16.51,16.51,0,0,0,1.55-.82A1.32,1.32,0,0,0,7.39,16a1.22,1.22,0,0,0-.09-.55,6.82,6.82,0,0,1-.31-1,4.24,4.24,0,0,1,.25-2.16,10.23,10.23,0,0,1,.86-1.72,8.41,8.41,0,0,1,2.61-2.8A6.7,6.7,0,0,1,12.47,7a8.85,8.85,0,0,1,1.82-.3,6.17,6.17,0,0,0,2.79-.57,10.48,10.48,0,0,0,2-2,8.23,8.23,0,0,1,1.21-1.14A5.56,5.56,0,0,1,21,2.46c.24-.12.48-.24.73-.34a5.56,5.56,0,0,1,3.16-.37,8,8,0,0,1,2.58,1,3.84,3.84,0,0,0,.82.37.65.65,0,0,0,.43,0c.15-.08.17-.1.33-.34s.15-.25.32-.47a3.18,3.18,0,0,1,.45-.45A5.93,5.93,0,0,1,32.94.55a7.07,7.07,0,0,1,1.57,0,5.51,5.51,0,0,1,.61.09l.52.12a4.57,4.57,0,0,1,.68.26,3.63,3.63,0,0,0,1.07.39,4.26,4.26,0,0,0,1.52-.34A19,19,0,0,1,41.23.24,6.93,6.93,0,0,1,42.72,0h.7a5,5,0,0,1,.86,0,11.74,11.74,0,0,1,3.14,1,8.49,8.49,0,0,0,1.4.5,3.07,3.07,0,0,0,.64.09l.24,0L50,1.52c.22-.08.48-.21.79-.34A5.46,5.46,0,0,1,51.3,1l.51-.11A7.21,7.21,0,0,1,53.89.8,6.17,6.17,0,0,1,56,1.41,5.23,5.23,0,0,1,57,2a2.92,2.92,0,0,1,.48.46c.17.22.24.35.33.48s.21.29.37.38a.72.72,0,0,0,.45,0,9.79,9.79,0,0,0,1.66-.8,6.55,6.55,0,0,1,2.28-.65A5.71,5.71,0,0,1,65,2.3a6.87,6.87,0,0,1,1.09.53,6.16,6.16,0,0,1,1,.74,20.43,20.43,0,0,1,1.52,1.68A4.71,4.71,0,0,0,70,6.48a5.27,5.27,0,0,0,1.89.41,12,12,0,0,1,2.35.3,6.67,6.67,0,0,1,2.26,1.09,9.72,9.72,0,0,1,2.93,3.85,4.29,4.29,0,0,1,.37,2.62c-.12.47-.29.81-.35,1.07a1,1,0,0,0,.07.66,2.82,2.82,0,0,0,1.4,1.1,11.72,11.72,0,0,1,1,.54,9.83,9.83,0,0,1,1,.73,7.31,7.31,0,0,1,1.5,1.87,7.76,7.76,0,0,1,.82,2.21,8.06,8.06,0,0,1-.38,4.52,10.29,10.29,0,0,1-.46,1,7.42,7.42,0,0,0-.46.85,1.47,1.47,0,0,0-.1.37.61.61,0,0,0,0,.26,2,2,0,0,0,.47.65,7.75,7.75,0,0,1,1.45,1.54,6.54,6.54,0,0,1,.74,2,6.3,6.3,0,0,1,.06,2A5.16,5.16,0,0,1,86,38c-.32.55-.66,1-.92,1.5A4.07,4.07,0,0,0,84.55,41a5.08,5.08,0,0,0,.87,2.81,13.54,13.54,0,0,1,1.27,2.67,4.42,4.42,0,0,1,.19,1.38,6.37,6.37,0,0,1-.18,1.27,6.79,6.79,0,0,1-.87,2,6.54,6.54,0,0,1-2.19,2.14,2.8,2.8,0,0,1-1,.42s.32-.19.88-.59a6.78,6.78,0,0,0,2-2.17A6.7,6.7,0,0,0,86.23,49a4.47,4.47,0,0,0-.09-2.37,12.76,12.76,0,0,0-1.29-2.51,9.26,9.26,0,0,1-.74-1.44,3.92,3.92,0,0,1-.3-1.76,7.78,7.78,0,0,1,1.41-3.33A4.3,4.3,0,0,0,85.76,36a5.4,5.4,0,0,0-.09-1.74A5.54,5.54,0,0,0,85,32.63a8.28,8.28,0,0,0-1.33-1.32,2.85,2.85,0,0,1-.72-1,1.65,1.65,0,0,1-.11-.74A2.42,2.42,0,0,1,83,29a8.27,8.27,0,0,1,.5-1,7,7,0,0,0,.38-.89,6.84,6.84,0,0,0-.46-5.76,6.06,6.06,0,0,0-1.28-1.53,5.77,5.77,0,0,0-.81-.59c-.27-.17-.6-.31-.94-.48a6.81,6.81,0,0,1-1.08-.59,2.82,2.82,0,0,1-.94-1.07,2.28,2.28,0,0,1-.19-1.52c.11-.48.29-.82.34-1.08a3.11,3.11,0,0,0-.33-1.77,8.4,8.4,0,0,0-2.52-3.25,5.18,5.18,0,0,0-1.78-.83,11.93,11.93,0,0,0-2.09-.23,6.76,6.76,0,0,1-2.44-.51,6.3,6.3,0,0,1-1.93-1.58A18.47,18.47,0,0,0,66,4.74a4.73,4.73,0,0,0-.75-.54,5.08,5.08,0,0,0-.85-.4A4.1,4.1,0,0,0,61,4.08,10,10,0,0,1,59,5a2.37,2.37,0,0,1-1.52-.15,2.52,2.52,0,0,1-1.06-1,1.72,1.72,0,0,0-.46-.54,4.19,4.19,0,0,0-.67-.42,4.4,4.4,0,0,0-1.52-.41,5.56,5.56,0,0,0-1.58.08l-.38.09a2,2,0,0,0-.31.11c-.23.1-.5.24-.83.37a5,5,0,0,1-.54.17,2.76,2.76,0,0,1-.62.06,4.79,4.79,0,0,1-1-.12,10.71,10.71,0,0,1-1.69-.58,10.93,10.93,0,0,0-2.67-.84,5.53,5.53,0,0,0-.56,0,2.26,2.26,0,0,1-.26,0h-.43a5.17,5.17,0,0,0-1.1.19,18,18,0,0,0-2.1.76,5.88,5.88,0,0,1-2.28.49,3.52,3.52,0,0,1-1.11-.24l-.67-.3a2.42,2.42,0,0,0-.41-.15l-.38-.09a3.25,3.25,0,0,0-.45-.06,4.94,4.94,0,0,0-1.16,0A4.11,4.11,0,0,0,31,3.29a1.44,1.44,0,0,0-.4.49,3.47,3.47,0,0,1-.43.54,2.55,2.55,0,0,1-.68.46,2.48,2.48,0,0,1-1.67.14,5.56,5.56,0,0,1-1.27-.56,4.43,4.43,0,0,0-4.18-.6c-.18.08-.37.16-.56.26s-.34.2-.51.32a6.49,6.49,0,0,0-.95.89A12,12,0,0,1,18,7.57a5.14,5.14,0,0,1-1.83.61c-.6.09-1.18.11-1.72.15a6.86,6.86,0,0,0-1.49.21,5.26,5.26,0,0,0-1.35.6,6.93,6.93,0,0,0-2.15,2.25,10.1,10.1,0,0,0-.76,1.45,2.85,2.85,0,0,0-.21,1.36,6,6,0,0,0,.24.75,2.61,2.61,0,0,1,.15,1.22A2.78,2.78,0,0,1,7.49,18.1,16.85,16.85,0,0,1,5.82,19c-.23.11-.45.29-.68.43a7.72,7.72,0,0,0-.62.54A6.58,6.58,0,0,0,2.82,26a7.18,7.18,0,0,0,.53,1.54,7.09,7.09,0,0,1,.76,1.77,1.78,1.78,0,0,1-.27,1.22,4.62,4.62,0,0,1-.66.76A10.44,10.44,0,0,0,2,32.36a5.38,5.38,0,0,0-.86,2.85A4.63,4.63,0,0,0,2,37.94a6,6,0,0,1,1.12,3,5.48,5.48,0,0,1-.92,2.84A20.15,20.15,0,0,0,1,46a4.36,4.36,0,0,0-.4,2.11,6.53,6.53,0,0,0,1.25,3.36,7,7,0,0,0,1.7,1.64A5.66,5.66,0,0,1,4.26,53.56Z"/><path class="cls-1" d="M11.54,49.09a5.94,5.94,0,0,0-6.87,7.45c.48,1.7,1.69,3.11,2.25,4.78.41,1.23.46,2.61,1.15,3.72a3.76,3.76,0,0,0,2,1.58"/><path class="cls-2" d="M10.1,66.62A2.38,2.38,0,0,1,8.58,66a4,4,0,0,1-1.06-1.39,10.57,10.57,0,0,1-.6-1.88,9.43,9.43,0,0,0-.59-1.77c-.25-.54-.54-1-.79-1.47a17.24,17.24,0,0,1-.91-1.64A6.88,6.88,0,0,1,4,55.49,6.51,6.51,0,0,1,5.48,51a6.15,6.15,0,0,1,4-2.13,3.68,3.68,0,0,1,2,.22,14.64,14.64,0,0,0-2,.15A5.89,5.89,0,0,0,6,51.42a5.8,5.8,0,0,0-1.1,4,5.94,5.94,0,0,0,.59,2c0,.09.31.7.8,1.61a15,15,0,0,1,.76,1.59,9.24,9.24,0,0,1,.51,1.94A11.42,11.42,0,0,0,8,64.35a3.58,3.58,0,0,0,.82,1.33A10.16,10.16,0,0,0,10.1,66.62Z"/><path class="cls-1" d="M75.23,48.69a5.94,5.94,0,0,1,6.87,7.46c-.48,1.7-1.69,3.1-2.24,4.77-.41,1.24-.47,2.61-1.15,3.72a3.71,3.71,0,0,1-2,1.58"/><path class="cls-2" d="M76.68,66.22a9.79,9.79,0,0,0,1.26-.94A3.81,3.81,0,0,0,78.76,64a11.57,11.57,0,0,0,.43-1.82,10.08,10.08,0,0,1,.51-1.94,17.11,17.11,0,0,1,.76-1.59c.49-.9.78-1.52.81-1.61a6.41,6.41,0,0,0,.59-2,5.87,5.87,0,0,0-1.1-4,5.93,5.93,0,0,0-3.55-2.19c-1.16-.23-2-.06-2-.15a3.71,3.71,0,0,1,2-.22,6.17,6.17,0,0,1,4,2.13,6.38,6.38,0,0,1,.85,6.8,17.11,17.11,0,0,1-.9,1.64,16.73,16.73,0,0,0-.8,1.48,9,9,0,0,0-.58,1.77,11.15,11.15,0,0,1-.61,1.88,3.94,3.94,0,0,1-1.06,1.39A2.33,2.33,0,0,1,76.68,66.22Z"/><path class="cls-1" d="M71.88,28.87A10,10,0,0,1,66,32.79a9.9,9.9,0,0,1-7-.75c-1.18,1.42-3,1.82-4.81,2a20.82,20.82,0,0,1-5.49-.6,14.49,14.49,0,0,1-5.33,1.08h.07a14.45,14.45,0,0,1-5.33-1.08,20.82,20.82,0,0,1-5.49.6c-1.84-.13-3.63-.53-4.81-2a9.9,9.9,0,0,1-7,.75A10.06,10.06,0,0,1,15,28.87h0A261.79,261.79,0,0,0,10.53,63.6c-.34,5.62-.43,11.54,2.21,16.51C16.36,86.9,26.05,89.2,32.47,85a13.75,13.75,0,0,0,10.94,6.76c4.58.3,9.39-2.52,10.72-6.92C60.54,89,70.4,86.9,74,80.11c2.65-5,2.55-10.89,2.21-16.51a261.78,261.78,0,0,0-4.45-34.73"/><path class="cls-2" d="M71.78,28.87A5.27,5.27,0,0,1,72.09,30c.18.73.41,1.81.69,3.19.56,2.75,1.29,6.71,2,11.49s1.36,10.41,1.84,16.47A80.68,80.68,0,0,1,77,70.56a23.36,23.36,0,0,1-2.24,9.65,13.66,13.66,0,0,1-7.61,6.55,16.42,16.42,0,0,1-4.92,1,15.47,15.47,0,0,1-4.9-.6A14.93,14.93,0,0,1,55,86.26l-.37-.2-.09,0s0,0,0,0l0,.08v0s0,0,0,0l-.13.27a4.58,4.58,0,0,1-.28.54,7,7,0,0,1-.66,1,10.56,10.56,0,0,1-1.6,1.73,12,12,0,0,1-8.07,2.89,14.39,14.39,0,0,1-7.08-2.1,15,15,0,0,1-4.32-4l-.19-.25s0,0,0,0h0l-.07,0-.43.25-.44.19-.77.34c-.48.19-.9.3-1.21.4a4.06,4.06,0,0,1-.67.18,15.72,15.72,0,0,1-2.39.35,16,16,0,0,1-5.23-.54,13,13,0,0,1-1.63-.55l-.84-.35-.85-.44-.43-.22-.42-.28-.85-.56a15.14,15.14,0,0,1-1.62-1.41,13.18,13.18,0,0,1-1.48-1.74,16.91,16.91,0,0,1-1.2-2.07,20.18,20.18,0,0,1-1.54-4.75,42.54,42.54,0,0,1-.42-10.83c.23-3.75.57-7.67,1-11.7s1-8.14,1.62-12.28c.32-2.08.67-4.15,1.05-6.23L13.9,31a9.14,9.14,0,0,1,.59-2l.19-.44.1-.22s0-.08.05-.09a.15.15,0,0,1,.08,0l.25.09.37.1.49.66c.16.2.33.37.49.55a4.87,4.87,0,0,0,.36.35l.3.26a11.81,11.81,0,0,0,1.32.9,11.19,11.19,0,0,0,3,1.14,9,9,0,0,0,3.14.13,8.85,8.85,0,0,0,1.53-.32l.74-.26.2-.08.31-.14.6-.29c.19.22.39.44.57.63l.14.14.09.07.18.15a4.67,4.67,0,0,0,.81.48,7.27,7.27,0,0,0,1.88.53,13,13,0,0,0,4,0c.66-.09,1.32-.21,2-.33l.32-.07.18,0,.09,0,.09,0,.33.15.22.09a8.63,8.63,0,0,0,.9.3A16.14,16.14,0,0,0,43.5,34v.93h-.07V34a15.46,15.46,0,0,0,4.29-.67l.49-.17.12-.05.17-.07c.12,0,.23-.13.36-.07l1.13.23c.69.14,1.37.25,2,.33a12.52,12.52,0,0,0,3.83-.12,6,6,0,0,0,1.67-.56,3.71,3.71,0,0,0,.71-.45l.16-.13.2-.2a5.33,5.33,0,0,0,.4-.42l.49.24.44.2.73.27a10.91,10.91,0,0,0,1.45.35,9.68,9.68,0,0,0,2.73.06A11,11,0,0,0,69,31.36a9.35,9.35,0,0,0,2.22-1.74c.45-.48.65-.77.67-.75s0,.09-.11.23a5.16,5.16,0,0,1-.43.62,8.93,8.93,0,0,1-2.18,1.92,11.23,11.23,0,0,1-4.28,1.62,10.14,10.14,0,0,1-4.43-.33,8,8,0,0,1-.78-.27l-.55-.23a2.09,2.09,0,0,1-.2.22l-.12.12-.18.15a4.88,4.88,0,0,1-.8.54,7,7,0,0,1-1.84.66,13,13,0,0,1-4.06.2c-.7-.06-1.4-.17-2.1-.3l-1-.18c-.06,0-.1,0-.15,0l-.07,0L48.5,34a4.81,4.81,0,0,1-.53.2,16.55,16.55,0,0,1-4.55.78V34h.07v.93a17,17,0,0,1-4-.54,9.65,9.65,0,0,1-1-.32L38.25,34l-.12-.05s-.09,0-.13,0l-.17,0c-.66.14-1.34.27-2,.37a13.69,13.69,0,0,1-4.29.07,7.85,7.85,0,0,1-2.18-.59,5.28,5.28,0,0,1-1-.59,2.15,2.15,0,0,1-.24-.18l-.12-.1-.05,0-.16-.17a.51.51,0,0,0-.15.07l-.25.11c-.27.11-.55.21-.83.3a12.59,12.59,0,0,1-1.72.39,10.66,10.66,0,0,1-3.56-.11,12.3,12.3,0,0,1-3.35-1.24,11,11,0,0,1-1.51-1c-.12-.1-.24-.19-.35-.3l-.27-.24a1.7,1.7,0,0,1-.19-.19,1.33,1.33,0,0,1-.14-.19c0-.06,0,.06-.05.09l0,.15-.11.61-.55,3.1q-.52,3.11-1,6.2c-.61,4.13-1.1,8.23-1.5,12.23s-.69,7.91-.88,11.64a40.67,40.67,0,0,0,.47,10.37,17.91,17.91,0,0,0,1.44,4.33,14.17,14.17,0,0,0,1,1.8,11.7,11.7,0,0,0,1.29,1.49A15.76,15.76,0,0,0,17,83.58l.76.48.36.24.39.2.74.38.75.3a12.06,12.06,0,0,0,1.44.47,14,14,0,0,0,4.6.45,15.3,15.3,0,0,0,2.08-.31,4.62,4.62,0,0,0,.58-.16c.27-.09.63-.17,1-.34l.67-.28.37-.16.37-.22.79-.45.44-.25.23-.13.11-.07s.05,0,.06,0l0,.06.59.92.31.49.16.22A13.32,13.32,0,0,0,37.64,89a12.51,12.51,0,0,0,6.16,1.9,10.38,10.38,0,0,0,3.57-.52,10.82,10.82,0,0,0,3.35-1.88A9.35,9.35,0,0,0,52.08,87a6.7,6.7,0,0,0,.56-.83,3.68,3.68,0,0,0,.23-.44L53,85.5a1.43,1.43,0,0,0,.11-.22l.09-.25.36-1,.09-.24,0-.12s0-.1.07,0l.4.23,1.6.93a13.54,13.54,0,0,0,2,.79,14,14,0,0,0,4.39.6,15.22,15.22,0,0,0,4.46-.83,12.3,12.3,0,0,0,6.91-5.78,21.94,21.94,0,0,0,2.22-9.09,79.66,79.66,0,0,0-.21-9.3c-.37-6-.92-11.65-1.51-16.44S72.83,36,72.4,33.24c-.21-1.39-.38-2.48-.5-3.22A5.42,5.42,0,0,1,71.78,28.87Z"/><path class="cls-1" d="M21,51.75a12,12,0,0,1,11.36.53"/><path class="cls-2" d="M32.4,52.28c-.08.12-1.21-.46-2.44-.75a14.11,14.11,0,0,0-2.59-.42,13.74,13.74,0,0,0-3.23,0c-1.57.16-3,.78-3.1.65a6.51,6.51,0,0,1,3-1.32,12.42,12.42,0,0,1,3.44-.28,11.31,11.31,0,0,1,2.71.73A5.34,5.34,0,0,1,32.4,52.28Z"/><path class="cls-1" d="M22.06,67.09a9.53,9.53,0,0,0,8.21.1"/><path class="cls-2" d="M30.27,67.19c.06.11-.73.64-1.65.94a8.4,8.4,0,0,1-2,.42,9,9,0,0,1-2.47-.37,4.19,4.19,0,0,1-2.09-1.09c.06-.12,1.12.29,2.23.43a11,11,0,0,0,2.3.06,11.43,11.43,0,0,0,1.87-.11C29.35,67.36,30.21,67.06,30.27,67.19Z"/><circle class="cls-2" cx="26.15" cy="60.31" r="2.74"/><path class="cls-1" d="M28.89,60.31c-.08,0-.09-.47-.41-1.05A2.62,2.62,0,0,0,26.64,58a2.49,2.49,0,0,0-1.19.11,2.58,2.58,0,0,0-.88.57,2.56,2.56,0,0,0-.65,2.24A2.34,2.34,0,0,0,24.53,62a2.37,2.37,0,0,0,1.31.68,2.52,2.52,0,0,0,1.49-.2,2.57,2.57,0,0,0,1-.89,6.41,6.41,0,0,0,.54-1.29,1.85,1.85,0,0,1-.21,1.48,2.94,2.94,0,0,1-2.93,1.58A3.08,3.08,0,0,1,24,62.59a3.16,3.16,0,0,1-.88-3.34A3.09,3.09,0,0,1,24,58a3.15,3.15,0,0,1,1.24-.68,3.09,3.09,0,0,1,1.57,0,3,3,0,0,1,2,1.81C29.07,59.82,28.94,60.32,28.89,60.31Z"/><path class="cls-1" d="M55.94,51.75a12,12,0,0,1,11.35.53"/><path class="cls-2" d="M67.29,52.28c-.07.12-1.2-.46-2.43-.75a14.16,14.16,0,0,0-2.6-.42,13.61,13.61,0,0,0-3.22,0c-1.57.16-3,.78-3.1.65a6.51,6.51,0,0,1,3-1.32,12.41,12.41,0,0,1,3.44-.28,11.31,11.31,0,0,1,2.71.73A5.19,5.19,0,0,1,67.29,52.28Z"/><path class="cls-1" d="M57,67.09a9.55,9.55,0,0,0,8.22.1"/><path class="cls-2" d="M65.17,67.19c.06.11-.73.64-1.65.94a8.4,8.4,0,0,1-2,.42,9,9,0,0,1-2.47-.37A4.31,4.31,0,0,1,57,67.09c.07-.12,1.13.29,2.24.43a11,11,0,0,0,2.3.06,11.33,11.33,0,0,0,1.86-.11C64.25,67.36,65.11,67.06,65.17,67.19Z"/><circle class="cls-2" cx="61.05" cy="60.31" r="2.74"/><path class="cls-1" d="M63.79,60.31c-.08,0-.1-.47-.42-1.05A2.58,2.58,0,0,0,61.54,58a2.49,2.49,0,0,0-1.19.11,2.58,2.58,0,0,0-.88.57,2.56,2.56,0,0,0-.65,2.24A2.34,2.34,0,0,0,59.43,62a2.37,2.37,0,0,0,1.31.68,2.52,2.52,0,0,0,1.49-.2,2.64,2.64,0,0,0,1-.89,6.41,6.41,0,0,0,.54-1.29,1.85,1.85,0,0,1-.21,1.48,2.94,2.94,0,0,1-2.93,1.58,3.08,3.08,0,0,1-1.77-.78A3.16,3.16,0,0,1,58,59.25,3.13,3.13,0,0,1,58.86,58a3.26,3.26,0,0,1,1.25-.68,3.09,3.09,0,0,1,1.57,0,3,3,0,0,1,2,1.81C64,59.82,63.84,60.32,63.79,60.31Z"/><path class="cls-1" d="M43.45,82.17a8.57,8.57,0,0,0,5.41-2.9c1.4-1.56,2.12-4,2.64-6a45.75,45.75,0,0,1-16.25.42A13.24,13.24,0,0,0,38,79.27a8.55,8.55,0,0,0,5.4,2.9"/><path class="cls-2" d="M43.39,82.17a2.22,2.22,0,0,1-.78,0,7.07,7.07,0,0,1-2-.61,9.1,9.1,0,0,1-2.45-1.68,10.2,10.2,0,0,1-2-2.76,14.18,14.18,0,0,1-.71-1.6c-.11-.27-.2-.55-.29-.82L35,74.08c-.06-.24-.13-.48-.2-.72,0-.06,0-.12,0-.18l.16,0,.32,0,.64.09c.5.07.66.08.93.11.49.06,1,.1,1.41.14,1.76.12,3,.11,3.17.12s1.69.06,3.87,0c1.09-.06,2.34-.16,3.67-.33l1-.15.51-.09.77-.14.83-.17c-.06.28-.16.6-.23.89l-.2.7-.16.52a14,14,0,0,1-1.79,3.85,9,9,0,0,1-2.76,2.45,7.7,7.7,0,0,1-2.42.91,2.93,2.93,0,0,1-1,.07,11.07,11.07,0,0,0,3.21-1.3,9.11,9.11,0,0,0,2.51-2.43,13.88,13.88,0,0,0,1.58-3.75l.14-.51.06-.25,0-.07a.83.83,0,0,0,0-.13l-.2,0-.1,0-.16,0-.52.1c-.34.07-.68.12-1,.18-1.34.21-2.62.34-3.73.43-2.21.16-3.76.12-3.93.13s-1.45,0-3.24-.21c-.45,0-.93-.1-1.43-.17l-.6-.09-.15,0-.07,0h0l0,.08s0,0,0,.2.16.52.25.79a13.53,13.53,0,0,0,.62,1.55,9.79,9.79,0,0,0,1.81,2.68,9.46,9.46,0,0,0,2.24,1.73A14.31,14.31,0,0,0,43.39,82.17Z"/></g></g></svg>