<svg xmlns="http://www.w3.org/2000/svg" viewBox="0 0 75.98 74.86"><defs><style>.cls-1{fill:#325179;}</style></defs><title>Adres</title><g id="Layer_2" data-name="Layer 2"><g id="Layer_1-2" data-name="Layer 1"><path class="cls-1" d="M28.75,48.94a.83.83,0,0,1-.65-.33.81.81,0,0,1,.18-1.13l23.38-17a.81.81,0,0,1,1,0l23,17a.8.8,0,0,1,.17,1.13.79.79,0,0,1-1.12.17L52.13,32.11,29.23,48.78A.77.77,0,0,1,28.75,48.94Z"/><path class="cls-1" d="M67,74.36H60.82a3.76,3.76,0,0,1-3.76-3.76V62.27a5.45,5.45,0,0,0-2.74-4.79,4.24,4.24,0,0,0-3.77-.26,5.82,5.82,0,0,0-3.64,5.44V70.6a3.76,3.76,0,0,1-3.76,3.76H37a3.76,3.76,0,0,1-3.76-3.76V50.27a.81.81,0,1,1,1.61,0V70.6A2.15,2.15,0,0,0,37,72.75h6.18a2.14,2.14,0,0,0,2.14-2.15V62.66A7.43,7.43,0,0,1,50,55.72a5.82,5.82,0,0,1,5.13.35,7.06,7.06,0,0,1,3.57,6.2V70.6a2.15,2.15,0,0,0,2.15,2.15H67a2.15,2.15,0,0,0,2.15-2.15V50.27a.81.81,0,1,1,1.61,0V70.6A3.76,3.76,0,0,1,67,74.36Z"/><path class="cls-1" d="M26.44,37.88A11.44,11.44,0,1,1,37.88,26.44,11.45,11.45,0,0,1,26.44,37.88Zm0-21.26a9.82,9.82,0,1,0,9.82,9.82A9.82,9.82,0,0,0,26.44,16.62Z"/><path class="cls-1" d="M24,74.86a.82.82,0,0,1-.79-.63c-1.49-6.5-5.22-11.13-10-17.86C6.71,47.14,0,37.61,0,26.44a26.44,26.44,0,0,1,52.88,0,.81.81,0,1,1-1.61,0,24.83,24.83,0,0,0-49.66,0c0,10.66,6.57,20,12.91,29,4.84,6.86,8.65,11.62,10.21,18.43a.8.8,0,0,1-.6,1A.57.57,0,0,1,24,74.86Z"/></g></g></svg>