<svg xmlns="http://www.w3.org/2000/svg" viewBox="0 0 71 71"><defs><style>.cls-1{fill:#325179;}</style></defs><title>Ağırlık</title><g id="Layer_2" data-name="Layer 2"><g id="Layer_1-2" data-name="Layer 1"><path class="cls-1" d="M64.76,0H6.24A6.25,6.25,0,0,0,0,6.24V64.76A6.25,6.25,0,0,0,6.24,71H64.76A6.25,6.25,0,0,0,71,64.76V6.24A6.25,6.25,0,0,0,64.76,0Zm2.08,64.76a2.08,2.08,0,0,1-2.08,2.08H6.24a2.08,2.08,0,0,1-2.08-2.08V6.24A2.08,2.08,0,0,1,6.24,4.16H64.76a2.08,2.08,0,0,1,2.08,2.08Z"/><path class="cls-1" d="M59.49,16.59a40,40,0,0,0-48,0,2.1,2.1,0,0,0-.42,2.92l11,14.6a2.05,2.05,0,0,0,1.66.84A2.11,2.11,0,0,0,25,34.53a17.53,17.53,0,0,1,21,0,2.08,2.08,0,0,0,2.91-.42l11-14.6A2,2,0,0,0,60.3,18,2.1,2.1,0,0,0,59.49,16.59ZM46.79,30A21.54,21.54,0,0,0,37.58,27V20.63a2.08,2.08,0,1,0-4.16,0V27A21.54,21.54,0,0,0,24.21,30l-8.5-11.31a35.84,35.84,0,0,1,39.58,0Z"/></g></g></svg>