<svg xmlns="http://www.w3.org/2000/svg" viewBox="0 0 62.1 62.68"><defs><style>.cls-1{fill:#325179;}</style></defs><title>AileGrupları</title><g id="Layer_2" data-name="Layer 2"><g id="Layer_1-2" data-name="Layer 1"><path class="cls-1" d="M19.36,30.15A11.15,11.15,0,1,1,30.51,19,11.16,11.16,0,0,1,19.36,30.15Zm0-20.91A9.77,9.77,0,1,0,29.13,19,9.78,9.78,0,0,0,19.36,9.24Z"/><path class="cls-1" d="M.69,59.38A.69.69,0,0,1,0,58.69C0,43,8.49,30.29,18.92,30.29h.18c8.54,0,16.06,8.62,18.27,21a.69.69,0,1,1-1.36.24c-2.1-11.67-9-19.82-16.91-19.82h-.18c-9.67,0-17.54,12.12-17.54,27A.69.69,0,0,1,.69,59.38Z"/><path class="cls-1" d="M43.8,22.3A11.15,11.15,0,1,1,55,11.15,11.16,11.16,0,0,1,43.8,22.3Zm0-20.92a9.77,9.77,0,1,0,9.76,9.77A9.78,9.78,0,0,0,43.8,1.38Z"/><path class="cls-1" d="M61.4,52.06a.69.69,0,0,1-.69-.69c0-14.9-7.87-27-17.54-27H43c-4.88,0-9.58,3.19-12.9,8.74a.69.69,0,0,1-1.19-.71C32.48,26.4,37.61,23,43,23h.18C53.61,23,62.1,35.71,62.1,51.37A.69.69,0,0,1,61.4,52.06Z"/><path class="cls-1" d="M45.39,45.48a7.08,7.08,0,1,1,7.08-7.07A7.08,7.08,0,0,1,45.39,45.48Zm0-12.76a5.69,5.69,0,1,0,5.69,5.69A5.69,5.69,0,0,0,45.39,32.72Z"/><path class="cls-1" d="M57.4,62.68a.69.69,0,0,1-.69-.69c0-8.22-5.05-14.92-11.26-15S34.19,53.77,34.19,62a.69.69,0,1,1-1.38,0c0-8.94,5.61-16.23,12.54-16.34h.2c6.93.11,12.54,7.4,12.54,16.34A.69.69,0,0,1,57.4,62.68Z"/></g></g></svg>