<svg xmlns="http://www.w3.org/2000/svg" viewBox="0 0 67.37 67.1"><defs><style>.cls-1{fill:#335179;}</style></defs><title>AlerjiDurumu</title><g id="Layer_2" data-name="Layer 2"><g id="Layer_1-2" data-name="Layer 1"><path class="cls-1" d="M60.48,67.1H6.89A6.9,6.9,0,0,1,0,60.21V39.08a.76.76,0,0,1,.77-.77H66.61a.76.76,0,0,1,.76.77V60.21A6.9,6.9,0,0,1,60.48,67.1ZM1.53,39.84V60.21a5.37,5.37,0,0,0,5.36,5.36H60.48a5.37,5.37,0,0,0,5.36-5.36V39.84Z"/><path class="cls-1" d="M66.61,39.84a.75.75,0,0,1-.66-.38l-5.81-10a11.1,11.1,0,0,0-8.54-4.92H15.77a11.06,11.06,0,0,0-8.53,4.92l-5.81,10a.77.77,0,0,1-1,.28A.78.78,0,0,1,.1,38.69l5.81-10A12.63,12.63,0,0,1,15.77,23H51.6a12.62,12.62,0,0,1,9.86,5.68l5.81,10A.77.77,0,0,1,67,39.74.75.75,0,0,1,66.61,39.84Z"/><path class="cls-1" d="M46.09,59.14H21.9a2.31,2.31,0,0,1-2.3-2.3V49.49a2.3,2.3,0,0,1,2.3-2.3H46.09a2.3,2.3,0,0,1,2.3,2.3v7.35A2.31,2.31,0,0,1,46.09,59.14ZM21.9,48.72a.77.77,0,0,0-.77.77v7.35a.76.76,0,0,0,.77.76H46.09a.77.77,0,0,0,.77-.76V49.49a.78.78,0,0,0-.77-.77Z"/><path class="cls-1" d="M49.77,32.19H17.61a.77.77,0,1,1,0-1.54H49.77a.77.77,0,0,1,0,1.54Z"/><path class="cls-1" d="M43.84,31.38a.79.79,0,0,1-.44-.14.76.76,0,0,1-.19-1.06A58.59,58.59,0,0,0,53.35,2.56a1,1,0,0,0-.21-.11c-1.47-.64-3.28,0-5,.8s-4,1.83-6.19,1.15A8.83,8.83,0,0,1,39.4,2.93a5.45,5.45,0,0,0-2.51-1.31,20.1,20.1,0,0,0-3.8,0,5.55,5.55,0,0,0-2.51,1.31A8.83,8.83,0,0,1,28.05,4.4c-2.19.68-4.4-.33-6.19-1.15s-3.55-1.44-5-.8a1,1,0,0,0-.21.11A58.59,58.59,0,0,0,26.77,30.18a.76.76,0,0,1-.19,1.06.77.77,0,0,1-1.07-.19A60,60,0,0,1,15.08,2.36a.77.77,0,0,1,.12-.49,2.38,2.38,0,0,1,1-.83c2-.88,4.21-.12,6.27.82,1.63.74,3.47,1.58,5.09,1.08A7.39,7.39,0,0,0,29.66,1.7,6.76,6.76,0,0,1,32.93.1a21.81,21.81,0,0,1,4.12,0,6.76,6.76,0,0,1,3.27,1.6,7.39,7.39,0,0,0,2.07,1.24c1.62.51,3.47-.34,5.09-1.08C49.54.92,51.73.16,53.75,1a2.38,2.38,0,0,1,1,.83.71.71,0,0,1,.12.49A60,60,0,0,1,44.47,31.05.78.78,0,0,1,43.84,31.38Z"/><path class="cls-1" d="M30.93,31.25a.74.74,0,0,1-.59-.28A48.56,48.56,0,0,1,22.63,17.8a.77.77,0,1,1,1.43-.56A46.85,46.85,0,0,0,31.52,30a.77.77,0,0,1-.1,1.08A.75.75,0,0,1,30.93,31.25Z"/><path class="cls-1" d="M38,31.25a.72.72,0,0,1-.48-.17A.76.76,0,0,1,37.45,30a47.14,47.14,0,0,0,7.47-12.76.77.77,0,0,1,1-.44.78.78,0,0,1,.44,1A48.81,48.81,0,0,1,38.64,31,.78.78,0,0,1,38,31.25Z"/><path class="cls-1" d="M34.08,31.82a.76.76,0,0,1-.76-.77V17.63a.76.76,0,0,1,.76-.76.77.77,0,0,1,.77.76V31.05A.77.77,0,0,1,34.08,31.82Z"/></g></g></svg>