<svg xmlns="http://www.w3.org/2000/svg" viewBox="0 0 152.42596 152.42592"><defs><style>.cls-1{fill:#fff;}.cls-2{fill:#dc3d45;}.cls-3{fill:#325179;}</style></defs><title>Asset 2</title><g id="Layer_2" data-name="Layer 2"><g id="Layer_1-2" data-name="Layer 1"><path class="cls-1" d="M26.44351,118.2615C17.7189,107.43369,10.67531,91.19327,10.67531,76.213c0-34.82144,30.87939-65.70083,65.70084-65.70083,14.9803,0,31.22073,7.04359,42.04853,15.7682L26.44351,118.2615"/><path class="cls-1" d="M126.30879,34.16443A70.10549,70.10549,0,0,1,142.077,76.213c0,34.82145-30.8794,65.70084-65.70084,65.70084a70.10539,70.10539,0,0,1-42.04854-15.7682"/><path class="cls-2" d="M76.213,0a76.213,76.213,0,1,0,76.213,76.213A76.21346,76.21346,0,0,0,76.213,0ZM10.51213,76.213c0-34.82144,30.8794-65.70084,65.70084-65.70084,14.98033,0,31.22075,7.0436,42.04856,15.76821L26.28034,118.26151C17.55573,107.4337,10.51213,91.19328,10.51213,76.213ZM76.213,141.91381a70.10534,70.10534,0,0,1-42.04853-15.7682l91.98119-91.98117A70.10534,70.10534,0,0,1,141.91383,76.213C141.91383,111.03442,111.03444,141.91381,76.213,141.91381Z"/><circle class="cls-1" cx="75.70409" cy="76.42592" r="67"/><path class="cls-3" d="M82.43035,93.3479a33.40582,33.40582,0,0,0,14.255-35.91153L91.99892,38.18515a1.84835,1.84835,0,0,0-1.79659-1.4117H62.22308a1.84753,1.84753,0,0,0-1.79587,1.4117L55.74078,57.43637a33.40156,33.40156,0,0,0,14.255,35.91153l4.36872,2.83858v24.53989l-14.3857,7.19212a1.84883,1.84883,0,0,0,.8268,3.50219H91.61981a1.84883,1.84883,0,0,0,.82681-3.50219l-14.385-7.19212V96.18648ZM63.67594,40.4706H88.75018l3.7867,15.55478H59.88925Zm4.96084,87.25293,7.57628-3.78815,7.57629,3.78815Z"/><path class="cls-3" d="M93.40074,59.72169A29.70848,29.70848,0,0,1,80.41632,90.24727l-4.20366,2.7322-4.20182-2.7322A29.70631,29.70631,0,0,1,59.02457,59.72169Z"/></g></g></svg>