<svg xmlns="http://www.w3.org/2000/svg" viewBox="0 0 66.99 67"><defs><style>.cls-1{fill:#325179;}</style></defs><title>AmeliyatYaralanma</title><g id="Layer_2" data-name="Layer 2"><g id="Layer_1-2" data-name="Layer 1"><path class="cls-1" d="M65.21,47,51.71,33.5,65.22,20a6.11,6.11,0,0,0,0-8.6L55.61,1.78a6.1,6.1,0,0,0-8.59,0L33.5,15.29,20,1.78a6.1,6.1,0,0,0-8.61,0l-9.59,9.6a6.1,6.1,0,0,0,0,8.61L15.28,33.5,1.77,47a6.11,6.11,0,0,0,0,8.6l9.61,9.6a6.08,6.08,0,0,0,8.59,0L33.5,51.7,47,65.21a6.08,6.08,0,0,0,8.61,0l9.59-9.59A6.1,6.1,0,0,0,65.21,47ZM48.59,3.35a3.88,3.88,0,0,1,5.45,0L63.64,13a3.86,3.86,0,0,1,0,5.45L50.13,31.93,35.07,16.86ZM18.4,63.64a3.85,3.85,0,0,1-5.44,0L3.35,54a3.86,3.86,0,0,1,0-5.45L16.86,35.07,31.92,50.14ZM63.64,54,54,63.64a4,4,0,0,1-5.45,0L3.36,18.41a3.86,3.86,0,0,1,0-5.45L13,3.36a4,4,0,0,1,5.45,0L63.64,48.59a3.87,3.87,0,0,1,0,5.46Z"/><path class="cls-1" d="M30.93,19.31a1.1,1.1,0,0,0-1.57,0l-10,10.05a1.11,1.11,0,0,0,0,1.58L36.06,47.69a1.1,1.1,0,0,0,1.57,0l10.06-10a1.13,1.13,0,0,0,0-1.58Zm5.92,26L21.67,30.15l8.47-8.47L45.32,36.85Z"/><path class="cls-1" d="M44.66,20.1H46.9v2.23H44.66Z"/><path class="cls-1" d="M49.13,15.63h2.23v2.23H49.13Z"/><path class="cls-1" d="M53.6,11.16h2.23V13.4H53.6Z"/><path class="cls-1" d="M40.2,15.63h2.23v2.23H40.2Z"/><path class="cls-1" d="M44.66,11.16H46.9V13.4H44.66Z"/><path class="cls-1" d="M49.13,6.7h2.23V8.93H49.13Z"/><path class="cls-1" d="M49.13,24.56h2.23V26.8H49.13Z"/><path class="cls-1" d="M53.6,20.1h2.23v2.23H53.6Z"/><path class="cls-1" d="M58.06,15.63H60.3v2.23H58.06Z"/><path class="cls-1" d="M11.16,20.1h2.23v2.23H11.16Z"/><path class="cls-1" d="M15.63,15.63h2.23v2.23H15.63Z"/><path class="cls-1" d="M20.09,11.16h2.24V13.4H20.09Z"/><path class="cls-1" d="M6.69,15.63H8.93v2.23H6.69Z"/><path class="cls-1" d="M11.16,11.16h2.23V13.4H11.16Z"/><path class="cls-1" d="M15.63,6.7h2.23V8.93H15.63Z"/><path class="cls-1" d="M15.63,24.56h2.23V26.8H15.63Z"/><path class="cls-1" d="M20.09,20.1h2.24v2.23H20.09Z"/><path class="cls-1" d="M24.56,15.63h2.23v2.23H24.56Z"/><path class="cls-1" d="M44.66,53.6H46.9v2.23H44.66Z"/><path class="cls-1" d="M49.13,49.13h2.23v2.24H49.13Z"/><path class="cls-1" d="M53.6,44.67h2.23V46.9H53.6Z"/><path class="cls-1" d="M40.2,49.13h2.23v2.24H40.2Z"/><path class="cls-1" d="M44.66,44.67H46.9V46.9H44.66Z"/><path class="cls-1" d="M49.13,40.2h2.23v2.23H49.13Z"/><path class="cls-1" d="M49.13,58.07h2.23V60.3H49.13Z"/><path class="cls-1" d="M53.6,53.6h2.23v2.23H53.6Z"/><path class="cls-1" d="M58.06,49.13H60.3v2.24H58.06Z"/><path class="cls-1" d="M11.16,53.6h2.23v2.23H11.16Z"/><path class="cls-1" d="M15.63,49.13h2.23v2.24H15.63Z"/><path class="cls-1" d="M20.09,44.67h2.24V46.9H20.09Z"/><path class="cls-1" d="M6.69,49.13H8.93v2.24H6.69Z"/><path class="cls-1" d="M11.16,44.67h2.23V46.9H11.16Z"/><path class="cls-1" d="M15.63,40.2h2.23v2.23H15.63Z"/><path class="cls-1" d="M15.63,58.07h2.23V60.3H15.63Z"/><path class="cls-1" d="M20.09,53.6h2.24v2.23H20.09Z"/><path class="cls-1" d="M24.56,49.13h2.23v2.24H24.56Z"/></g></g></svg>