<svg xmlns="http://www.w3.org/2000/svg" viewBox="0 0 86.54 86.54"><defs><style>.cls-1{fill:#325179;}</style></defs><title>Arteryel</title><g id="Layer_2" data-name="Layer 2"><g id="Layer_1-2" data-name="Layer 1"><path class="cls-1" d="M.08,29.78A3.61,3.61,0,0,0,3.6,32.64a3.92,3.92,0,0,0,.76-.08l25.27-5.4a3.64,3.64,0,0,0,2.53-2.06l9-20a3.6,3.6,0,1,0-6.58-2.94l-8.2,18.34-7.45,1.59L6.05,10.25a3.61,3.61,0,0,0-4.89,5.31l9.08,8.36L2.85,25.5A3.62,3.62,0,0,0,.08,29.78Z"/><path class="cls-1" d="M36,86.54a3.6,3.6,0,0,0,3.6-3.6V77.39a3.71,3.71,0,0,0-.06-.67L32.11,37.21a3.55,3.55,0,0,0-1.54-2.33,3.61,3.61,0,0,0-2.75-.53l-25,5.32a3.61,3.61,0,1,0,1.5,7.06l21.35-4.56,2.44,12.89L18.8,57.75a3.61,3.61,0,0,0-2.42,2.31L12.75,70.83a3.6,3.6,0,0,0,6.83,2.3l3-9,6.88-2,2.93,15.54v5.21A3.6,3.6,0,0,0,36,86.54Z"/><path class="cls-1" d="M47.54,86.29a3.64,3.64,0,0,0,1.12.18A3.59,3.59,0,0,0,52.08,84l.81-2.44L78.62,86.4A3.61,3.61,0,1,0,80,79.31L51.11,73.87A3.6,3.6,0,0,0,47,76.29l-1.78,5.45A3.6,3.6,0,0,0,47.54,86.29Z"/><path class="cls-1" d="M75,59.86a3.61,3.61,0,0,0-5.7-4.42l-5.64,7.29L52.14,60.29l-5.2-33.88L50.28,18l10.5,5.6a3.61,3.61,0,0,0,3.4-6.37L53,11.24l2.5-6.31a3.61,3.61,0,0,0-6.71-2.65L39.88,24.67a3.51,3.51,0,0,0-.21,1.87l5.71,37.31a3.61,3.61,0,0,0,2.82,3l34,7.2a3.82,3.82,0,0,0,.75.08A3.61,3.61,0,0,0,83.68,67l-12.2-2.58Z"/></g></g></svg>