<svg xmlns="http://www.w3.org/2000/svg" viewBox="0 0 71.99 72"><defs><style>.cls-1{fill:#335179;}</style></defs><title>Ates</title><g id="Layer_2" data-name="Layer 2"><g id="Layer_1-2" data-name="Layer 1"><path class="cls-1" d="M14,64.29a1.17,1.17,0,0,1-.85-.36l-5.11-5.1a1.21,1.21,0,0,1-.19-1.45l8.68-15.19A75.55,75.55,0,0,1,28.7,26.28L48.9,6.08a1.24,1.24,0,0,1,1.7,0L65.91,21.4a1.19,1.19,0,0,1,0,1.69L45.71,43.3a75.19,75.19,0,0,1-15.9,12.14l-15.2,8.69a1.24,1.24,0,0,1-.59.16Zm-3.61-6.51,3.81,3.81,14.4-8.23A73.1,73.1,0,0,0,44,41.6L63.37,22.25,49.75,8.63,30.4,28a73.08,73.08,0,0,0-11.76,15.4Z"/><path class="cls-1" d="M4.81,72a4.78,4.78,0,0,1-3.39-1.39h0a4.82,4.82,0,0,1,0-6.81l6.66-6.66a1.23,1.23,0,0,1,.85-.35,1.21,1.21,0,0,1,.85.35l5.1,5.11a1.19,1.19,0,0,1,0,1.69L8.2,70.6A4.77,4.77,0,0,1,4.81,72Zm4.1-12.32L3.1,65.49a2.4,2.4,0,0,0,0,3.4h0a2.46,2.46,0,0,0,3.4,0l5.81-5.81Z"/><path class="cls-1" d="M65.07,23.45a1.17,1.17,0,0,1-.85-.36L48.9,7.78a1.2,1.2,0,0,1,0-1.7l2.57-2.57a12,12,0,0,1,17,17l-2.58,2.57a1.17,1.17,0,0,1-.84.36ZM51.45,6.93,65.07,20.55l1.72-1.73A9.63,9.63,0,0,0,53.17,5.21Z"/><path class="cls-1" d="M33.59,46.42a1.21,1.21,0,0,1-.85-.35l-6.81-6.81a1.2,1.2,0,0,1,0-1.7l17-17a1.23,1.23,0,0,1,1.69,0l6.81,6.8a1.2,1.2,0,0,1,0,1.7l-17,17A1.25,1.25,0,0,1,33.59,46.42Zm-5.11-8,5.1,5.11L48.9,28.2l-5.11-5.11Z"/><path class="cls-1" d="M33.59,39.61a1.2,1.2,0,0,1-.85-2l4.81-4.81a1.2,1.2,0,0,1,1.7,1.7l-4.82,4.81A1.2,1.2,0,0,1,33.59,39.61Z"/><path class="cls-1" d="M42,31.2a1.22,1.22,0,0,1-.85-.35,1.2,1.2,0,0,1,0-1.7l1.2-1.2a1.2,1.2,0,0,1,1.7,0,1.19,1.19,0,0,1,0,1.69l-1.2,1.21A1.22,1.22,0,0,1,42,31.2Z"/><path class="cls-1" d="M54,26a1.21,1.21,0,0,1-.84-.35l-6.81-6.81a1.21,1.21,0,0,1,0-1.7l3.4-3.4a1.2,1.2,0,0,1,1.7,0l6.81,6.81a1.19,1.19,0,0,1,0,1.69l-3.41,3.41A1.21,1.21,0,0,1,54,26Zm-5.1-8L54,23.1l1.71-1.71-5.11-5.1Z"/><path class="cls-1" d="M12,61.2a1.2,1.2,0,0,1-.85-2.05l4.8-4.8a1.2,1.2,0,0,1,1.7,1.7l-4.8,4.8A1.24,1.24,0,0,1,12,61.2Z"/></g></g></svg>