<svg xmlns="http://www.w3.org/2000/svg" viewBox="0 0 54.28 54.28"><defs><style>.cls-1{fill:#325179;}</style></defs><title>Asset 2</title><g id="Layer_2" data-name="Layer 2"><g id="Layer_1-2" data-name="Layer 1"><path class="cls-1" d="M52.62,31.35c-.86-.51-1.74-1-2.63-1.54a22.71,22.71,0,0,0,0-5.34c.89-.51,1.78-1,2.63-1.54A3.45,3.45,0,0,0,54,18.67h0l-1.88-4.55a3.45,3.45,0,0,0-4-2l-3,.76A23.18,23.18,0,0,0,41.41,9.1c.27-1,.53-2,.77-3a3.45,3.45,0,0,0-2-4L35.61.26a3.45,3.45,0,0,0-4.26,1.4c-.51.86-1,1.74-1.54,2.63a22.71,22.71,0,0,0-5.34,0c-.51-.89-1-1.78-1.54-2.63A3.45,3.45,0,0,0,18.67.26L14.12,2.14a3.45,3.45,0,0,0-2,4c.24,1,.5,2,.76,3A23.18,23.18,0,0,0,9.1,12.87c-1-.27-2-.53-3-.77a3.45,3.45,0,0,0-4,2L.26,18.67a3.45,3.45,0,0,0,1.4,4.26c.86.51,1.74,1,2.63,1.54a22.71,22.71,0,0,0,0,5.34c-.89.51-1.77,1-2.63,1.54a3.45,3.45,0,0,0-1.4,4.26l1.88,4.55a3.45,3.45,0,0,0,4,2l3-.76a23.18,23.18,0,0,0,3.78,3.76c-.27,1-.53,2-.77,3a3.45,3.45,0,0,0,2,4L18.67,54a3.28,3.28,0,0,0,1.3.26,3.45,3.45,0,0,0,3-1.66c.51-.85,1-1.73,1.55-2.63a22.63,22.63,0,0,0,5.33,0c.51.89,1,1.77,1.54,2.63A3.45,3.45,0,0,0,35.61,54l4.55-1.88a3.45,3.45,0,0,0,2-4c-.24-1-.5-2-.76-3a23.52,23.52,0,0,0,3.76-3.77l3,.76a3.45,3.45,0,0,0,4-2L54,35.61A3.45,3.45,0,0,0,52.62,31.35Zm-3.79,7.22c-.94-.23-1.89-.48-2.84-.74A3.43,3.43,0,0,0,42.39,39,19.37,19.37,0,0,1,39,42.39,3.4,3.4,0,0,0,37.84,46c.25,1,.5,1.91.73,2.84l-4.18,1.73c-.5-.83-1-1.68-1.48-2.53a3.43,3.43,0,0,0-3.4-1.69,19.28,19.28,0,0,1-4.74,0,3.44,3.44,0,0,0-3.4,1.7c-.49.86-1,1.71-1.48,2.53l-4.18-1.73c.23-.94.48-1.89.74-2.84a3.43,3.43,0,0,0-1.21-3.6A19,19,0,0,1,11.89,39a3.42,3.42,0,0,0-3.6-1.2c-.95.26-1.9.51-2.84.74L3.72,34.39l2.53-1.48a3.41,3.41,0,0,0,1.69-3.4,19.28,19.28,0,0,1,0-4.74,3.44,3.44,0,0,0-1.7-3.4L3.72,19.89l1.73-4.18c.94.23,1.89.48,2.84.74a3.43,3.43,0,0,0,3.6-1.21,19,19,0,0,1,3.36-3.35,3.42,3.42,0,0,0,1.19-3.6c-.25-.95-.5-1.9-.73-2.84l4.18-1.73c.49.83,1,1.67,1.48,2.53a3.41,3.41,0,0,0,3.4,1.69,19.28,19.28,0,0,1,4.74,0,3.44,3.44,0,0,0,3.4-1.7c.49-.85,1-1.7,1.48-2.53l4.18,1.73c-.23.94-.48,1.89-.74,2.84A3.43,3.43,0,0,0,39,11.89a19,19,0,0,1,3.35,3.36A3.42,3.42,0,0,0,46,16.44c.95-.25,1.9-.5,2.84-.73l1.73,4.18L48,21.37a3.42,3.42,0,0,0-1.7,3.39,18.88,18.88,0,0,1,0,4.75,3.44,3.44,0,0,0,1.7,3.4c.85.49,1.7,1,2.53,1.48Z"/><path class="cls-1" d="M38.69,22.36h0a12.52,12.52,0,1,0-6.77,16.33A12.52,12.52,0,0,0,38.69,22.36ZM30.52,35.3A8.83,8.83,0,1,1,23.76,19a8.69,8.69,0,0,1,3.37-.67,8.83,8.83,0,0,1,3.39,17Z"/></g></g></svg>