<?xml version="1.0" encoding="iso-8859-1"?>
<!-- Generator: Adobe Illustrator 19.0.0, SVG Export Plug-In . SVG Version: 6.00 Build 0)  -->
<svg version="1.1" id="Capa_1" xmlns="http://www.w3.org/2000/svg" xmlns:xlink="http://www.w3.org/1999/xlink" x="0px" y="0px"
	 viewBox="0 0 512 512" style="enable-background:new 0 0 512 512;" xml:space="preserve">
<path style="fill:#E1EFFB;" d="M385.249,302.944v-35.902h-93.276v35.902l-18.014,16.217c-5.3,4.771-8.326,11.566-8.326,18.697
	v159.911c0,7.86,6.372,14.231,14.231,14.231h117.493c7.86,0,14.231-6.372,14.231-14.231V337.858c0-7.131-3.026-13.926-8.326-18.697
	L385.249,302.944z"/>
<path style="fill:#CADDEA;" d="M403.263,319.161l-18.014-16.217v-35.902h-49.406v35.902l24.72,22.254
	c1.031,0.928,1.62,2.25,1.62,3.638V512h35.175c7.86,0,14.231-6.372,14.231-14.231V337.858
	C411.589,330.727,408.563,323.932,403.263,319.161z"/>
<path style="fill:#24D9DE;" d="M385.249,302.944h-93.276l-18.014,16.217c-5.3,4.771-8.326,11.566-8.326,18.697v159.911
	c0,7.86,6.372,14.231,14.231,14.231h117.493c7.86,0,14.231-6.372,14.231-14.231V337.858c0-7.131-3.026-13.926-8.326-18.697
	L385.249,302.944z"/>
<path style="fill:#11B9C1;" d="M410.352,330.066c-0.135-0.415-0.281-0.826-0.438-1.234c-0.313-0.814-0.668-1.612-1.064-2.389
	c-0.396-0.778-0.832-1.535-1.308-2.269s-0.99-1.444-1.543-2.128c-0.829-1.026-1.743-1.991-2.736-2.886l-18.014-16.217l0,0h-49.406
	l0,0l24.72,22.254c1.031,0.928,1.62,2.25,1.62,3.638V512h35.175c2.947,0,5.686-0.896,7.957-2.431s4.076-3.707,5.156-6.261
	c0.72-1.703,1.118-3.575,1.118-5.539V337.858C411.589,335.184,411.163,332.557,410.352,330.066z"/>
<path style="fill:#2C5871;" d="M391.681,279.739H285.54c-3.737,0-6.766-3.029-6.766-6.766V233.63c0-3.737,3.029-6.766,6.766-6.766
	h106.141c3.737,0,6.766,3.029,6.766,6.766v39.343C398.447,276.71,395.418,279.739,391.681,279.739z"/>
<path style="fill:#1D4859;" d="M391.681,226.863h-42.979v52.875h42.979c3.737,0,6.766-3.029,6.766-6.766v-39.343
	C398.447,229.893,395.418,226.863,391.681,226.863z"/>
<path style="fill:#E1EFFB;" d="M340.412,462.032h-74.78V353.739h74.78c3.253,0,5.891,2.637,5.891,5.891v96.512
	C346.303,459.394,343.666,462.032,340.412,462.032z"/>
<path style="fill:#CADDEA;" d="M340.412,353.739h-44.108v108.293h44.108c3.253,0,5.891-2.637,5.891-5.891v-96.512
	C346.303,356.376,343.666,353.739,340.412,353.739z"/>
<path style="fill:#2C5871;" d="M158.118,512c-4.205,0-7.614-3.409-7.614-7.614v-98.559c0-4.205,3.409-7.614,7.614-7.614
	c4.205,0,7.614,3.409,7.614,7.614v98.559C165.732,508.591,162.324,512,158.118,512z"/>
<path style="fill:#D0D1D2;" d="M172.191,418.271h-28.146c-4.764,0-8.626-3.862-8.626-8.626v-51.1h45.398v51.1
	C180.817,414.409,176.955,418.271,172.191,418.271z"/>
<rect x="141.58" y="26.54" style="fill:#C2C4C6;" width="33.07" height="101.12"/>
<path style="fill:#E1EFFB;" d="M207.974,385.381h-99.711c-4.336,0-7.851-3.515-7.851-7.851V114.784c0-4.336,3.515-7.851,7.851-7.851
	h99.711c4.336,0,7.851,3.515,7.851,7.851V377.53C215.825,381.866,212.31,385.381,207.974,385.381z"/>
<path style="fill:#CADDEA;" d="M207.974,106.933H166.08v278.448h41.894c4.336,0,7.851-3.515,7.851-7.851V114.784
	C215.825,110.448,212.31,106.933,207.974,106.933z"/>
<path style="fill:#24D9DE;" d="M100.411,377.53c0,4.336,3.515,7.851,7.851,7.851h99.711c4.336,0,7.851-3.515,7.851-7.851V191.363
	H100.411V377.53z"/>
<path style="fill:#11B9C1;" d="M166.08,385.381h41.894c4.336,0,7.851-3.515,7.851-7.851V191.363H166.08V385.381z"/>
<path style="fill:#D0D1D2;" d="M207.838,35.975h-99.44c-4.411,0-7.987-3.576-7.987-7.987V7.987c0-4.411,3.576-7.987,7.987-7.987
	h99.44c4.411,0,7.987,3.576,7.987,7.987v20.001C215.825,32.399,212.249,35.975,207.838,35.975z"/>
<path style="fill:#C2C4C6;" d="M207.838,0h-42.265v35.975h42.265c4.411,0,7.987-3.576,7.987-7.987V7.987
	C215.825,3.576,212.249,0,207.838,0z"/>
<path style="fill:#CADDEA;" d="M132.48,157.357h-32.068v15.228h32.068c4.205,0,7.614-3.409,7.614-7.614
	C140.094,160.766,136.685,157.357,132.48,157.357z"/>
<g>
	<path style="fill:#11B9C1;" d="M122.328,211.726h-21.916v15.228h21.916c4.205,0,7.614-3.409,7.614-7.614
		S126.533,211.726,122.328,211.726z"/>
	<path style="fill:#11B9C1;" d="M132.48,266.096h-32.068v15.228h32.068c4.205,0,7.614-3.409,7.614-7.614
		C140.094,269.505,136.685,266.096,132.48,266.096z"/>
	<path style="fill:#11B9C1;" d="M122.328,320.466h-21.916v15.228h21.916c4.205,0,7.614-3.409,7.614-7.614
		S126.533,320.466,122.328,320.466z"/>
</g>
<g>
</g>
<g>
</g>
<g>
</g>
<g>
</g>
<g>
</g>
<g>
</g>
<g>
</g>
<g>
</g>
<g>
</g>
<g>
</g>
<g>
</g>
<g>
</g>
<g>
</g>
<g>
</g>
<g>
</g>
</svg>