<svg xmlns="http://www.w3.org/2000/svg" viewBox="0 0 91.26804 108.81958"><defs><style>.cls-1{fill:#345279;}</style></defs><title>BasvuruListesi</title><g id="Layer_2" data-name="Layer 2"><g id="Layer_1-2" data-name="Layer 1"><path class="cls-1" d="M80.73711,22.09027V7.02062H55.98754a8.77565,8.77565,0,0,0-17.19674,0H0v91.268H10.53093v10.53093H91.268V32.62119ZM77.2268,23.54375l8.049,8.049h-8.049Zm0-4.96379-1.02841-1.02841H56.16494V10.53093H77.2268ZM3.51031,94.77834V10.53093H38.6134v7.02062H10.53093V94.77834Zm10.53093,10.53093V21.06185H38.6134v5.26547a5.26547,5.26547,0,0,0,10.53093,0V10.53093H45.634V26.32732a1.75516,1.75516,0,0,1-3.51031,0V8.77577a5.26547,5.26547,0,0,1,10.53093,0v22.817h3.5103V21.06185H73.71649V35.10309H87.75773v70.20618Z"/><path class="cls-1" d="M50.89948,87.75773A26.32732,26.32732,0,1,0,24.57216,61.43041,26.35721,26.35721,0,0,0,50.89948,87.75773Zm0-3.51031A22.73829,22.73829,0,0,1,34.47319,77.2268H67.32577A22.73829,22.73829,0,0,1,50.89948,84.24742ZM48.27189,58.93994A5.20943,5.20943,0,0,1,45.634,54.40979V50.89948a5.2791,5.2791,0,0,1,1.70973-3.88225,5.22007,5.22007,0,0,1,4.03309-1.36179,5.50024,5.50024,0,0,1,4.7881,5.60913v3.14522a5.20941,5.20941,0,0,1-2.63787,4.53015l-.87243.50735v5.06149l8.46725,2.41848A5.29431,5.29431,0,0,1,64.94072,71.993v1.72345H36.85825V71.993A5.29067,5.29067,0,0,1,40.67708,66.929l8.46725-2.4202V59.44729ZM50.89948,38.6134A22.80192,22.80192,0,0,1,68.451,75.98928V71.993a8.81971,8.81971,0,0,0-6.36415-8.44068l-5.92194-1.69v-.46878a8.78449,8.78449,0,0,0,3.51031-6.98377V51.26457a9.02875,9.02875,0,0,0-7.99675-9.10572,8.776,8.776,0,0,0-9.55479,8.74063v3.51031A8.78449,8.78449,0,0,0,45.634,61.39356v.46878l-5.92193,1.69174a8.81452,8.81452,0,0,0-6.36415,8.439v3.99624A22.80192,22.80192,0,0,1,50.89948,38.6134Z"/><path class="cls-1" d="M17.55155,91.268H84.24742v3.5103H17.55155Z"/><path class="cls-1" d="M17.55155,98.28865H77.2268V101.799H17.55155Z"/><path class="cls-1" d="M80.73711,98.28865h3.51031V101.799H80.73711Z"/></g></g></svg>