<svg xmlns="http://www.w3.org/2000/svg" viewBox="0 0 93.7 78.83"><defs><style>.cls-1{fill:#f1f3f3;}.cls-2{fill:#325179;}</style></defs><title>Asset 8</title><g id="Layer_2" data-name="Layer 2"><g id="Layer_1-2" data-name="Layer 1"><path class="cls-1" d="M6.44,24.91A9.09,9.09,0,0,1,.63,19a9.43,9.43,0,0,1,1.59-7.72A11.27,11.27,0,0,1,9,7.05C10.53,3.42,14.28.56,18.24.68S26,5.11,27.31,8.83Z"/><path class="cls-2" d="M6.44,24.91a5.58,5.58,0,0,1,1-1c.68-.59,1.67-1.41,2.86-2.38,2.39-2,5.61-4.54,8.87-7.13L24,10.61l2.24-1.78.22-.18,0,0s0-.05,0-.06,0-.06,0-.1a.91.91,0,0,0-.07-.14l-.13-.27c-.09-.18-.17-.36-.27-.52a14.67,14.67,0,0,0-2.23-3.1c-.34-.34-.62-.62-.84-.81s-.36-.31-.42-.36a10.14,10.14,0,0,0-1.66-1.13A7.16,7.16,0,0,0,19,1.47a6.94,6.94,0,0,0-2.48,0,9.63,9.63,0,0,0-5.34,3.16,10.6,10.6,0,0,0-1.06,1.41c-.14.26-.32.51-.44.78l-.32.66A1.6,1.6,0,0,1,9,7.63l-.33.08A11.17,11.17,0,0,0,5.26,9.14a10.24,10.24,0,0,0-2.68,2.48A9.16,9.16,0,0,0,1.05,14.8a7.84,7.84,0,0,0,.7,6.09,9.79,9.79,0,0,0,3.17,3.18c.93.59,1.55.78,1.52.84s-.16,0-.45-.08a7.68,7.68,0,0,1-1.22-.5,9.56,9.56,0,0,1-3.5-3.14,8.43,8.43,0,0,1-1-6.58,10,10,0,0,1,1.57-3.54A10.78,10.78,0,0,1,4.7,8.28,12.25,12.25,0,0,1,8.36,6.61c.3-.1.13,0,.29-.26a9.25,9.25,0,0,1,.47-.88,10.18,10.18,0,0,1,1.14-1.59,10.79,10.79,0,0,1,6-3.69A7.5,7.5,0,0,1,21.5.87a11.36,11.36,0,0,1,1.93,1.27,15.23,15.23,0,0,1,3.76,4.77c.1.19.19.38.28.58l.14.31.06.15.08.2c.08.19.15.39.23.59l.11.29c0,.08-.15.13-.22.2l-.82.62-2.29,1.72-4.93,3.68c-3.34,2.49-6.65,4.94-9.15,6.76-1.25.9-2.29,1.65-3,2.16A5.07,5.07,0,0,1,6.44,24.91Z"/><path class="cls-1" d="M10.46,32.69c-1.8-1.54-4.07-3.6-4.23-6a7.71,7.71,0,0,1,2-5.05c4-5.22,9.91-8.71,15.88-11.55a9.45,9.45,0,0,1,4.76-1.28c1.65.13,3.34,1.4,3.34,3.07"/><path class="cls-2" d="M32.23,11.92c-.06,0-.08-.3-.27-.74a3.1,3.1,0,0,0-1.31-1.41,3.67,3.67,0,0,0-1.2-.47,4.3,4.3,0,0,0-1.44,0,10.11,10.11,0,0,0-3.08,1.07c-2.09,1-4.15,2.18-5.7,3.11s-2.58,1.66-2.72,1.75-1.46.92-3.19,2.29a27.89,27.89,0,0,0-5.48,5.68,5.92,5.92,0,0,0-1.18,3.7A6.16,6.16,0,0,0,8.09,30a24.78,24.78,0,0,0,1.72,1.93c.44.45.68.72.65.76s-.34-.16-.85-.54a15.3,15.3,0,0,1-2-1.78,9.62,9.62,0,0,1-1.09-1.45A5.09,5.09,0,0,1,6,24.7,8.74,8.74,0,0,1,7,22.61a27.71,27.71,0,0,1,5.5-6.17A35,35,0,0,1,15.7,14c.15-.11,1.24-.82,2.86-1.71s3.76-1.95,5.93-2.88a10.37,10.37,0,0,1,3.45-.94,4.91,4.91,0,0,1,1.68.17A4.39,4.39,0,0,1,31,9.3a3.22,3.22,0,0,1,1.27,1.79C32.36,11.62,32.27,11.92,32.23,11.92Z"/><path class="cls-1" d="M6.44,24.91A9.09,9.09,0,0,1,.63,19a9.43,9.43,0,0,1,1.59-7.72A11.27,11.27,0,0,1,9,7.05C10.53,3.42,14.28.56,18.24.68S26,5.11,27.31,8.83Z"/><path class="cls-2" d="M6.44,24.91a5.58,5.58,0,0,1,1-1c.68-.59,1.67-1.41,2.86-2.38,2.39-2,5.61-4.54,8.87-7.13L24,10.61l2.24-1.78.22-.18,0,0s0-.05,0-.06,0-.06,0-.1a.91.91,0,0,0-.07-.14l-.13-.27c-.09-.18-.17-.36-.27-.52a14.67,14.67,0,0,0-2.23-3.1c-.34-.34-.62-.62-.84-.81s-.36-.31-.42-.36a10.14,10.14,0,0,0-1.66-1.13A7.16,7.16,0,0,0,19,1.47a6.94,6.94,0,0,0-2.48,0,9.63,9.63,0,0,0-5.34,3.16,10.6,10.6,0,0,0-1.06,1.41c-.14.26-.32.51-.44.78l-.32.66A1.6,1.6,0,0,1,9,7.63l-.33.08A11.17,11.17,0,0,0,5.26,9.14a10.24,10.24,0,0,0-2.68,2.48A9.16,9.16,0,0,0,1.05,14.8a7.84,7.84,0,0,0,.7,6.09,9.7,9.7,0,0,0,3.17,3.18c.93.59,1.55.78,1.52.84s-.16,0-.45-.08a7.68,7.68,0,0,1-1.22-.5,9.56,9.56,0,0,1-3.5-3.14,8.43,8.43,0,0,1-1-6.58,10,10,0,0,1,1.57-3.54A10.78,10.78,0,0,1,4.7,8.28,12.25,12.25,0,0,1,8.36,6.61c.3-.1.13,0,.29-.26a9.25,9.25,0,0,1,.47-.88,10.18,10.18,0,0,1,1.14-1.59,10.79,10.79,0,0,1,6-3.69A7.5,7.5,0,0,1,21.5.87a11.36,11.36,0,0,1,1.93,1.27,15.23,15.23,0,0,1,3.76,4.77c.1.19.19.38.28.58l.14.31.06.15.08.2c.08.19.15.39.23.59l.11.29c0,.08-.15.13-.22.2l-.82.62-2.29,1.72-4.93,3.68c-3.34,2.49-6.65,4.94-9.15,6.76-1.25.9-2.29,1.65-3,2.16A5.07,5.07,0,0,1,6.44,24.91Z"/><path class="cls-1" d="M10.46,32.69c-1.8-1.54-4.07-3.6-4.23-6a7.71,7.71,0,0,1,2-5.05c4-5.22,9.91-8.71,15.88-11.55a9.45,9.45,0,0,1,4.76-1.28c1.65.13,3.34,1.4,3.34,3.07"/><path class="cls-2" d="M32.23,11.92c-.06,0-.08-.3-.27-.74a3.1,3.1,0,0,0-1.31-1.41,3.67,3.67,0,0,0-1.2-.47,4.3,4.3,0,0,0-1.44,0,10.26,10.26,0,0,0-3.09,1.07c-2.08,1-4.14,2.18-5.69,3.11s-2.58,1.66-2.72,1.75-1.46.92-3.19,2.29a27.89,27.89,0,0,0-5.48,5.68,5.92,5.92,0,0,0-1.18,3.7A6.16,6.16,0,0,0,8.09,30a24.78,24.78,0,0,0,1.72,1.93c.44.45.68.72.65.76s-.34-.16-.85-.54a15.3,15.3,0,0,1-2-1.78,9.62,9.62,0,0,1-1.09-1.45A5.09,5.09,0,0,1,6,24.7,8.74,8.74,0,0,1,7,22.61a27.71,27.71,0,0,1,5.5-6.17A35,35,0,0,1,15.7,14c.15-.11,1.24-.82,2.86-1.71s3.76-1.95,5.93-2.88a10.37,10.37,0,0,1,3.45-.94,4.91,4.91,0,0,1,1.68.17A4.39,4.39,0,0,1,31,9.3a3.22,3.22,0,0,1,1.27,1.79C32.36,11.62,32.27,11.92,32.23,11.92Z"/><path class="cls-1" d="M87.26,24.91A9.09,9.09,0,0,0,93.07,19a9.43,9.43,0,0,0-1.59-7.72,11.27,11.27,0,0,0-6.73-4.26C83.17,3.42,79.42.56,75.46.68s-7.72,4.43-9.07,8.15Z"/><path class="cls-2" d="M87.26,24.91a5.07,5.07,0,0,1-1.21-.74c-.74-.51-1.78-1.26-3-2.16-2.5-1.82-5.81-4.27-9.15-6.76l-4.93-3.68L66.65,9.85l-.82-.62c-.07-.07-.2-.12-.22-.2l.11-.29c.08-.2.15-.4.23-.59L66,8l.06-.15.14-.31c.09-.2.18-.39.28-.58a15.23,15.23,0,0,1,3.76-4.77A11.36,11.36,0,0,1,72.2.87,7.5,7.5,0,0,1,77.44.19a10.79,10.79,0,0,1,6,3.69,10.18,10.18,0,0,1,1.14,1.59,9.25,9.25,0,0,1,.47.88c.16.3,0,.16.29.26A12.25,12.25,0,0,1,89,8.28a10.78,10.78,0,0,1,2.88,2.79,10,10,0,0,1,1.57,3.54,8.43,8.43,0,0,1-1,6.58,9.56,9.56,0,0,1-3.5,3.14,7.68,7.68,0,0,1-1.22.5c-.29.08-.45.11-.45.08s.59-.25,1.52-.84A9.7,9.7,0,0,0,92,20.89a7.84,7.84,0,0,0,.7-6.09,9.16,9.16,0,0,0-1.53-3.18,10.24,10.24,0,0,0-2.68-2.48,11.17,11.17,0,0,0-3.38-1.43l-.33-.08a1.6,1.6,0,0,1-.39-.11L84,6.86c-.12-.27-.3-.52-.44-.78a10.6,10.6,0,0,0-1.06-1.41,9.63,9.63,0,0,0-5.34-3.16,6.94,6.94,0,0,0-2.48,0,7.16,7.16,0,0,0-1.84.67A10.14,10.14,0,0,0,71.2,3.27c-.06,0-.21.16-.42.36s-.5.47-.84.81a14.67,14.67,0,0,0-2.23,3.1c-.1.16-.18.34-.27.52l-.13.27-.07.14s0,.12,0,.1,0,0,0,.06l0,0,.22.18,2.24,1.78,4.82,3.82C77.76,17,81,19.6,83.37,21.56c1.19,1,2.18,1.79,2.86,2.38A5.58,5.58,0,0,1,87.26,24.91Z"/><path class="cls-1" d="M83.24,32.69c1.8-1.54,4.07-3.6,4.23-6a7.71,7.71,0,0,0-2-5.05c-4-5.22-9.91-8.71-15.88-11.55a9.45,9.45,0,0,0-4.76-1.28c-1.65.13-3.34,1.4-3.34,3.07"/><path class="cls-2" d="M61.47,11.92s-.13-.3,0-.83A3.22,3.22,0,0,1,62.73,9.3a4.39,4.39,0,0,1,1.35-.68,4.91,4.91,0,0,1,1.68-.17,10.37,10.37,0,0,1,3.45.94c2.17.93,4.31,2,5.93,2.88S77.85,13.87,78,14a35,35,0,0,1,3.24,2.46,27.71,27.71,0,0,1,5.5,6.17,8.74,8.74,0,0,1,.94,2.09,5.09,5.09,0,0,1-.54,4.22,9.62,9.62,0,0,1-1.09,1.45,15.3,15.3,0,0,1-2,1.78c-.51.38-.81.57-.85.54s.21-.31.65-.76A24.78,24.78,0,0,0,85.61,30,6.16,6.16,0,0,0,87,26.86a5.92,5.92,0,0,0-1.18-3.7,27.89,27.89,0,0,0-5.48-5.68c-1.73-1.37-3-2.18-3.19-2.29s-1.18-.81-2.72-1.75-3.61-2.07-5.69-3.11a10.26,10.26,0,0,0-3.09-1.07,4.3,4.3,0,0,0-1.44,0,3.67,3.67,0,0,0-1.2.47,3.1,3.1,0,0,0-1.31,1.41C61.55,11.62,61.53,11.92,61.47,11.92Z"/><path class="cls-1" d="M84.23,38.63c-.69-9.25-4.93-17.9-13.5-22.79C52.06,5.19,18,7.28,11.3,31.74c-2.18,7.89-1.36,15.82,1.19,23.39,2,6,5.41,11.7,10.41,15.6a36.59,36.59,0,0,0,10.79,5.51c11.23,3.83,25.84,2.16,35.82-4.62S85.16,51.15,84.23,38.63Z"/><path class="cls-2" d="M84.23,38.63a6.22,6.22,0,0,1,.12,1.09c0,.36.06.81.09,1.33v1.8a38.76,38.76,0,0,1-1.86,11c-.19.55-.34,1.13-.57,1.69l-.67,1.73c-.52,1.14-1,2.33-1.71,3.5a35.18,35.18,0,0,1-4.89,6.86,29.57,29.57,0,0,1-7.06,5.67A38.71,38.71,0,0,1,59,77a44.94,44.94,0,0,1-18.47,1.46c-.75-.09-1.48-.24-2.21-.36s-1.44-.32-2.15-.48l-.53-.12-.52-.16-1-.31c-.69-.19-1.34-.43-2-.67A39,39,0,0,1,25,73a27,27,0,0,1-5.34-4.28,30.29,30.29,0,0,1-3.42-4.25,34.87,34.87,0,0,1-2.72-4.84,42,42,0,0,1-2.29-6.17A49.1,49.1,0,0,1,9.79,47c-.1-.62-.16-1.27-.24-1.93S9.43,43.71,9.41,43a36,36,0,0,1,.05-4.39,34.63,34.63,0,0,1,.65-4.7c.15-.8.36-1.6.58-2.42s.5-1.62.81-2.43a28,28,0,0,1,5.71-9.17,30.17,30.17,0,0,1,4.31-3.71l.59-.42c.2-.14.4-.26.61-.39L24,14.62c.42-.24.85-.46,1.28-.69l.64-.35.66-.31,1.33-.6,1.37-.54c.9-.37,1.85-.63,2.78-1A46.51,46.51,0,0,1,37.74,9.9a51.66,51.66,0,0,1,11.63-.52,54.38,54.38,0,0,1,11.06,1.86,44.34,44.34,0,0,1,9.72,3.89A25.9,25.9,0,0,1,81.7,27.63a31.18,31.18,0,0,1,1.89,5.77,36.87,36.87,0,0,1,.58,3.85q0,.68.06,1a1.63,1.63,0,0,1,0,.36,1.29,1.29,0,0,1-.07-.35l-.14-1c-.12-.89-.34-2.18-.72-3.8a31.69,31.69,0,0,0-2-5.66,26,26,0,0,0-4.25-6.47C73.31,17,67.13,13.87,60.22,12a53.78,53.78,0,0,0-10.91-1.72,50.81,50.81,0,0,0-11.4.61,44,44,0,0,0-5.59,1.3c-.9.32-1.82.57-2.7.95l-1.32.53L27,14.29l-.64.31-.62.33-1.23.68-1.18.75c-.2.12-.4.24-.59.37l-.55.41a29.06,29.06,0,0,0-4.12,3.59,26.85,26.85,0,0,0-5.39,8.79c-.28.78-.5,1.57-.75,2.33s-.41,1.56-.55,2.34a31.66,31.66,0,0,0-.59,4.52,41.05,41.05,0,0,0,1.78,14.34,40.8,40.8,0,0,0,2.24,6,34.68,34.68,0,0,0,2.58,4.66,30.85,30.85,0,0,0,3.23,4.07,26.09,26.09,0,0,0,5.05,4.1,38.54,38.54,0,0,0,6.88,3.31c.64.23,1.28.47,1.94.66l1,.31.5.16.52.12c.68.15,1.36.36,2.07.48s1.42.27,2.14.36a44.13,44.13,0,0,0,18-1.24,33.29,33.29,0,0,0,15.38-8.93A34.49,34.49,0,0,0,79,60.44c.67-1.13,1.2-2.3,1.73-3.42l.7-1.68c.24-.55.39-1.12.59-1.66a40.31,40.31,0,0,0,2.1-10.84l.08-1.79c0-.52,0-1,0-1.32A6.2,6.2,0,0,1,84.23,38.63Z"/><path class="cls-2" d="M84.33,47.64a5.91,5.91,0,0,1-.67-1.6c-.2-.51-.5-1.1-.8-1.79-.18-.33-.38-.67-.59-1-.11-.18-.2-.38-.33-.56s-.25-.37-.39-.55a17.9,17.9,0,0,0-4.44-4.42,28.22,28.22,0,0,0-6.48-3.31,58.68,58.68,0,0,0-7.13-2.09c-2.36-.55-4.61-1.06-6.57-1.68a22.57,22.57,0,0,1-4.72-2.07c-.29-.16-.54-.34-.76-.49s-.43-.28-.59-.42l-.6-.49a8.25,8.25,0,0,1-.66-.63l-.28-.29-.3-.36-.17-.2-.08-.11,0,0h0v0s0,0,0,0h0l-.13.14-.26.29a24.77,24.77,0,0,1-2.61,2.38,32.06,32.06,0,0,1-7.38,4.25,64,64,0,0,1-9,2.92c-3.08.8-6.16,1.52-9,2.34-.69.2-1.41.4-2,.63l-.47.17c-.16.06-.3.14-.45.21a6.24,6.24,0,0,0-.84.47A8.49,8.49,0,0,0,14,41.89,23.53,23.53,0,0,0,11.73,47a9.28,9.28,0,0,1-.8,2,8.28,8.28,0,0,1,.37-2.14,20.61,20.61,0,0,1,2-5.41,9.12,9.12,0,0,1,2.65-3,8,8,0,0,1,.93-.58c.16-.08.32-.18.49-.26l.52-.21c.7-.29,1.37-.5,2.09-.75,2.83-.94,5.9-1.76,8.93-2.65a66.59,66.59,0,0,0,8.71-3.1,30.92,30.92,0,0,0,6.84-4.15,21.91,21.91,0,0,0,2.33-2.23l.58-.66.85-1.08.41-.52.2-.25,0-.06s0,0,0,.06l.09.12c.24.34.46.66.68,1l.62.89.37.43.26.3.24.23a6.56,6.56,0,0,0,.55.51l.5.43a4.84,4.84,0,0,0,.49.36,5.91,5.91,0,0,0,.64.44,20.57,20.57,0,0,0,4.24,2c1.82.64,4,1.21,6.36,1.83a59.32,59.32,0,0,1,7.26,2.41,28.5,28.5,0,0,1,6.64,3.78,18,18,0,0,1,4.43,4.93l.37.61c.11.2.2.41.3.61.18.4.36.77.52,1.13.24.75.49,1.38.62,1.92A5.61,5.61,0,0,1,84.33,47.64Z"/><path class="cls-2" d="M53.25,46.32s0,0,0,0,0-.07.08-.1a.22.22,0,0,1,.2.1.51.51,0,0,1,.09.16.59.59,0,0,1,0,.23.37.37,0,0,1-.07.16.68.68,0,0,0-.06.09,3.72,3.72,0,0,1-.22.31,6.68,6.68,0,0,1-1.51,1.4,8.9,8.9,0,0,1-1.91,1,7,7,0,0,1-1,.32,9.69,9.69,0,0,1-3.93-.36,7.41,7.41,0,0,1-2.29-1.12c-.56-.41-.83-.79-.76-.9s.52,0,1.13.13a11.79,11.79,0,0,0,2.22.37,11.21,11.21,0,0,0,3.26-.28A13.28,13.28,0,0,0,51,47.24a15.66,15.66,0,0,0,1.68-.69l.33-.13,0,0h0l.1.11h0l-.07,0s0,0,0,0l0,0,0,0a.25.25,0,0,0,.11-.07,0,0,0,0,0,0,0h0Z"/><path class="cls-2" d="M26.92,40.51s0-.18.11-.31a1,1,0,0,1,.76-.26,2.36,2.36,0,0,1,1,.31,3.91,3.91,0,0,1,.49.34,5.29,5.29,0,0,1,.41.41,3.09,3.09,0,0,1,.67,1.08,3,3,0,0,1,.16,1.25,3.15,3.15,0,0,1-.42,1.29,2.85,2.85,0,0,1-1.31,1,3,3,0,0,1-3-.5,2.54,2.54,0,0,1-.82-1.36,2.5,2.5,0,0,1,0-1.29c.23-.71.68-1,.78-.88s0,.49.07,1a1.57,1.57,0,0,0,.84,1.28,1.28,1.28,0,0,0,1.27-.07,1.34,1.34,0,0,0,.35-.41,2.15,2.15,0,0,0,.25-.42,1.29,1.29,0,0,0,.08-.45,1.73,1.73,0,0,0-.18-.66c-.05-.12-.13-.26-.19-.37a2,2,0,0,0-.2-.3,2.3,2.3,0,0,0-.45-.44,1.16,1.16,0,0,0-.4-.18C27.08,40.58,27,40.58,26.92,40.51Z"/><path class="cls-2" d="M68,40.51s0-.18.11-.31a1,1,0,0,1,.75-.26,2.4,2.4,0,0,1,1,.31,3.21,3.21,0,0,1,.48.34,5.44,5.44,0,0,1,.42.41,3.09,3.09,0,0,1,.67,1.08,2.79,2.79,0,0,1,.15,1.25,3.06,3.06,0,0,1-.41,1.29,2.85,2.85,0,0,1-1.31,1,3,3,0,0,1-3-.5A2.48,2.48,0,0,1,66,43.8a2.5,2.5,0,0,1,0-1.29c.23-.71.68-1,.78-.88s0,.49.07,1a1.57,1.57,0,0,0,.84,1.28A1.28,1.28,0,0,0,69,43.83a1.1,1.1,0,0,0,.34-.41,1.59,1.59,0,0,0,.26-.42,1.29,1.29,0,0,0,.08-.45,1.73,1.73,0,0,0-.18-.66c0-.12-.13-.26-.19-.37a3.13,3.13,0,0,0-.2-.3,2.3,2.3,0,0,0-.45-.44,1.16,1.16,0,0,0-.4-.18C68.13,40.58,68,40.58,68,40.51Z"/></g></g></svg>