<svg xmlns="http://www.w3.org/2000/svg" viewBox="0 0 70 70"><defs><style>.cls-1{fill:#335179;}</style></defs><title>BMI</title><g id="Layer_2" data-name="Layer 2"><g id="Layer_1-2" data-name="Layer 1"><path class="cls-1" d="M69,9.93,60.07,1a3.34,3.34,0,0,0-4.73,0L38.49,17.83A1.08,1.08,0,0,0,40,19.36L56.87,2.51a1.17,1.17,0,0,1,1.67,0l8.95,8.94a1.18,1.18,0,0,1,0,1.68L65.3,15.32,59.54,9.57A1.08,1.08,0,0,0,58,11.1l5.76,5.75-2.51,2.51-2.53-2.53a1.08,1.08,0,0,0-1.53,1.53l2.53,2.53L57.22,23.4l-2.53-2.53a1.08,1.08,0,1,0-1.52,1.53l2.52,2.53-2.5,2.5-5.76-5.75a1.08,1.08,0,0,0-1.53,1.53L51.66,29l-2.51,2.51-2.53-2.53a1.08,1.08,0,0,0-1.53,1.53L47.62,33,45.5,35.12,34.88,24.5l2-2A1.08,1.08,0,1,0,35.32,21l-2,2L13.42,3A7.34,7.34,0,1,0,3,13.42L23,33.35l-22,22a3.34,3.34,0,0,0,0,4.73l9,8.95a3.33,3.33,0,0,0,4.72,0l22-22,1.56,1.57a1.08,1.08,0,0,0,1.53-1.53L37.58,44.9a1.19,1.19,0,0,0-.15-.18.9.9,0,0,0-.19-.15L13.83,21.16l2.9-2.9,1.79,1.79a1.07,1.07,0,0,0,1.53,0,1.07,1.07,0,0,0,0-1.52l-1.79-1.8,2.9-2.89L32.58,25.26h0l12,12a1.56,1.56,0,0,0,.21.21l16,16L58,56.45,41.8,40.27l0,0-6.45-6.45,0,0L23.89,22.37a1.08,1.08,0,1,0-1.53,1.53L56.45,58l-2.9,2.9L43.28,50.61a1.08,1.08,0,0,0-1.53,1.53l11,11a1,1,0,0,0,.37.24l13,5.07a1.75,1.75,0,0,0,1.88-.4,1.75,1.75,0,0,0,.39-1.87l-5.07-13a1.05,1.05,0,0,0-.25-.37L47,36.65l22-22A3.34,3.34,0,0,0,69,9.93ZM35.12,45.5,33,47.62l-2.53-2.53a1.08,1.08,0,0,0-1.53,1.53l2.53,2.53L29,51.66,23.21,45.9a1.08,1.08,0,0,0-1.53,1.53l5.75,5.76-2.5,2.5L22.4,53.17a1.08,1.08,0,1,0-1.53,1.52l2.53,2.53-2.51,2.51L18.36,57.2a1.08,1.08,0,0,0-1.53,1.53l2.53,2.53-2.51,2.51L11.1,58a1.08,1.08,0,0,0-1.53,1.53l5.75,5.76-2.19,2.19a1.16,1.16,0,0,1-.84.35,1.14,1.14,0,0,1-.83-.35l-9-8.95a1.17,1.17,0,0,1,0-1.67l22-22ZM4.57,11.89a5.18,5.18,0,0,1,7.32-7.32L15.31,8,8,15.31ZM16,16h0l-3.66,3.66-2.8-2.79,7.32-7.33,2.8,2.8ZM66.13,66.13,55.49,62,62,55.49Z"/></g></g></svg>