<svg xmlns="http://www.w3.org/2000/svg" viewBox="0 0 56.57 93.18"><defs><style>.cls-1{fill:#325179;}</style></defs><title>Boy</title><g id="Layer_2" data-name="Layer 2"><g id="Layer_1-2" data-name="Layer 1"><path class="cls-1" d="M48.25,26.62h-.9a10,10,0,1,0-14.84,0h-.9a8.33,8.33,0,0,0-8.32,8.32V58.23A1.67,1.67,0,0,0,25,59.9h5V91.51a1.66,1.66,0,0,0,1.66,1.67h10a8.34,8.34,0,0,0,8.32-8.32v-25h5a1.66,1.66,0,0,0,1.66-1.67V34.94A8.33,8.33,0,0,0,48.25,26.62ZM39.93,13.31A6.66,6.66,0,1,1,33.28,20,6.67,6.67,0,0,1,39.93,13.31ZM41,30l-1,3.06-1-3.06ZM53.24,56.57H49.92V34.94H46.59V84.86a5,5,0,0,1-5,5V59.9H38.27V89.85h-5V34.94H30V56.57H26.62V34.94a5,5,0,0,1,5-5h3.8l2.94,8.84a1.66,1.66,0,0,0,3.16,0l3-8.84h3.79a5,5,0,0,1,5,5V56.57Z"/><path class="cls-1" d="M18.3,0H1.66A1.66,1.66,0,0,0,0,1.66V91.51a1.66,1.66,0,0,0,1.66,1.67H18.3A1.67,1.67,0,0,0,20,91.51V1.66A1.67,1.67,0,0,0,18.3,0ZM16.64,10H13.31v3.33h3.33V20H10v3.32h6.66V30H13.31v3.33h3.33v6.65H10v3.33h6.66v6.66H13.31v3.32h3.33V59.9H10v3.33h6.66v6.65H13.31v3.33h3.33v6.65H10v3.33h6.66v6.66H3.33V3.33H16.64V10Z"/></g></g></svg>