<svg xmlns="http://www.w3.org/2000/svg" viewBox="0 0 59.92 82"><defs><style>.cls-1{fill:#3a648a;}.cls-2{fill:#dc3d45;}</style></defs><title>DetaylıAnamnez</title><g id="Layer_2" data-name="Layer 2"><g id="Layer_1-2" data-name="Layer 1"><path class="cls-1" d="M58.35,6.31h-11V4.73a1.58,1.58,0,0,0-1.58-1.58H36.27a7.89,7.89,0,0,0-12.61,0H14.19a1.57,1.57,0,0,0-1.57,1.58V6.31h-11A1.57,1.57,0,0,0,0,7.88V80.42A1.58,1.58,0,0,0,1.58,82H58.35a1.57,1.57,0,0,0,1.57-1.58V7.88A1.57,1.57,0,0,0,58.35,6.31Zm-42.58,0H24.5a1.6,1.6,0,0,0,1.37-.79,4.72,4.72,0,0,1,8.19,0,1.57,1.57,0,0,0,1.36.79h8.73v6.31H15.77Zm41,66.23H48.89a1.58,1.58,0,1,0,0,3.15h7.88v3.16H3.15V9.46h9.47v4.73a1.57,1.57,0,0,0,1.57,1.58H45.73a1.58,1.58,0,0,0,1.58-1.58V9.46h9.46V72.54Z"/><path class="cls-2" d="M21.5,20.86a1.58,1.58,0,0,0-2.22.22L12.81,29,9.13,24.27A1.58,1.58,0,1,0,6.64,26.2l4.89,6.31a1.6,1.6,0,0,0,1.22.61h0A1.59,1.59,0,0,0,14,32.54l7.73-9.47A1.57,1.57,0,0,0,21.5,20.86Z"/><path class="cls-1" d="M52,22.08H26.81a1.58,1.58,0,1,0,0,3.15H52a1.58,1.58,0,1,0,0-3.15Z"/><path class="cls-1" d="M36.27,28.39H26.81a1.58,1.58,0,1,0,0,3.15h9.46a1.58,1.58,0,1,0,0-3.15Z"/><path class="cls-2" d="M21.5,39.78a1.58,1.58,0,0,0-2.22.22l-6.47,7.93L9.13,43.19a1.58,1.58,0,0,0-2.49,1.93l4.89,6.31a1.57,1.57,0,0,0,1.22.61h0A1.56,1.56,0,0,0,14,51.46L21.72,42A1.58,1.58,0,0,0,21.5,39.78Z"/><path class="cls-1" d="M52,41H26.81a1.58,1.58,0,1,0,0,3.15H52A1.58,1.58,0,1,0,52,41Z"/><path class="cls-1" d="M36.27,47.31H26.81a1.58,1.58,0,1,0,0,3.15h9.46a1.58,1.58,0,1,0,0-3.15Z"/><path class="cls-2" d="M21.5,58.7a1.57,1.57,0,0,0-2.22.23l-6.47,7.92L9.13,62.11A1.58,1.58,0,0,0,6.64,64l4.89,6.31a1.54,1.54,0,0,0,1.22.61h0A1.56,1.56,0,0,0,14,70.38l7.73-9.46A1.58,1.58,0,0,0,21.5,58.7Z"/><path class="cls-1" d="M52,59.92H26.81a1.58,1.58,0,0,0,0,3.16H52a1.58,1.58,0,0,0,0-3.16Z"/><path class="cls-1" d="M36.27,66.23H26.81a1.58,1.58,0,1,0,0,3.16h9.46a1.58,1.58,0,1,0,0-3.16Z"/><path class="cls-1" d="M45.27,73a1.58,1.58,0,1,0,.46,1.12A1.6,1.6,0,0,0,45.27,73Z"/></g></g></svg>