<svg xmlns="http://www.w3.org/2000/svg" viewBox="0 0 76.67 35.33"><defs><style>.cls-1{fill:#f1f3f3;}.cls-2{fill:#325179;}</style></defs><title>Asset 3</title><g id="Layer_2" data-name="Layer 2"><g id="Layer_1-2" data-name="Layer 1"><path class="cls-1" d="M53,3V32.53a2.45,2.45,0,0,0,4,1.91L75.09,19.79a2.45,2.45,0,0,0,0-3.8L57,1.07A2.45,2.45,0,0,0,53,3Z" transform="translate(0 -0.27)"/><path class="cls-2" d="M53,3a1,1,0,0,1,0-.46,2.46,2.46,0,0,1,.48-1.2A2.64,2.64,0,0,1,56.54.47a3,3,0,0,1,.62.36l.54.42L68.45,9.8l5.79,4.66,1.39,1.13a3.12,3.12,0,0,1,1,1.85,3.19,3.19,0,0,1-1,2.76c-.25.22-.4.33-.6.5l-5.44,4.48-6.69,5.35-3,2.41-1.64,1.31-.85.67a3.34,3.34,0,0,1-1.22.61,3.07,3.07,0,0,1-2.64-.61,3.14,3.14,0,0,1-.87-1.11,3.36,3.36,0,0,1-.26-1.37c0-1.55,0-3.11,0-4.68.09-6.24.18-12.45.24-17.08.06-2.32.11-4.25.15-5.6A11.11,11.11,0,0,1,53,3a12.26,12.26,0,0,1,.15,2.12c0,1.35.08,3.28.14,5.6.07,4.63.15,10.84.24,17.08,0,1.57,0,3.13.05,4.68a1.88,1.88,0,0,0,2.31,1.88,2.11,2.11,0,0,0,.72-.39l.84-.68,1.62-1.34,3-2.46L68.68,24l5.51-4.38c.18-.15.43-.33.55-.45a1.47,1.47,0,0,0,.35-.43,1.8,1.8,0,0,0,.23-1.13,1.75,1.75,0,0,0-.56-1.08l-1.32-1.12-5.67-4.79L57.33,1.7a4.81,4.81,0,0,0-1-.76,2.19,2.19,0,0,0-1-.2,2.31,2.31,0,0,0-1.59.75A3.39,3.39,0,0,0,53,3Z" transform="translate(0 -0.27)"/><rect class="cls-1" x="0.73" y="15.22" width="52" height="4"/><path class="cls-2" d="M52.73,19.49a4.75,4.75,0,0,1-.11-1.06c0-.64-.06-1.57-.1-2.73l-5,.12-6.63.1-14.92.17-19.25.16-5.22,0s0,0,0,0h0v.31c0,.38,0,.83,0,1.33v.87h0v0l31.88.27,13.76.2,4.15.11a7.34,7.34,0,0,1,1.51.11,7.69,7.69,0,0,1-1.51.12l-4.15.11-13.76.2L0,20.19c0-3,0-5.11,0-5.43l6.69,0,19.25.15,14.92.17,12.08.22c0,.7,0,1.34,0,1.89s0,.91,0,1.26A3.6,3.6,0,0,1,52.73,19.49Z" transform="translate(0 -0.27)"/></g></g></svg>