<svg xmlns="http://www.w3.org/2000/svg" viewBox="0 0 82.12 82.46"><defs><style>.cls-1{fill:#f1f3f3;}.cls-2{fill:none;}</style></defs><title>Asset 1</title><g id="Layer_2" data-name="Layer 2"><g id="Layer_1-2" data-name="Layer 1"><polygon class="cls-1" points="40.06 72.5 30.57 82.02 8.81 60.34 18.3 50.82 23.74 56.24 25.1 57.6 40.06 72.5"/><path d="M40.06,72.5A3.54,3.54,0,0,1,39.4,72c-.4-.37-1-.9-1.7-1.58C36.27,69,34.29,67.13,32.05,65L18.3,51.57l-5.75,5.86L9.61,60.34,19.18,70,30.57,81.58l6.65-6.46,2.05-2a5.07,5.07,0,0,1,.79-.67,5.07,5.07,0,0,1-.67.79l-1.94,2.07-3,3.07-3.92,4L18.52,70.67,8,60.34l3.7-3.74,6.59-6.52,7.19,7.29,7,7.15c2.18,2.23,4.09,4.21,5.45,5.63.68.72,1.22,1.29,1.58,1.7A3.22,3.22,0,0,1,40.06,72.5Z"/><polygon class="cls-1" points="25.09 49.45 41.41 65.71 44.13 68.42 40.06 72.5 25.1 57.6 23.74 56.24 18.3 50.82 22.36 46.74 25.09 49.45"/><path d="M25.08,49.45a4.06,4.06,0,0,1-.81-.66L23.38,48l-1-.94-.28.3-.45.47-1,1L19.63,49.9l-.54.57-.21.22-.12.13,1.06,1,1.33,1.28,2.71,2.64,5.23,5.08L35,66.64l5.05,5.11,3.38-3.32L31.29,56c-1.83-1.88-3.4-3.51-4.5-4.67-.55-.59-1-1-1.28-1.38a2.79,2.79,0,0,1-.43-.53s.21.13.53.42.8.73,1.38,1.28c1.17,1.1,2.8,2.66,4.69,4.48l6.24,6,6.89,6.74-4.75,4.84-5.89-5.79-5.81-5.9c-3.21-3.27-7.18-7.34-10.52-10.75.87-.83,1.69-1.64,2.46-2.38l2.06-2,1.24,1.3.82.89A3.88,3.88,0,0,1,25.08,49.45Z"/><path class="cls-1" d="M55.16,37.41a4,4,0,0,0,2.49,1.11h0l-1.59,1.59a3.84,3.84,0,1,1-5.44-5.42l.91-.91Z"/><path d="M55.16,37.41c-.06.06-.56-.33-1.29-1-.37-.31-.79-.69-1.23-1.09L52,34.74l-.18-.16-.09-.08,0,0-.11-.09-.09.12,0,0-.08.09-.17.18a4.47,4.47,0,0,0-.55.66,3.34,3.34,0,0,0-.52,1.35,3.74,3.74,0,0,0,.56,2.48,3.39,3.39,0,0,0,4.75.88,5.32,5.32,0,0,0,.61-.51l.6-.56.32-.27c.05,0,.12-.1.16-.15l-.16,0a1.43,1.43,0,0,1-.27-.09l-.18-.07-.21-.1A3.65,3.65,0,0,1,55.6,38c-.34-.29-.47-.51-.44-.54s.23.12.59.32a4.32,4.32,0,0,0,.67.29l.21.06.12,0,.16,0c.23.05.5.08.79.12a.87.87,0,0,0,.11.09l.11.08c0,.05,0,.09-.05.14s-.07.11-.1.17l-.1.19-.2.21-.39.41-.56.61a5.47,5.47,0,0,1-.64.63,4.31,4.31,0,0,1-1.71.82,4.21,4.21,0,0,1-1.87,0,4.3,4.3,0,0,1-2.57-1.69,4.08,4.08,0,0,1-.64-1.28,4.21,4.21,0,0,1-.06-2,4.45,4.45,0,0,1,.8-1.72,6.1,6.1,0,0,1,.7-.73l1-.95.57.6.38.41.62.68c.41.45.78.87,1.09,1.23C54.82,36.85,55.22,37.35,55.16,37.41Z"/><path class="cls-1" d="M71.19,23.34a3.8,3.8,0,0,1-1.12,2.72L61.7,34.47A3.76,3.76,0,0,0,60.58,32L57,28.35l7.68-7.71a3.84,3.84,0,0,1,5.43,0A3.81,3.81,0,0,1,71.19,23.34Z"/><path d="M71.19,23.34a5.51,5.51,0,0,1-.19-.76,4,4,0,0,0-1-1.7,3.67,3.67,0,0,0-2.48-1,3.72,3.72,0,0,0-1.49.31,3.83,3.83,0,0,0-.67.4,4.94,4.94,0,0,0-.59.55c-3.23,3.4-6.55,6.83-6.8,7.07l-.18.18h0s0,0,0,0l.52.53,1.28,1.31.74.75.39.4c.13.14.27.27.42.45A4.19,4.19,0,0,1,61.84,33a3.05,3.05,0,0,1,.13.32s0,0,0,.07a.53.53,0,0,1,0,.13s0,0,0,0l0,0,0,0,0,0h0l.05,0,.93-.9L65,30.59l3.49-3.34L70,25.88a4,4,0,0,0,.85-1.22,9.87,9.87,0,0,0,.38-1.32,2.24,2.24,0,0,1-.11,1.42,4,4,0,0,1-.82,1.41l-1.37,1.46-3.33,3.51L63.75,33l-.9.94c-.45.45-1.08,1.12-1.55,1.56,0-.43-.07-.94-.13-1.36,0-.1,0-.2-.05-.3L61,33.6l-.1-.25a3.25,3.25,0,0,0-.58-.86c-.11-.12-.25-.25-.39-.39l-.4-.39L58.81,31c-1.15-1.11-2.08-2-2.68-2.62l1-1c.25-.25,3.67-3.58,7.05-6.83a6.4,6.4,0,0,1,.72-.61,4.25,4.25,0,0,1,2.65-.72,4.05,4.05,0,0,1,2.78,1.39,3.81,3.81,0,0,1,.91,2C71.29,23.05,71.23,23.35,71.19,23.34Z"/><path class="cls-1" d="M82.07,34.19A3.8,3.8,0,0,1,81,36.9L68.53,49.37,66.94,51a3.84,3.84,0,1,1-5.44-5.42l14-14.06a3.84,3.84,0,0,1,5.43,0,3.81,3.81,0,0,1,1.13,2.72Z"/><path d="M82.07,34.19s0-.44-.29-1.13a3.77,3.77,0,0,0-2-2.12,3.55,3.55,0,0,0-3.84.59l-.2.19-.22.23-.43.45c-.29.3-.59.6-.88.91l-1.81,1.88c-4.87,5-9.85,10.13-10.22,10.5l-.14.14-.24.24a3.25,3.25,0,0,0-.58.89A3.31,3.31,0,0,0,61,48.48a3.23,3.23,0,0,0,.69,1.82,3.31,3.31,0,0,0,4.41.76,4.17,4.17,0,0,0,.53-.41l.56-.55L68.28,49,70.6,46.7c3.11-3,6.2-6.05,8.53-8.29l1.59-1.52a3.92,3.92,0,0,0,1-1.31,7.23,7.23,0,0,0,.38-1.39s.05.13.05.39a3.74,3.74,0,0,1-.21,1.09A4,4,0,0,1,81,37.13l-1.52,1.6c-2.22,2.34-5.23,5.44-8.26,8.56l-2.27,2.33-1.11,1.14-.56.57a3.92,3.92,0,0,1-.67.55,4.35,4.35,0,0,1-3.22.65A4.42,4.42,0,0,1,60.78,51a4.4,4.4,0,0,1-.61-4.47,4.14,4.14,0,0,1,.77-1.21,2.69,2.69,0,0,1,.28-.29l.13-.14c.37-.37,5.45-5.38,10.47-10.26l1.87-1.82.91-.88.45-.44.22-.21.25-.22A4.09,4.09,0,0,1,80,30.52a4,4,0,0,1,1.4,1.2A3.66,3.66,0,0,1,82,33,2.06,2.06,0,0,1,82.07,34.19Z"/><path class="cls-1" d="M57.88,38.53a3.84,3.84,0,0,0,3.83-3.85,1.48,1.48,0,0,0,0-.21l8.37-8.41a3.84,3.84,0,0,1,5.43,0,3.84,3.84,0,0,1,0,5.43l-14,14.06a3.84,3.84,0,1,1-5.44-5.42l1.59-1.59h.23Z"/><path d="M57.88,38.53s-.08,0-.24,0l.06,0h0v0l0,0c-.21.27-.67.78-1.31,1.47a4.21,4.21,0,0,0-.87,1.25A3.7,3.7,0,0,0,55.21,43a3.52,3.52,0,0,0,.7,1.84,3.48,3.48,0,0,0,1.71,1.24,3.53,3.53,0,0,0,2.18,0,3.75,3.75,0,0,0,1-.52,4.83,4.83,0,0,0,.42-.37l.43-.45L71.18,35c.09-.1.56-.56,1.3-1.3l1.32-1.3.8-.78L75,31.2a3.55,3.55,0,0,0,.38-.41,3.33,3.33,0,0,0,.71-2.19,3.35,3.35,0,0,0-3.65-3.2,3.42,3.42,0,0,0-1.38.43,3.51,3.51,0,0,0-.59.42c-.18.16-.39.38-.58.57l-4.61,4.5-2.12,2c-.33.33-.66.65-1,1l-.19.19s-.06,0-.06.07v.09a3.66,3.66,0,0,1-.06.65,4,4,0,0,1-1,2.06,3.81,3.81,0,0,1-1.47,1,3.56,3.56,0,0,1-1.11.22c-.26,0-.39,0-.39,0a6.77,6.77,0,0,0,1.41-.4,3.83,3.83,0,0,0,1.3-1,3.7,3.7,0,0,0,.85-1.9,5.79,5.79,0,0,0,0-.61v-.22s0-.07,0-.1l.07-.08.27-.28c.31-.32.62-.65.95-1l2-2.13,4.49-4.62.59-.61a4.36,4.36,0,0,1,.73-.55,4.26,4.26,0,0,1,1.73-.57,4.34,4.34,0,0,1,4.78,4.05,4.4,4.4,0,0,1-.89,2.9,4,4,0,0,1-.46.52l-.42.43-.78.8-1.3,1.32L72,35.83,62.26,45.4l-.45.44a4.51,4.51,0,0,1-.54.44,4.07,4.07,0,0,1-1.24.6,4.13,4.13,0,0,1-4.92-5.78,4.46,4.46,0,0,1,1-1.29c.69-.64,1.2-1.1,1.47-1.31l0,0h0v-.06h0A.53.53,0,0,1,57.88,38.53Z"/><path class="cls-1" d="M79.31,4.32A3.85,3.85,0,0,1,78.18,7L64.63,20.64,57,28.35l-5.44-5.42L63,11.37h2.71a2.73,2.73,0,0,0,2.71-2.72,2.67,2.67,0,0,0-.8-1.92l5.09-5.11a3.85,3.85,0,0,1,6.57,2.7Z"/><path d="M79.31,4.32A11.19,11.19,0,0,0,79,3a3.94,3.94,0,0,0-.84-1.24A3.73,3.73,0,0,0,76.44.84a3.58,3.58,0,0,0-3.3.81c-.15.14-.31.31-.48.48l-.49.51L70.09,4.79,69,5.9l-.54.56-.2.21s-.07.06-.08.09l.07.07,0,0,0,0,.05.07a3,3,0,0,1,.3.59,3,3,0,0,1,.2,1.3,3.24,3.24,0,0,1-.36,1.29,4.14,4.14,0,0,1-.38.55c-.15.16-.3.31-.47.46a3.26,3.26,0,0,1-1.2.58,3,3,0,0,1-.66.08h-.57l-2,0-7.88,8c-.16.17-1.3,1.3-3.05,3L57,27.63l15-14.8c2.35-2.3,4.41-4.3,5.89-5.72a3.91,3.91,0,0,0,1.24-1.94c.14-.54.14-.85.18-.85a2.29,2.29,0,0,1,0,.88,3.58,3.58,0,0,1-.34,1,4.19,4.19,0,0,1-.84,1.13c-1.41,1.49-3.4,3.55-5.69,5.92l-7.5,7.69-8,8.13-6.24-6.14,3.8-3.85,8.31-8.2h3a1.84,1.84,0,0,0,.47-.06,1.94,1.94,0,0,0,.85-.39,2.29,2.29,0,0,0,.8-2.6,3.55,3.55,0,0,0-.21-.44l0,0-.06-.08a1.19,1.19,0,0,0-.15-.18l-.35-.36c.14-.16.31-.31.47-.47l.36-.35.56-.55,1.11-1.09L71.72,2.2l.52-.5c.17-.16.33-.33.52-.49a4,4,0,0,1,5.6.35A3.94,3.94,0,0,1,79.17,3a3.18,3.18,0,0,1,.17,1A.81.81,0,0,1,79.31,4.32Z"/><path class="cls-1" d="M61.51,51a3.81,3.81,0,0,0,5.43,0L63.3,54.62a13.43,13.43,0,0,1-6.93,3.72l-9.54,1.93-5.42,5.44L25.08,49.45l6.78-6.8,1.84-8.36a13.59,13.59,0,0,1,3.64-6.66l4.79-4.8a6.54,6.54,0,0,1,9.26,0l.12.12L57,28.35,60.58,32a3.76,3.76,0,0,1,1.12,2.5,1.48,1.48,0,0,1,0,.21,3.84,3.84,0,0,1-3.83,3.85h-.23a4,4,0,0,1-2.49-1.11l-3.63-3.62-.91.91a3.84,3.84,0,1,0,5.44,5.42,3.84,3.84,0,0,0,0,5.43,3.81,3.81,0,0,0,5.43,0,3.84,3.84,0,0,0,0,5.43Z"/><path d="M61.51,51s-.1,0-.24-.2a3.75,3.75,0,0,1-.55-.76,3.89,3.89,0,0,1-.44-1.43,3.81,3.81,0,0,1,0-.95,2.38,2.38,0,0,1,.05-.26c0-.09,0-.17,0-.23s.08-.25.13-.37a2.45,2.45,0,0,1,.53-.78,3.08,3.08,0,0,1-.81.58,3.81,3.81,0,0,1-1.89.3,4.1,4.1,0,0,1-3.56-3,4.33,4.33,0,0,1-.12-1.35,4.16,4.16,0,0,1,.12-.69,3.19,3.19,0,0,1,.11-.33,1.73,1.73,0,0,1,.37-.54,2.39,2.39,0,0,1-.56.4l-.16.07-.08,0-.11,0a3.88,3.88,0,0,1-.76.12,4.15,4.15,0,0,1-1.56-.18,4.19,4.19,0,0,1-2.72-5.25,4.31,4.31,0,0,1,.82-1.48c.19-.22.37-.39.55-.58l.83-.83c.94.93,1.89,1.87,2.85,2.8l.64.64c.21.21.44.44.63.6a3.31,3.31,0,0,0,1.43.7l.41.08a2.6,2.6,0,0,0,.4,0,3,3,0,0,0,.77-.1,3.34,3.34,0,0,0,1.4-.72A3.48,3.48,0,0,0,61,36a3.27,3.27,0,0,0,.21-.74,2.6,2.6,0,0,0,.05-.39v-.19s0-.09,0-.13v-.07a3.36,3.36,0,0,0-.89-2.07l-1.82-1.8L55,27.17,51.81,24l-.76-.74a5.74,5.74,0,0,0-.71-.61,5.89,5.89,0,0,0-1.56-.83,6.06,6.06,0,0,0-3.06-.24,6.18,6.18,0,0,0-2.26.91,8.09,8.09,0,0,0-1.29,1.14l-.65.65-1.45,1.45-1.42,1.42-.87.86c-.29.3-.59.61-.88,1a13.05,13.05,0,0,0-2.72,5.72l-1.84,8.22-6.57,6.54L41.4,65.18,46.66,60l6.75-1.33L56.53,58a12.77,12.77,0,0,0,2.8-.92,13,13,0,0,0,2.38-1.4A16.81,16.81,0,0,0,63.63,54l3.2-3.14.22.21a4,4,0,0,1-2.33,1.11,4,4,0,0,1-1.91-.27,3.62,3.62,0,0,1-1-.63c-.2-.18-.29-.3-.28-.31a3,3,0,0,1,.33.25,4.64,4.64,0,0,0,1,.55,3.83,3.83,0,0,0,1.82.18,3.74,3.74,0,0,0,2.14-1.09l.22.21-3.13,3.21A16.86,16.86,0,0,1,62,56.07a14.05,14.05,0,0,1-2.44,1.49,13.59,13.59,0,0,1-2.9,1l-3.12.66L47,60.58l-5.58,5.67-17-16.8,7-7.06c.62-2.85,1.2-5.52,1.72-7.93A14.27,14.27,0,0,1,34.28,31,14.12,14.12,0,0,1,36,28.24c.31-.38.64-.73.95-1l.86-.87,1.41-1.43,1.45-1.45.64-.65a9.37,9.37,0,0,1,1.49-1.28,7.15,7.15,0,0,1,8.18.24,8.18,8.18,0,0,1,.83.73l.74.74,3.19,3.21,3.47,3.49,1.82,1.84a4.27,4.27,0,0,1,1.12,2.69v-.08c0,.11,0,.21,0,.32v.24c0,.17,0,.33-.06.5a4.72,4.72,0,0,1-.29,1A4.19,4.19,0,0,1,60.65,38a4.29,4.29,0,0,1-1.78.9,4.74,4.74,0,0,1-1,.11,2.92,2.92,0,0,1-.5,0l-.48-.09a4.36,4.36,0,0,1-1.78-.9c-.27-.23-.45-.44-.67-.66l-.64-.64-2.26-2.28-.28.27c-.18.18-.38.37-.52.53A3.32,3.32,0,0,0,50,36.36,3.44,3.44,0,0,0,50.25,39a3.51,3.51,0,0,0,2,1.72,3.44,3.44,0,0,0,1.31.18,2.76,2.76,0,0,0,.64-.1l.23-.06.26-.11.28-.14c.1-.06.22-.16.33-.24a.7.7,0,0,0,.47,0,.64.64,0,0,0,.28-.18.79.79,0,0,0-.2.78c-.07.1-.16.21-.22.31l-.13.25a2.36,2.36,0,0,0-.17.46,3.16,3.16,0,0,0-.11.6,3.33,3.33,0,0,0,.08,1.18,3.64,3.64,0,0,0,1.17,1.91,3.55,3.55,0,0,0,1.93.83,3.28,3.28,0,0,0,1,0,2.79,2.79,0,0,0,1.22-.48,1.18,1.18,0,0,0,.88-.4,1.6,1.6,0,0,0-.47.94,2.74,2.74,0,0,0-.47,1.19,3.4,3.4,0,0,0-.05.89,3.61,3.61,0,0,0,.35,1.38A6.24,6.24,0,0,0,61.51,51Z"/><path class="cls-1" d="M44,.55l0,16.29-35.3.06A8,8,0,0,1,3,14.52,8.14,8.14,0,0,1,8.71.61Z"/><path d="M44,.55a2,2,0,0,1-.54.06L41.92.67c-1.33,0-3.23.08-5.51.12C31.84.87,25.74.94,19.57,1l-9.1.09H9.38c-.36,0-.73,0-1.05,0a7.58,7.58,0,0,0-1.91.34,7.94,7.94,0,0,0-3,1.87A7.5,7.5,0,0,0,1.7,5.9a7.17,7.17,0,0,0-.52,2.38,7.23,7.23,0,0,0,.25,2.47A7.07,7.07,0,0,0,2,12.12a7.62,7.62,0,0,0,6.49,4.23l6.33,0,29,.15c.05-4.52.09-8.49.12-11.33,0-1.45,0-2.62.07-3.42A7.47,7.47,0,0,1,44,.55a6.66,6.66,0,0,1,.09,1.23c0,.8,0,2,.08,3.42s0,3.2.08,5.17.06,4.34.09,6.77l-29.57.26-6.37,0a8.62,8.62,0,0,1-5.09-1.86,8.59,8.59,0,0,1-3-4.52A8.7,8.7,0,0,1,2.63,2.57,8.84,8.84,0,0,1,6.11.49,8.64,8.64,0,0,1,8.28.13c.38,0,.74,0,1.1,0h1.08l9.11.05c6.17,0,12.27.1,16.84.16,2.28,0,4.18.07,5.51.1l1.54.06A2,2,0,0,1,44,.55Z"/><path class="cls-1" d="M67.65,6.73a2.7,2.7,0,0,1,0,3.83,2.64,2.64,0,0,1-1.92.81H63l-13.58,0V6l16.29,0A2.66,2.66,0,0,1,67.65,6.73Z"/><path d="M67.65,6.73s-.18-.11-.49-.28a2.87,2.87,0,0,0-1.41-.33c-1.29.06-3.09.12-5,.18L50,6.53v0h0v4.25h0v0L63.36,11l1.76,0c.27,0,.58,0,.81,0a2.36,2.36,0,0,0,.71-.14,2.56,2.56,0,0,0,1.08-.79,2.35,2.35,0,0,0,.51-1.07A2.69,2.69,0,0,0,68,7.33c-.2-.39-.38-.57-.35-.6a1.38,1.38,0,0,1,.51.5,2.72,2.72,0,0,1,.44,1.9,3,3,0,0,1-1.76,2.3,3.11,3.11,0,0,1-.86.22l-.86,0-1.76,0-7.48.14-7,.1c0-2.07,0-3.44,0-3.62s0-1.29,0-2.93l2.92,0,2.83,0,6.07.12c2,0,3.75.09,5.06.15a2.63,2.63,0,0,1,1.5.54C67.56,6.53,67.67,6.72,67.65,6.73Z"/><polygon class="cls-1" points="49.45 11.4 49.46 16.83 44.03 16.84 44 0.55 49.43 0.54 49.44 5.97 49.45 11.4"/><path d="M49.45,11.4a20,20,0,0,1-.26-3.48c0-1-.07-2.23-.11-3.49,0-.63,0-1.28,0-1.93,0-.33,0-.66,0-1V1.1L49,1h-.29L48,1l-1.42,0-1.33,0h-.66v0h0V2.69c0,.54,0,.89,0,1s0,1.94-.05,4.41c0,1.24,0,2.65,0,4.15,0,.75,0,1.51,0,2.29,0,.38,0,.77,0,1.16v.77h1l1.39,0,1.34,0h.65l.34,0,0-.31v-.55c0-.37,0-.71,0-1,0-.66,0-1.24.07-1.72a6.35,6.35,0,0,1,.14-1.53,6.61,6.61,0,0,1,.15,1.53c0,.48,0,1.06.07,1.72,0,.33,0,.67,0,1s0,.93,0,1.42l-2.89.07-1.39,0-1.83,0c-.1-6.38-.21-13.19-.21-13.57,0-.21,0-1.63,0-3.67l1.76,0,1.33,0,3.34,0,0,1.43c0,.32,0,.65,0,1,0,.65,0,1.3,0,1.93,0,1.26-.07,2.46-.1,3.49A20.77,20.77,0,0,1,49.45,11.4Z"/><path class="cls-1" d="M15.5,4.67l0,8.15L40,12.77V4.63ZM29.08,7.36H31.8v2.71H29.09Zm-2.71,2.72H23.66V7.37h2.72Zm-8.15-2.7h2.72v2.71H18.23Zm19,2.68H34.52V7.35h2.72Z"/><path class="cls-2" d="M15.5,4.67l0,8.15L40,12.77V4.63ZM29.08,7.36H31.8v2.71H29.09Zm-2.71,2.72H23.66V7.37h2.72Zm-8.15-2.7h2.72v2.71H18.23Zm19,2.68H34.52V7.35h2.72Z"/><path d="M37.23,10.06c-.09,0-.17-.35-.25-.87,0-.26-.08-.55-.11-.87l0-.24,0-.12s0,0,0,0a.83.83,0,0,0,0-.12l-.11,0h0l-.18,0-.67,0-.69,0s0,0,0,0c0-.6-.09,1.73-.16,1.74l.16.05h.21l.24,0,.87.09c.5.07.83.14.83.22s-.33.15-.83.22c-.25,0-.55.07-.87.1l-.24,0h-.13l-.17,0-.87,0c-.08-2-.14-1.82-.18-3.68l1.14,0,.71,0,.66,0h.19l.35,0,.68,0,0,.87v.31l0,.24c0,.31-.07.61-.11.87C37.41,9.71,37.32,10.06,37.23,10.06Z"/><path d="M18.22,7.38c.09,0,.18.35.25.87,0,.26.08.56.11.87l0,.24v.12s0,0,0,.06a.66.66,0,0,0,0,.11l.11,0,0,0H19l.66-.05.69,0,0,0c0,.59.09-1.74.17-1.75l-.17,0h-.2l-.25,0-.87-.09c-.5-.07-.83-.14-.83-.22s.33-.15.83-.22l.87-.1.24,0h.3l.88,0c.08,2,.13,1.82.17,3.69l-1.13,0-.72,0L19,10.6h-.19l-.35,0-.68,0c0-.28,0-.58,0-.87V9.36l0-.24c0-.31.06-.61.1-.87C18.05,7.73,18.13,7.38,18.22,7.38Z"/><path d="M26.37,10.08c-.09,0-.17-.35-.25-.87,0-.26-.08-.55-.11-.87l0-.24L26,8s0,0,0-.05a.83.83,0,0,0,0-.12l-.11,0h-.22l-.66,0-.69,0s0,0,0,0c0-.6-.09,1.73-.16,1.74l.16.05h.21l.24,0,.87.09c.5.07.83.14.83.22s-.33.15-.83.22c-.25,0-.55.07-.87.1l-.24,0h-.3l-.87.05c-.08-2-.14-1.82-.18-3.68l1.14,0,.71,0,.66,0h.19l.35,0,.68,0c0,.29,0,.58,0,.87V8.1l0,.24c0,.31-.07.61-.11.87C26.54,9.73,26.46,10.08,26.37,10.08Z"/><path d="M29.08,7.36c.09,0,.18.35.25.87,0,.26.08.56.11.87l0,.24v.12s0,0,0,.06l0,.11.11,0,0,0h.19l.66-.05.69,0,0,0c0,.59.09-1.74.17-1.75l-.17,0H31l-.25,0-.87-.09c-.5-.07-.83-.14-.83-.22s.33-.15.83-.22l.87-.1L31,7h.29l.88,0c.08,2,.13,1.82.17,3.69l-1.13,0-.71,0-.67-.05h-.54l-.68,0,0-.87V9.34l0-.24c0-.31.06-.61.1-.87C28.91,7.71,29,7.36,29.08,7.36Z"/><path d="M15.5,4.67a16.74,16.74,0,0,1,2.66-.18c1.65-.06,3.93-.12,6.47-.17l8-.14,7.84-.1c0,2.91.05,4.94.06,5.22s0,1.73,0,4l-12-.09L15.23,13.1c0-1.29,0-2.48.06-3.55s.05-1.86.07-2.58a14.07,14.07,0,0,1,.14-2.3A14.63,14.63,0,0,1,15.65,7c0,.72,0,1.59.08,2.58s0,1.9.07,3l6-.1,6.72-.1,10.87-.12c0-1.67,0-2.74,0-2.91s0-1.82,0-4.13L24.63,5c-2.54,0-4.82-.09-6.47-.15A16.18,16.18,0,0,1,15.5,4.67Z"/><path class="cls-1" d="M8.71,4.68a4.08,4.08,0,1,0,4.08,4.07A4.08,4.08,0,0,0,8.71,4.68Zm0,5.43a1.36,1.36,0,1,1,1.36-1.36A1.35,1.35,0,0,1,8.72,10.11Z"/><path class="cls-2" d="M8.71,4.68a4.08,4.08,0,1,0,4.08,4.07A4.08,4.08,0,0,0,8.71,4.68Zm0,5.43a1.36,1.36,0,1,1,1.36-1.36A1.35,1.35,0,0,1,8.72,10.11Z"/><path d="M8.72,10.11c0-.08.23-.14.47-.33A1.15,1.15,0,0,0,9.64,9a.88.88,0,0,0-.33-.75A.85.85,0,0,0,9,8,.81.81,0,0,0,8.52,8a.88.88,0,0,0-.73.67,1.09,1.09,0,0,0,.36,1.09c.28.25.58.29.57.38s-.31.21-.8,0a1.56,1.56,0,0,1-.68-.57,1.68,1.68,0,0,1-.28-1,1.78,1.78,0,0,1,.42-1,1.86,1.86,0,0,1,2-.57,1.73,1.73,0,0,1,.74.53,1.84,1.84,0,0,1,.38.75,1.91,1.91,0,0,1,0,.92A1.61,1.61,0,0,1,9.38,10.2C9,10.3,8.72,10.19,8.72,10.11Z"/><path d="M8.71,4.68a2.48,2.48,0,0,1,1.77.15,4.29,4.29,0,0,1,2.63,3,4.75,4.75,0,0,1,0,2.28,4.73,4.73,0,0,1-1,1.8,4.54,4.54,0,0,1-1.83,1.24,3.66,3.66,0,0,1-.81.19,4.54,4.54,0,0,1-5.18-4,4.81,4.81,0,0,1,.08-1.42,4.81,4.81,0,0,1,.5-1.26,4.84,4.84,0,0,1,.79-1,4.26,4.26,0,0,1,.91-.63,3.76,3.76,0,0,1,1.56-.44c.39,0,.6,0,.6.07s-.21.08-.57.17A4.07,4.07,0,0,0,6,6.08,4.37,4.37,0,0,0,5.43,7a4.07,4.07,0,0,0-.34,1.09,3.83,3.83,0,0,0,0,1.17,3.58,3.58,0,0,0,1,2,3.5,3.5,0,0,0,1.72.95,3.43,3.43,0,0,0,1.42,0,2.69,2.69,0,0,0,.6-.16,3.48,3.48,0,0,0,1.42-.88,3.59,3.59,0,0,0,.85-1.34A3.84,3.84,0,0,0,12.3,8a3.87,3.87,0,0,0-.75-1.69,4,4,0,0,0-1.26-1.06C9.42,4.79,8.71,4.78,8.71,4.68Z"/></g></g></svg>