<svg xmlns="http://www.w3.org/2000/svg" viewBox="0 0 153.35013 153.35009"><defs><style>.cls-1{fill:#fff;}.cls-2{fill:#dc3d45;}.cls-3{fill:#325179;}</style></defs><title>Asset 3</title><g id="Layer_2" data-name="Layer 2"><g id="Layer_1-2" data-name="Layer 1"><path class="cls-1" d="M26.60384,118.97853C17.82633,108.08507,10.74,91.74618,10.74,76.67505c0-35.03257,31.06661-66.09919,66.09918-66.09919,15.07113,0,31.41,7.0863,42.30348,15.86381L26.60384,118.97853"/><path class="cls-1" d="M127.0746,34.37157a70.5305,70.5305,0,0,1,15.86381,42.30348c0,35.03257-31.06662,66.09918-66.09919,66.09918a70.53048,70.53048,0,0,1-42.30348-15.8638"/><path class="cls-1" d="M33.21376,126.91043l92.53886-92.53886"/><path class="cls-2" d="M76.67505,0a76.675,76.675,0,1,0,76.67508,76.67505A76.67554,76.67554,0,0,0,76.67505,0ZM10.57587,76.67505c0-35.03256,31.06662-66.09918,66.09918-66.09918,15.07116,0,31.41005,7.0863,42.3035,15.8638L26.43967,118.97853C17.66217,108.08508,10.57587,91.74619,10.57587,76.67505Zm66.09918,66.09919a70.53043,70.53043,0,0,1-42.30347-15.8638l92.53888-92.53886a70.53043,70.53043,0,0,1,15.8638,42.30347C142.77426,111.70762,111.70764,142.77424,76.67505,142.77424Z"/><circle class="cls-1" cx="76.35013" cy="76.71967" r="67"/><path class="cls-3" d="M110.51863,76.75508A23.69314,23.69314,0,1,1,78.236,109.03777l-5.0981,5.09809A23.69749,23.69749,0,1,1,39.62453,80.62255L82.10341,38.14367A23.6975,23.6975,0,1,1,115.61673,71.657Zm6.77289,20.62413a18.45837,18.45837,0,0,0-15.79813-18.24185v36.48369A18.45837,18.45837,0,0,0,117.29152,97.37921Zm-5.3983-29.44573a18.43166,18.43166,0,1,0-26.0663-26.06631L66.28948,61.40637,76.67527,71.79216l7.22406,7.22406a23.67947,23.67947,0,0,1,21.365-4.45381ZM96.22676,115.62105V79.13736a18.43084,18.43084,0,0,0,0,36.48369ZM80.21094,82.77484l-17.645-17.645L43.348,84.34781a18.431,18.431,0,1,0,26.0663,26.06455l6.62894-6.62893a23.68215,23.68215,0,0,1,4.16766-21.00859Z"/><path class="cls-3" d="M62.566,65.12988l17.645,17.645a23.68215,23.68215,0,0,0-4.16766,21.00859l-6.62894,6.62893A18.431,18.431,0,1,1,43.348,84.34781Z"/></g></g></svg>