<svg xmlns="http://www.w3.org/2000/svg" viewBox="0 0 286.6 134.09"><defs><style>.cls-1{fill:#325179;}</style></defs><title>Asset 20</title><g id="Layer_2" data-name="Layer 2"><g id="Layer_1-2" data-name="Layer 1"><path class="cls-1" d="M113.68,36.2a21.51,21.51,0,0,1,.65-2.43c.45-1.55,1-3.8,1.65-6.61a84.64,84.64,0,0,0,1.47-9.94c.17-1.88.28-3.85.31-5.9,0-1,0-2.06,0-3.11,0-.5,0-1,0-1.51a.36.36,0,0,0-.51-.28c-2.86,1.39-6,2.65-8.86,4.38A65.12,65.12,0,0,0,100,16.49l-3.75,3.28-.93.8-.85.87c-.54.57-1.2,1.19-1.63,1.69-.26.32-.4.56-1,1.21a3,3,0,0,1-.74.64,1.33,1.33,0,0,1-.73.14,1.41,1.41,0,0,1-1-1.23,5.89,5.89,0,0,1-.08-1.05c0-.3,0-.44,0-.56a26,26,0,0,0-.9-4.25,24,24,0,0,0-3.63-6.94c-.62-.76-1.52-2-1.32-1.6l-1.87,2c-2.48,2.8-3.95,4.72-4.3,5.09A112.62,112.62,0,0,0,66.59,32.54,81.91,81.91,0,0,0,59,49.12c-1.06,3.15-2,6.44-2.93,9.8-.25.85-.4,1.67-.73,2.55-.16.44-.28.89-.47,1.31L54.25,64a18.62,18.62,0,0,1-3.46,4.23c-5.4,4.9-12.07,7.62-17.95,10.46S21.27,84,16.39,86s-9,3.43-11.84,4.45L1.2,91.58a7.13,7.13,0,0,1-1.2.35,7,7,0,0,1,1.14-.53l3.28-1.33c2.82-1.14,6.88-2.74,11.71-4.77s10.4-4.52,16.26-7.51c3-1.47,6-2.9,9-4.56a41.43,41.43,0,0,0,8.46-5.91,17.41,17.41,0,0,0,3.17-4l.57-1.12c.16-.37.27-.78.41-1.16.27-.77.44-1.68.68-2.51.87-3.39,1.81-6.72,2.86-9.92a82.91,82.91,0,0,1,7.54-16.93A111.73,111.73,0,0,1,75.91,15.49c.35-.38,1.86-2.31,4.41-5.14l1-1.09.54-.57.26-.28a3.9,3.9,0,0,1,.5-.49A1.37,1.37,0,0,1,84,7.67a1.35,1.35,0,0,1,.56.4l.31.39,1.28,1.6A25.9,25.9,0,0,1,90,17.54a27.83,27.83,0,0,1,.91,4.59c0,.28,0,.53,0,.61v.09c0,.05,0,.13.06.15s0,.09.68-.78c.62-.71,1.17-1.2,1.77-1.81l.89-.88,1-.81,3.88-3.3a65.25,65.25,0,0,1,8.57-5.68c3-1.73,6.11-2.93,9.12-4.32a1.4,1.4,0,0,1,1.91,1.1,4.36,4.36,0,0,1,0,.49v1.2c0,1.07,0,2.12-.06,3.16-.07,2.07-.22,4.06-.43,6a80.16,80.16,0,0,1-1.75,10,66.89,66.89,0,0,1-1.93,6.57c-.25.77-.49,1.35-.65,1.75S113.71,36.21,113.68,36.2Z"/><path class="cls-1" d="M12.29,93.4a6.55,6.55,0,0,1,.7-.2l2.07-.52c1.81-.44,4.47-1.08,7.88-1.83s7.56-1.63,12.37-2.43c2.41-.4,5-.71,7.62-1.31a56.5,56.5,0,0,1,8.55-1.32,14.07,14.07,0,0,1,4.67.42,8.83,8.83,0,0,1,4.29,2.42,14.74,14.74,0,0,1,2.45,4.42c.6,1.59,1.17,3.14,1.9,4.71,1.34,3.17,2.91,6.34,4.45,9.61.79,1.62,1.56,3.32,2.34,5a47.87,47.87,0,0,0,2.74,4.83,85.11,85.11,0,0,0,6.41,9.43,30,30,0,0,0,4,4.12c1.48,1.17,3.13,2.47,4.8,2.17s2.84-2,3.64-3.76A30,30,0,0,0,95,123.55,99.21,99.21,0,0,0,97,111.66a22.89,22.89,0,0,1,.5-3.1,3.26,3.26,0,0,1,.93-1.6,3.22,3.22,0,0,1,1.71-.78c2.54-.25,4.36,1.36,5.88,2.59a42.13,42.13,0,0,0,10.32,5.82,62.65,62.65,0,0,0,22.86,4.12c3.8.11,7.63.19,11-.92,1.6-.58,3.07-1.61,3.47-3a9.34,9.34,0,0,0,.15-2.46,20.18,20.18,0,0,0-.27-2.57,25.56,25.56,0,0,0-.53-2.52c-.06-.2-.11-.4-.18-.61l-.09-.3a3.25,3.25,0,0,1-.1-.47,2.33,2.33,0,0,1,2.43-2.56,2.64,2.64,0,0,1,.9.22l.58.25c.78.32,1.56.63,2.34.91a61.12,61.12,0,0,0,9.3,2.58,74.51,74.51,0,0,0,8.88,1.25,14.51,14.51,0,0,0,7.61-1.24,7.68,7.68,0,0,0,2.5-2.26,15.55,15.55,0,0,0,.74-1.47,12.64,12.64,0,0,0,.49-1.55c.25-1,.33-2.13.52-3.25A6.72,6.72,0,0,1,189.4,97a3.47,3.47,0,0,1,1.37-1.47,6.48,6.48,0,0,1,3.23-.59,15.22,15.22,0,0,1,2.67.37c1.64.36,3,.82,4.11,1.15a26.35,26.35,0,0,0,2.77.68l1.58.25c.59.09,2.36.38,5.18.66a63.36,63.36,0,0,0,11.39.2A45,45,0,0,0,229.3,97a41.82,41.82,0,0,0,4.09-1.3,15.36,15.36,0,0,0,2-.84,2.4,2.4,0,0,0,1.06-1.36,6.81,6.81,0,0,0-.62-4.24A19.65,19.65,0,0,0,234.7,87a1.84,1.84,0,0,0-.29-.42L234,86.1c-.28-.36-.57-.72-.84-1.14a3.77,3.77,0,0,1-.72-1.73,1.39,1.39,0,0,1,.37-1.11,1.15,1.15,0,0,1,.5-.34,1.36,1.36,0,0,1,.59-.15,3,3,0,0,1,.57,0l.4,0,.72.09c.45.07.89.15,1.35.2a46.59,46.59,0,0,0,5.6.38,42.79,42.79,0,0,0,11.73-1.53,62.15,62.15,0,0,0,5.91-2.06A19.18,19.18,0,0,0,263,77.43a4.68,4.68,0,0,0,2-1.92,3.33,3.33,0,0,0,0-2.61,8.55,8.55,0,0,0-1.7-2.52,28.7,28.7,0,0,0-5.16-4.17c-.47-.31-.95-.61-1.44-.91l-.36-.21c-.13-.08-.23-.13-.43-.27a2.22,2.22,0,0,1-.8-1,2.28,2.28,0,0,1,1.73-3l.89-.14a48.14,48.14,0,0,0,6.81-1.55A50.77,50.77,0,0,0,277.42,53a48.08,48.08,0,0,0,5.75-4.43c.47-.39.89-.83,1.33-1.25s.69-.64.68-1a.81.81,0,0,0-.55-.76,4.12,4.12,0,0,0-.76-.1l-.93-.08C278,45,273,44.41,268,44.15l-7.52-.48L253,43.38a443.89,443.89,0,0,0-58.81,1.73A421.5,421.5,0,0,0,143.65,53c-14.59,3.22-26.53,6.69-34.83,9.27-4.15,1.28-7.36,2.44-9.58,3.14l-2.52.82-.65.2a1.35,1.35,0,0,1-.23.06l.21-.1.64-.25,2.49-.9c2.2-.77,5.39-2,9.53-3.32,8.27-2.7,20.2-6.28,34.79-9.61A411.39,411.39,0,0,1,194,44.1a441.55,441.55,0,0,1,59-2l7.56.26,7.54.45c5,.25,10,.77,15,1.18l.93.08a4.68,4.68,0,0,1,1.07.16,2.25,2.25,0,0,1,1.16,3.35,5.36,5.36,0,0,1-.74.79c-.46.42-.89.88-1.37,1.28a48.89,48.89,0,0,1-5.9,4.59A52.18,52.18,0,0,1,265,60.51a49.36,49.36,0,0,1-7,1.62l-.84.14a.68.68,0,0,0-.38.18.78.78,0,0,0-.18.79.56.56,0,0,0,.24.31s.19.12.32.2l.38.22c.5.31,1,.61,1.49.94a29.87,29.87,0,0,1,5.46,4.39,9.94,9.94,0,0,1,2,3,4.89,4.89,0,0,1-.08,3.86,6.22,6.22,0,0,1-2.6,2.63,19.54,19.54,0,0,1-3.07,1.41c-2,.74-4,1.58-6.05,2.13A44.61,44.61,0,0,1,242.52,84a48,48,0,0,1-5.81-.38c-.47,0-.94-.13-1.41-.19a6.26,6.26,0,0,0-.65-.09l-.28,0c-.12,0-.07,0-.11,0s-.23-.16.31.73c.22.33.48.67.75,1l.41.5a3.57,3.57,0,0,1,.46.66,20,20,0,0,1,1.2,2.41,8.37,8.37,0,0,1,.68,5.42,4.14,4.14,0,0,1-1.79,2.32l-.62.33c-.2.1-.37.16-.56.24l-1.08.43a44,44,0,0,1-4.28,1.37,46.16,46.16,0,0,1-7.9,1.3,66.37,66.37,0,0,1-11.71-.17c-2.87-.29-4.68-.57-5.28-.67l-1.61-.26a28.54,28.54,0,0,1-3-.73c-1.17-.34-2.49-.8-4-1.13a12.56,12.56,0,0,0-2.35-.33,4.84,4.84,0,0,0-2.28.35,1.69,1.69,0,0,0-.66.71,5.11,5.11,0,0,0-.37,1.26c-.17,1-.26,2.14-.54,3.34a15.9,15.9,0,0,1-.59,1.81,14.25,14.25,0,0,1-.91,1.78,9.32,9.32,0,0,1-3.12,2.82,16.09,16.09,0,0,1-8.54,1.42,73,73,0,0,1-9.11-1.31,61.61,61.61,0,0,1-9.54-2.69c-.81-.29-1.6-.61-2.41-.94l-.6-.26a.85.85,0,0,0-.34-.09.65.65,0,0,0-.53.21.66.66,0,0,0-.2.54.62.62,0,0,0,0,.16l.09.33c.07.22.13.44.19.66.23.88.41,1.77.56,2.67a25.22,25.22,0,0,1,.28,2.77,10.4,10.4,0,0,1-.23,2.94,7.15,7.15,0,0,1-.71,1.47,7.37,7.37,0,0,1-1.09,1.14l-.62.48-.67.37a9.35,9.35,0,0,1-1.38.61c-3.78,1.23-7.69,1.08-11.53,1a63.77,63.77,0,0,1-23.34-4.33,43.16,43.16,0,0,1-10.64-6.07,15.13,15.13,0,0,0-2.35-1.72,4.16,4.16,0,0,0-2.49-.61,1.77,1.77,0,0,0-1.58,1.44,23.9,23.9,0,0,0-.47,2.89,100.17,100.17,0,0,1-2,12,30.41,30.41,0,0,1-2,5.81,11.44,11.44,0,0,1-1.69,2.65A5.05,5.05,0,0,1,89.73,134a4.92,4.92,0,0,1-3.22-.67,16.26,16.26,0,0,1-2.5-1.77,31.61,31.61,0,0,1-4.13-4.3,84.59,84.59,0,0,1-6.43-9.6,47.46,47.46,0,0,1-2.76-4.93c-.78-1.67-1.54-3.33-2.3-5-1.52-3.29-3.08-6.49-4.4-9.68-1.5-3.12-2.12-6.57-4.14-8.95A8.12,8.12,0,0,0,56,86.93a13.61,13.61,0,0,0-4.44-.43,54.55,54.55,0,0,0-8.45,1.23c-2.68.57-5.28.86-7.67,1.23-4.8.74-9,1.56-12.37,2.25L15.1,92.86,13,93.29A3.55,3.55,0,0,1,12.29,93.4Z"/><path class="cls-1" d="M159.4,18.2c0,.05-.39.42-1.19,1a35.68,35.68,0,0,1-3.47,2.17,46.05,46.05,0,0,1-11.69,4.48,12.43,12.43,0,0,1-3.57.45,4.12,4.12,0,0,1-1.92-.59A3,3,0,0,1,136.29,24a4.83,4.83,0,0,1,.61-3.59A12.84,12.84,0,0,1,138.69,18a15.59,15.59,0,0,1,5.45-3.88,16.47,16.47,0,0,1,2.38-.77c.35-.07.74-.16,1.15-.22a6.93,6.93,0,0,1,1.47-.11,2.46,2.46,0,0,1,1,.28,1.92,1.92,0,0,1,.86,1,2,2,0,0,1,0,1.32,3.53,3.53,0,0,1-.52,1,4.9,4.9,0,0,1-.71.73,5.47,5.47,0,0,1-.82.54,16.34,16.34,0,0,1-1.66.89,25.53,25.53,0,0,1-3.71,1.44c-2.61.82-5.41,1.36-8.13,2a60.19,60.19,0,0,0-14.39,5.18c-3.67,2-5.74,3.87-5.84,3.74a6.69,6.69,0,0,1,1.35-1.37,29.19,29.19,0,0,1,4.14-3,56.61,56.61,0,0,1,14.41-5.82c2.75-.75,5.51-1.37,8-2.22a26.17,26.17,0,0,0,3.47-1.43,15.63,15.63,0,0,0,1.51-.86,5.26,5.26,0,0,0,.61-.42,2.76,2.76,0,0,0,.44-.47.93.93,0,0,0,.25-.64c0-.06-.09-.13-.42-.15a5.37,5.37,0,0,0-1.06.11c-.37.06-.7.15-1,.22a15.64,15.64,0,0,0-2.1.71,14.44,14.44,0,0,0-4.93,3.35,11.59,11.59,0,0,0-1.62,2.07,3.37,3.37,0,0,0-.56,2.39,1.91,1.91,0,0,0,1.87,1.29,10.43,10.43,0,0,0,3.17-.31,49.61,49.61,0,0,0,11.64-3.84C157.44,19.29,159.32,18.08,159.4,18.2Z"/><path class="cls-1" d="M187.33,9.79A5.71,5.71,0,0,1,186.26,11,38.07,38.07,0,0,1,183,13.93a46.66,46.66,0,0,1-11.48,6.71,14.77,14.77,0,0,1-3.63,1.1,4.89,4.89,0,0,1-3.86-1.08,3.42,3.42,0,0,1-1.1-1.84,4,4,0,0,1,.1-2,18.57,18.57,0,0,1,1.28-2.9A39.61,39.61,0,0,1,168,8.07c.12-.15.67-.88,1.67-2a26,26,0,0,1,4.44-3.89,22.11,22.11,0,0,1,3.4-1.9,4.22,4.22,0,0,1,1.2-.3,2.05,2.05,0,0,1,1.54.45,2,2,0,0,1,.6,1.54,5.45,5.45,0,0,1-.19,1.23A8.32,8.32,0,0,1,178,7.11c-1.18,1-2.42,1.87-3.65,2.75a117,117,0,0,1-14.12,8.49c-2,1-3.69,1.78-4.89,2.29a8.89,8.89,0,0,1-1.92.71,9.35,9.35,0,0,1,1.76-1c1.15-.61,2.78-1.49,4.71-2.59a132.53,132.53,0,0,0,13.7-8.91A42.57,42.57,0,0,0,177,6.07a7,7,0,0,0,2.18-3.23c1.06-2.79-2.56-.27-4.13.75A24.17,24.17,0,0,0,171,7.3c-.93,1-1.44,1.74-1.55,1.88a40.51,40.51,0,0,0-3.61,5.54c-.86,1.62-2.16,3.62-.75,4.82a3.43,3.43,0,0,0,2.7.8,13.36,13.36,0,0,0,3.3-.9,50.15,50.15,0,0,0,11.52-6.07C185.5,11.31,187.22,9.68,187.33,9.79Z"/><path class="cls-1" d="M191,26.63a21.32,21.32,0,0,1,3.86-1.26c2.35-.69,5.52-1.63,8.68-2.88A35.91,35.91,0,0,0,208,20.36,7.64,7.64,0,0,0,209.77,19c.42-.5.44-.83.24-1.23a2.46,2.46,0,0,0-1.13-1,10.65,10.65,0,0,0-1.54-.49c-.27-.08-.52-.15-.77-.24l-.36-.14-.18-.08-.26-.13c-.72-.35-1-.8-1.08-1.21a1.28,1.28,0,0,1,.11-.71,2.49,2.49,0,0,1,.41-.55,5.56,5.56,0,0,1,.43-.42l.37-.31a8.22,8.22,0,0,1,2.53-1.38l.6,1.64-8.62,3.05A96.91,96.91,0,0,1,190,19.09a29.82,29.82,0,0,1-5.06.73,5.57,5.57,0,0,1-2.34-.32A2.51,2.51,0,0,1,181.13,18a3.15,3.15,0,0,1,0-1.73,6.07,6.07,0,0,1,.46-1.16c.32-.61.55-.9.59-.88a4.07,4.07,0,0,1-.31,1,3.84,3.84,0,0,0-.19,2.57,1.86,1.86,0,0,0,1.18,1.07,5.16,5.16,0,0,0,2,.14,31.38,31.38,0,0,0,4.86-.94A107.58,107.58,0,0,0,200,14.42l8.5-3.28.6,1.64a6.73,6.73,0,0,0-2,1.13l-.28.25c-.1.09,0,0-.05.05h0v0h0l.11,0,.27.11a6.76,6.76,0,0,0,.65.23,12,12,0,0,1,1.78.64A4.06,4.06,0,0,1,211.48,17a2.55,2.55,0,0,1,.21,1.61,3,3,0,0,1-.76,1.38,9,9,0,0,1-2.17,1.6,34.84,34.84,0,0,1-4.84,2A72,72,0,0,1,195,26,18.66,18.66,0,0,1,191,26.63Z"/><path class="cls-1" d="M211.44,28.39A17.16,17.16,0,0,1,215,27.32a54,54,0,0,0,7.72-2.52,13.27,13.27,0,0,0,3.59-2.05,1.89,1.89,0,0,0,.59-1.31,1.09,1.09,0,0,0-.54-.92c-.37-.27-.84-.48-1.35-.82a3.45,3.45,0,0,1-1.14-1.27,2.16,2.16,0,0,1-.18-1.48,2.24,2.24,0,0,1,.29-.66,2.9,2.9,0,0,1,.53-.6,10.35,10.35,0,0,1,1.15-.82,11.26,11.26,0,0,1,4.2-1.57l.36,1.61c-4.27,1.11-10.09,2.84-14.8,4.43s-8.35,2.93-8.42,2.76a9.65,9.65,0,0,1,2.27-1.21c1.45-.68,3.48-1.56,5.8-2.49,4.64-1.86,10.44-3.83,14.7-5.08l.37,1.61a8.47,8.47,0,0,0-4.63,2.36c0,.08-.13.09,0,.36a1.71,1.71,0,0,0,.55.63c.29.23.81.48,1.37.92a3,3,0,0,1,.8.94,2.63,2.63,0,0,1,.3,1.34,3.42,3.42,0,0,1-1.13,2.35,7.46,7.46,0,0,1-2,1.28c-.7.32-1.41.63-2.13.89a42.84,42.84,0,0,1-8.06,2A15.42,15.42,0,0,1,211.44,28.39Z"/><path class="cls-1" d="M274.71,37.13c-.09.07-1.16-1.2-3.06-3a39.8,39.8,0,0,0-8.08-5.83,41.61,41.61,0,0,0-10.91-4,11.48,11.48,0,0,1-2.78-.92,5.27,5.27,0,0,1-2.19-2A3.36,3.36,0,0,1,249,16.61l1.22-.48v1.31a4.81,4.81,0,0,1-.7,2.43,6.48,6.48,0,0,1-.66.91,8.21,8.21,0,0,1-2.35,1.78,11.69,11.69,0,0,1-6.27,1.26,11.16,11.16,0,0,1-2-.34,4.12,4.12,0,0,1-1.14-.46,2,2,0,0,1-.93-1.36,2.17,2.17,0,0,1,.4-1.53,4.17,4.17,0,0,1,.89-.93,14,14,0,0,1,1.89-1.29,25.66,25.66,0,0,1,8.89-2.76l.14,1.25a45.83,45.83,0,0,0-14.71,3.11c-3.79,1.48-6.09,2.9-6.16,2.77a6.5,6.5,0,0,1,1.51-1.09,38.88,38.88,0,0,1,4.39-2.32,44.42,44.42,0,0,1,14.9-3.72l.14,1.24a24.67,24.67,0,0,0-8.34,2.8,12.91,12.91,0,0,0-1.67,1.2c-.48.36-.78.91-.7,1s0,.13.21.23a2.58,2.58,0,0,0,.69.25,9.52,9.52,0,0,0,1.72.25A9.91,9.91,0,0,0,245.7,21a6.29,6.29,0,0,0,1.82-1.41,3.42,3.42,0,0,0,1-2.14l1.21.82a1.66,1.66,0,0,0-.55,2.35,3.79,3.79,0,0,0,1.48,1.4,10.53,10.53,0,0,0,2.4.85,41.64,41.64,0,0,1,11.11,4.48,35.91,35.91,0,0,1,7.95,6.39A14.78,14.78,0,0,1,274.71,37.13Z"/><path class="cls-1" d="M191.25,3s.05-.17.28-.24a1.18,1.18,0,0,1,.93.14A2,2,0,0,1,193.31,4a2.4,2.4,0,0,1-.09,1.61,4.94,4.94,0,0,1-.75,1.26c-.27.35-.52.64-.78.92a5.8,5.8,0,0,1-1.05.89,4.57,4.57,0,0,1-.51.25,2.94,2.94,0,0,1-1.41.21A2.31,2.31,0,0,1,187,8a2.75,2.75,0,0,1-.27-2,2.93,2.93,0,0,1,1-1.6,4.27,4.27,0,0,1,1.3-.74c.8-.27,1.34-.29,1.38-.18s-.43.38-1,.82A2.74,2.74,0,0,0,188,6.21a1.45,1.45,0,0,0,.27,1,.72.72,0,0,0,.59.25,2,2,0,0,0,.84-.34,5.72,5.72,0,0,0,.85-.57,7.56,7.56,0,0,0,1.5-1.49,1.45,1.45,0,0,0,.27-.83,1.36,1.36,0,0,0-.3-.74C191.72,3.09,191.3,3.15,191.25,3Z"/></g></g></svg>