<svg xmlns="http://www.w3.org/2000/svg" viewBox="0 0 85.55039 85.55081"><defs><style>.cls-1{fill:#345279;}</style></defs><title>EvdeSaglikHizmetIslem</title><g id="Layer_2" data-name="Layer 2"><g id="Layer_1-2" data-name="Layer 1"><path class="cls-1" d="M44.44615,82.20883a3.34157,3.34157,0,0,1-3.34182,3.34182H3.34182A3.34157,3.34157,0,0,1,0,82.20883V36.20339a3.34071,3.34071,0,0,1,1.20227-2.56707L40.6357.77492a3.34108,3.34108,0,0,1,4.27909,0l39.43342,32.8614a3.34178,3.34178,0,0,1-4.27909,5.13413L42.77524,7.69221,6.68363,37.76856V78.867h34.4207A3.34156,3.34156,0,0,1,44.44615,82.20883Zm35.81421-9.04052c-3.66685,4.42072-9.14234,8.46811-16.275,12.03053a3.34413,3.34413,0,0,1-2.98675,0C53.86589,81.63642,48.39041,77.589,44.7242,73.16831c-10.8844-13.1212-3.30526-27.60262,7.9094-27.60262A15.39193,15.39193,0,0,1,62.492,49.11245a15.3919,15.3919,0,0,1,9.85835-3.54676C83.58652,45.56569,91.11735,60.07909,80.26036,73.16831Zm-7.91005-20.919A9.01819,9.01819,0,0,0,65.277,55.74974a3.30712,3.30712,0,0,1-5.56164.01371,8.98119,8.98119,0,0,0-7.08178-3.51413c-7.20318,0-13.39011,13.88159,9.85836,26.20193C85.74042,66.13091,79.5548,52.24932,72.35031,52.24932Z"/></g></g></svg>