<svg xmlns="http://www.w3.org/2000/svg" viewBox="0 0 82.82 77.44"><defs><style>.cls-1{fill:#f1f3f3;}.cls-2{fill:#325179;}</style></defs><title>Asset 10</title><g id="Layer_2" data-name="Layer 2"><g id="Layer_1-2" data-name="Layer 1"><path class="cls-1" d="M5.84,30.07V70.71a5.9,5.9,0,0,0,5.89,5.9H24.08a5.9,5.9,0,0,0,5.9-5.9V54.84a13.21,13.21,0,0,1,8.31-12.38,10.12,10.12,0,0,1,8.9.61,12.54,12.54,0,0,1,6.3,11V70.71a5.9,5.9,0,0,0,5.9,5.9H71.73a5.9,5.9,0,0,0,5.9-5.9V30.07"/><path class="cls-2" d="M77.63,30.07a3.88,3.88,0,0,1,.11,1c0,.68.06,1.67.1,2.93.06,2.52.13,6.13.19,10.47s.11,9.42.17,14.88c0,2.72,0,5.55.08,8.42,0,.72,0,1.44,0,2.16a8.6,8.6,0,0,1-.18,2.33,6.59,6.59,0,0,1-2.73,3.94,6.38,6.38,0,0,1-2.26,1,6.26,6.26,0,0,1-1.22.15c-.41,0-.75,0-1.12,0l-4.37,0-4.32,0H59.43l-.59,0a5.81,5.81,0,0,1-1.18-.19,6.72,6.72,0,0,1-3.79-2.61,6.84,6.84,0,0,1-1-2c0-.19-.1-.37-.14-.55l-.08-.56a10.41,10.41,0,0,1,0-1.07c0-2.57,0-5,0-7.3s0-4.4,0-6.29c0-.95,0-1.85,0-2.69a12.66,12.66,0,0,0-.2-2.14,11.82,11.82,0,0,0-1-3c-.36-.72-.65-1.15-.75-1.32a10.65,10.65,0,0,0-1.06-1.39,11,11,0,0,0-3-2.37,9,9,0,0,0-5.34-1.11,11.36,11.36,0,0,0-6.36,3A12.58,12.58,0,0,0,31,53c0,.37-.1.74-.11,1.12s0,.75,0,1.17c0,.81,0,1.64,0,2.47,0,1.67,0,3.37,0,5.09s0,3.48,0,5.25c0,.88,0,1.78,0,2.68a6.67,6.67,0,0,1-5.51,6.44,6.31,6.31,0,0,1-.76.08l-.38,0H22.41l-2.74,0-5.45,0c-.91,0-1.78,0-2.73,0a6.62,6.62,0,0,1-2.86-.79,6.55,6.55,0,0,1-3.29-4.62,4.29,4.29,0,0,1-.08-.71,5.5,5.5,0,0,1,0-.69c0-.44,0-.87,0-1.3,0-.87,0-1.72,0-2.57.06-6.79.12-13.11.17-18.52s.13-9.91.19-13.05c0-1.58.07-2.81.1-3.65a5.9,5.9,0,0,1,.11-1.29,6.46,6.46,0,0,1,.1,1.29C6,32.2,6,33.43,6,35c.07,3.14.13,7.64.19,13.05s.11,11.73.17,18.52c0,.85,0,1.7,0,2.57v1.3c0,.22,0,.42,0,.61a5.4,5.4,0,0,0,.08.58,5.3,5.3,0,0,0,2.71,3.7,5.57,5.57,0,0,0,2.3.6c.85,0,1.79,0,2.68,0l5.45,0h4.74c.2,0,.39,0,.59-.08a5.11,5.11,0,0,0,4.18-5c0-.89,0-1.77,0-2.65q0-2.66,0-5.25c0-1.72,0-3.42,0-5.09,0-.83,0-1.66,0-2.47,0-.4,0-.84,0-1.27s.08-.85.12-1.27a14.33,14.33,0,0,1,4.32-8.42,13.67,13.67,0,0,1,3.59-2.44A12.4,12.4,0,0,1,41,40.81a10.67,10.67,0,0,1,3.6.2,11.67,11.67,0,0,1,2.89,1.09A13,13,0,0,1,51,44.87a13.68,13.68,0,0,1,1.26,1.64,15.32,15.32,0,0,1,.87,1.56,13.56,13.56,0,0,1,1.11,3.55,14.61,14.61,0,0,1,.21,2.48c0,.84,0,1.74,0,2.69,0,1.89,0,4,0,6.29s0,4.73,0,7.3c0,.35,0,.6,0,.88l.06.41c0,.14.07.27.1.41a5,5,0,0,0,3.53,3.51,4.4,4.4,0,0,0,.88.16l.46,0H60l2.13,0,4.32,0,4.37,0c.36,0,.75,0,1.08,0a5.21,5.21,0,0,0,1-.1A5,5,0,0,0,74.59,75,5.21,5.21,0,0,0,76.79,72,7.52,7.52,0,0,0,77,70c0-.72,0-1.44,0-2.16,0-2.87.05-5.7.08-8.42.06-5.46.12-10.53.17-14.88s.12-8,.19-10.47c0-1.26.06-2.25.1-2.93A4.25,4.25,0,0,1,77.63,30.07Z"/><path class="cls-1" d="M79.9,31.89H3.6A2.69,2.69,0,0,1,2,27L34.72,3.2a12.36,12.36,0,0,1,14.61,0L81.5,27A2.69,2.69,0,0,1,79.9,31.89Z"/><path class="cls-2" d="M79.9,31.89a.61.61,0,0,1,.22-.07,1.57,1.57,0,0,0,.27-.05l.36-.12a2.62,2.62,0,0,0,1.53-1.73,2.5,2.5,0,0,0-.11-1.63,2.67,2.67,0,0,0-.51-.76c-.13-.1-.25-.21-.39-.31l-.46-.33-4.2-3C70.47,19.52,62.28,13.6,54,7.62L50.94,5.37c-1-.73-2.07-1.54-3-2.13A11.55,11.55,0,0,0,41.23,1.7,11.68,11.68,0,0,0,35.2,4c-1.8,1.33-3.51,2.6-5.11,3.77L18.6,16.19,4.52,26.35,3,27.44l-.39.28c-.12.09-.17.15-.27.22s-.13.16-.21.24L2,28.45a1.84,1.84,0,0,0-.08,1.29,1.93,1.93,0,0,0,.83,1.05,2.09,2.09,0,0,0,.67.2l.18,0h.78L6.5,31l4.43,0,18.68.13c12.67.09,25.24.2,34.65.32,4.7.06,8.61.12,11.34.19,1.37,0,2.44.07,3.18.1a5,5,0,0,1,1.12.1,4.55,4.55,0,0,1-1.12.11l-3.18.1c-2.73.06-6.64.13-11.34.19-9.41.12-22,.23-34.65.32l-18.68.12-4.43,0h-3l-.34,0a3.72,3.72,0,0,1-1.33-.4,3.67,3.67,0,0,1-1.7-2.06,3.7,3.7,0,0,1,.14-2.6,5.3,5.3,0,0,1,.33-.57c.14-.17.27-.35.42-.5l.47-.39L1.92,26l1.5-1.11,14-10.29L29,6.22l5.16-3.71a13.33,13.33,0,0,1,7-2.48A13.05,13.05,0,0,1,48.69,1.9c1.16.72,2.11,1.51,3.14,2.27l3.05,2.3c8.15,6.13,16.2,12.22,22.2,16.8l4.08,3.14c.16.11.3.23.45.34s.3.27.44.39a2.81,2.81,0,0,1,.59,1,2.85,2.85,0,0,1,0,1.93,2.92,2.92,0,0,1-.86,1.28,2.57,2.57,0,0,1-.52.34,3.31,3.31,0,0,1-.47.19l-.4.07a1.48,1.48,0,0,1-.29,0C80,31.92,79.9,31.91,79.9,31.89Z"/></g></g></svg>