<?xml version="1.0"?>
<svg xmlns="http://www.w3.org/2000/svg" height="512px" version="1.1" viewBox="-74 0 512 512" width="512px" class=""><g><g id="surface1">
<path d="M 338.578125 512 L 24.773438 512 C 11.09375 512 0 500.90625 0 487.226562 L 0 66.066406 C 0 52.382812 11.09375 41.289062 24.773438 41.289062 L 338.578125 41.289062 C 352.261719 41.289062 363.355469 52.382812 363.355469 66.066406 L 363.355469 487.226562 C 363.355469 500.90625 352.261719 512 338.578125 512 Z M 338.578125 512 " style="fill:#00FFF9" data-original="#FFE1A0" class="active-path" data-old_color="#3BCCC8"/>
<path d="M 322.0625 462.453125 L 41.289062 462.453125 C 36.730469 462.453125 33.03125 458.753906 33.03125 454.195312 L 33.03125 82.582031 C 33.03125 78.019531 36.730469 74.324219 41.289062 74.324219 L 322.0625 74.324219 C 326.625 74.324219 330.320312 78.019531 330.320312 82.582031 L 330.320312 454.195312 C 330.320312 458.753906 326.625 462.453125 322.0625 462.453125 Z M 322.0625 462.453125 " style=" stroke:none;fill-rule:nonzero;fill:rgb(100%,100%,100%);fill-opacity:1;" data-original="#FFFFFF" class=""/>
<path d="M 264.257812 33.03125 L 222.101562 33.03125 C 218.089844 33.03125 214.824219 30.109375 214 26.183594 C 210.84375 11.226562 197.570312 0 181.675781 0 C 165.78125 0 152.507812 11.226562 149.355469 26.183594 C 148.527344 30.109375 145.265625 33.03125 141.253906 33.03125 L 99.097656 33.03125 C 94.535156 33.03125 90.839844 36.730469 90.839844 41.289062 L 90.839844 74.320312 C 90.839844 78.882812 94.535156 82.578125 99.097656 82.578125 L 264.257812 82.578125 C 268.820312 82.578125 272.515625 78.882812 272.515625 74.320312 L 272.515625 41.289062 C 272.515625 36.730469 268.820312 33.03125 264.257812 33.03125 Z M 181.675781 41.289062 C 177.117188 41.289062 173.417969 37.59375 173.417969 33.03125 C 173.417969 28.472656 177.117188 24.773438 181.675781 24.773438 C 186.238281 24.773438 189.933594 28.472656 189.933594 33.03125 C 189.933594 37.59375 186.238281 41.289062 181.675781 41.289062 Z M 181.675781 41.289062 " style=" stroke:none;fill-rule:nonzero;fill:rgb(92.941176%,92.156863%,92.941176%);fill-opacity:1;" data-original="#EDEBED" class=""/>
<path d="M 173.417969 173.417969 L 148.644531 173.417969 L 148.644531 148.644531 C 148.644531 144.085938 144.949219 140.386719 140.386719 140.386719 L 123.871094 140.386719 C 119.308594 140.386719 115.613281 144.085938 115.613281 148.644531 L 115.613281 173.417969 L 90.839844 173.417969 C 86.277344 173.417969 82.582031 177.117188 82.582031 181.675781 L 82.582031 198.191406 C 82.582031 202.753906 86.277344 206.449219 90.839844 206.449219 L 115.613281 206.449219 L 115.613281 231.226562 C 115.613281 235.785156 119.308594 239.484375 123.871094 239.484375 L 140.386719 239.484375 C 144.949219 239.484375 148.644531 235.785156 148.644531 231.226562 L 148.644531 206.449219 L 173.417969 206.449219 C 177.980469 206.449219 181.675781 202.753906 181.675781 198.191406 L 181.675781 181.675781 C 181.675781 177.117188 177.980469 173.417969 173.417969 173.417969 Z M 173.417969 173.417969 " style=" stroke:none;fill-rule:nonzero;fill:rgb(100%,50.196078%,52.941176%);fill-opacity:1;" data-original="#FF8087" class=""/>
<path d="M 256 165.160156 L 222.96875 165.160156 C 218.402344 165.160156 214.710938 161.464844 214.710938 156.902344 C 214.710938 152.34375 218.402344 148.644531 222.96875 148.644531 L 256 148.644531 C 260.5625 148.644531 264.257812 152.34375 264.257812 156.902344 C 264.257812 161.464844 260.5625 165.160156 256 165.160156 Z M 256 165.160156 " style=" stroke:none;fill-rule:nonzero;fill:rgb(100%,50.196078%,52.941176%);fill-opacity:1;" data-original="#FF8087" class=""/>
<path d="M 280.773438 198.195312 L 222.96875 198.195312 C 218.402344 198.195312 214.710938 194.496094 214.710938 189.9375 C 214.710938 185.375 218.402344 181.679688 222.96875 181.679688 L 280.773438 181.679688 C 285.339844 181.679688 289.03125 185.375 289.03125 189.9375 C 289.03125 194.496094 285.339844 198.195312 280.773438 198.195312 Z M 280.773438 198.195312 " style=" stroke:none;fill-rule:nonzero;fill:rgb(90.196078%,39.215686%,43.137255%);fill-opacity:1;" data-original="#E6646E" class=""/>
<path d="M 280.773438 231.226562 L 222.96875 231.226562 C 218.402344 231.226562 214.710938 227.527344 214.710938 222.96875 C 214.710938 218.40625 218.402344 214.710938 222.96875 214.710938 L 280.773438 214.710938 C 285.339844 214.710938 289.03125 218.40625 289.03125 222.96875 C 289.03125 227.527344 285.339844 231.226562 280.773438 231.226562 Z M 280.773438 231.226562 " style=" stroke:none;fill-rule:nonzero;fill:rgb(92.941176%,92.156863%,92.941176%);fill-opacity:1;" data-original="#EDEBED" class=""/>
<path d="M 256 297.289062 L 82.578125 297.289062 C 78.015625 297.289062 74.320312 293.59375 74.320312 289.03125 C 74.320312 284.472656 78.015625 280.773438 82.578125 280.773438 L 256 280.773438 C 260.5625 280.773438 264.257812 284.472656 264.257812 289.03125 C 264.257812 293.59375 260.5625 297.289062 256 297.289062 Z M 256 297.289062 " style=" stroke:none;fill-rule:nonzero;fill:rgb(52.54902%,49.411765%,53.333333%);fill-opacity:1;" data-original="#867E88" class=""/>
<path d="M 280.773438 330.324219 L 82.578125 330.324219 C 78.015625 330.324219 74.320312 326.625 74.320312 322.066406 C 74.320312 317.503906 78.015625 313.808594 82.578125 313.808594 L 280.773438 313.808594 C 285.339844 313.808594 289.03125 317.503906 289.03125 322.066406 C 289.03125 326.625 285.339844 330.324219 280.773438 330.324219 Z M 280.773438 330.324219 " style=" stroke:none;fill-rule:nonzero;fill:rgb(61.176471%,58.823529%,61.960784%);fill-opacity:1;" data-original="#9C969E" class=""/>
<path d="M 165.160156 396.386719 L 82.578125 396.386719 C 78.015625 396.386719 74.320312 392.6875 74.320312 388.128906 C 74.320312 383.570312 78.015625 379.871094 82.578125 379.871094 L 165.160156 379.871094 C 169.726562 379.871094 173.417969 383.570312 173.417969 388.128906 C 173.417969 392.6875 169.726562 396.386719 165.160156 396.386719 Z M 165.160156 396.386719 " style=" stroke:none;fill-rule:nonzero;fill:rgb(61.176471%,58.823529%,61.960784%);fill-opacity:1;" data-original="#9C969E" class=""/>
<path d="M 280.773438 363.355469 L 140.386719 363.355469 C 135.820312 363.355469 132.128906 359.65625 132.128906 355.097656 C 132.128906 350.535156 135.824219 346.839844 140.386719 346.839844 L 280.773438 346.839844 C 285.339844 346.839844 289.03125 350.535156 289.03125 355.097656 C 289.03125 359.65625 285.339844 363.355469 280.773438 363.355469 Z M 280.773438 363.355469 " style=" stroke:none;fill-rule:nonzero;fill:rgb(52.54902%,49.411765%,53.333333%);fill-opacity:1;" data-original="#867E88" class=""/>
<path d="M 107.355469 363.355469 L 82.578125 363.355469 C 78.015625 363.355469 74.320312 359.65625 74.320312 355.097656 C 74.320312 350.535156 78.015625 346.839844 82.578125 346.839844 L 107.355469 346.839844 C 111.917969 346.839844 115.613281 350.535156 115.613281 355.097656 C 115.613281 359.65625 111.917969 363.355469 107.355469 363.355469 Z M 107.355469 363.355469 " style=" stroke:none;fill-rule:nonzero;fill:rgb(52.54902%,49.411765%,53.333333%);fill-opacity:1;" data-original="#867E88" class=""/>
<path d="M 264.257812 82.582031 L 99.097656 82.582031 C 94.535156 82.582031 90.839844 78.882812 90.839844 74.324219 L 90.839844 66.066406 L 272.515625 66.066406 L 272.515625 74.324219 C 272.515625 78.882812 268.816406 82.582031 264.257812 82.582031 Z M 264.257812 82.582031 " style=" stroke:none;fill-rule:nonzero;fill:rgb(85.882353%,85.098039%,86.27451%);fill-opacity:1;" data-original="#DBD9DC"/>
<path d="M 82.578125 189.933594 L 82.578125 198.191406 C 82.578125 202.753906 86.277344 206.449219 90.839844 206.449219 L 115.613281 206.449219 L 115.613281 231.226562 C 115.613281 235.785156 119.308594 239.484375 123.871094 239.484375 L 132.128906 239.484375 L 132.128906 206.449219 C 132.128906 197.328125 124.734375 189.933594 115.613281 189.933594 Z M 82.578125 189.933594 " style=" stroke:none;fill-rule:nonzero;fill:rgb(90.196078%,39.215686%,43.137255%);fill-opacity:1;" data-original="#E6646E" class=""/>
<path d="M 57.804688 495.484375 C 35.003906 495.484375 16.515625 476.996094 16.515625 454.195312 L 16.515625 42.699219 C 6.914062 46.109375 0 55.292969 0 66.0625 L 0 487.226562 C 0 500.90625 11.09375 512 24.773438 512 L 338.578125 512 C 349.351562 512 358.535156 505.082031 361.945312 495.484375 Z M 57.804688 495.484375 " style="fill:#3BCCC8" data-original="#F7D291" class="" data-old_color="#00FFF9"/>
</g></g> </svg>