<svg xmlns="http://www.w3.org/2000/svg" viewBox="0 0 74.99 75.16"><defs><style>.cls-1{fill:#f1f3f3;}.cls-2{fill:#325179;}</style></defs><title>Asset 14</title><g id="Layer_2" data-name="Layer 2"><g id="Layer_1-2" data-name="Layer 1"><path class="cls-1" d="M68.24,16.1a29.58,29.58,0,0,1,2.06,3.4c8.61,16.55,4.26,37.39-11.21,48.26A37,37,0,1,1,45.33,1.25,38.16,38.16,0,0,1,68.24,16.1Z"/><path class="cls-2" d="M68.24,16.1a5.82,5.82,0,0,1-.74-.85l-.38-.47-.49-.56c-.34-.4-.74-.86-1.22-1.35A38.53,38.53,0,0,0,56.53,6,37.53,37.53,0,0,0,41.41,1.14,37.15,37.15,0,0,0,23.46,4a37.55,37.55,0,0,0-8,4.8,37.93,37.93,0,0,0-6.38,6.48A37.06,37.06,0,0,0,4.71,22.7a35.75,35.75,0,0,0-2.34,7.39,36.33,36.33,0,0,0-.44,12c.11.75.2,1.43.33,2s.21,1.13.33,1.58c.22.89.37,1.47.45,1.69a36.14,36.14,0,0,0,2.29,6A37.29,37.29,0,0,0,14.26,65,37.63,37.63,0,0,0,18,67.81c.66.46,1.37.85,2.08,1.28s1.45.81,2.23,1.15a33.48,33.48,0,0,0,4.85,1.9,34.86,34.86,0,0,0,5.27,1.23,36.1,36.1,0,0,0,22.27-3.64,30.28,30.28,0,0,0,4.93-3.1l1.15-.88a11.06,11.06,0,0,0,1.11-.92l2.11-2a37.05,37.05,0,0,0,6.42-9.15L71,52.49l.3-.61.23-.63q.48-1.26.93-2.49c.24-.84.47-1.68.7-2.5l.17-.62.12-.63c.08-.41.15-.82.23-1.23s.15-.82.23-1.23.09-.81.13-1.21c.07-.81.18-1.61.22-2.39a40,40,0,0,0-.07-4.54,38.35,38.35,0,0,0-3.44-13.57A26.31,26.31,0,0,0,69,17.32a11.31,11.31,0,0,1-.71-1.22,2.27,2.27,0,0,1,.24.27c.15.19.35.47.61.85a23.11,23.11,0,0,1,2,3.47,37.61,37.61,0,0,1,3.79,13.67A40.92,40.92,0,0,1,75,39c0,.8-.13,1.61-.19,2.44,0,.41-.06.83-.12,1.24l-.21,1.25c-.07.42-.15.85-.22,1.27l-.11.64-.17.64L73.29,49l-.92,2.56-.23.64-.29.63c-.2.42-.39.84-.59,1.27a37.92,37.92,0,0,1-6.5,9.48l-2.15,2a11.58,11.58,0,0,1-1.14,1l-1.18.93a32.92,32.92,0,0,1-5,3.25,37.43,37.43,0,0,1-23,4,35.29,35.29,0,0,1-5.49-1.23,35.11,35.11,0,0,1-5.06-1.94c-.81-.35-1.57-.79-2.33-1.18s-1.49-.85-2.18-1.32a38.12,38.12,0,0,1-3.89-2.89A38.52,38.52,0,0,1,3.84,54.13,37.89,37.89,0,0,1,1.4,47.82C1.32,47.59,1.16,47,1,46c-.13-.47-.23-1-.34-1.66S.39,43,.28,42.25A38.07,38.07,0,0,1,.83,29.77a37.2,37.2,0,0,1,2.52-7.68,38.92,38.92,0,0,1,4.59-7.64,39.06,39.06,0,0,1,6.7-6.65A37.54,37.54,0,0,1,32.25.38,38.85,38.85,0,0,1,41.5.19,37.78,37.78,0,0,1,56.86,5.38a37,37,0,0,1,8.8,7.26c.47.51.85,1,1.17,1.42l.46.58.35.51A6.17,6.17,0,0,1,68.24,16.1Z"/><path class="cls-1" d="M50.4,38a12.54,12.54,0,0,1,8.28,3.41c2.33,2.49,4.46,7.83-.23,9.54-2.89,1.05-3-2.59-5.49-3a23.65,23.65,0,0,1-13.12,7.8c-5.1.91-10.74-.54-14.24-4.37C21.43,46.86,21,40.07,21.42,33.92"/><path class="cls-2" d="M21.42,33.92a10.54,10.54,0,0,1,0,1.43c0,.9,0,2.2.06,3.75a27.66,27.66,0,0,0,.77,5.24,16.39,16.39,0,0,0,2.49,5.5,13,13,0,0,0,4.52,4,14.48,14.48,0,0,0,2.61,1.09c.43.15.86.23,1.28.34s.82.18,1.22.22a17,17,0,0,0,4,.1,16.3,16.3,0,0,0,1.77-.27,16,16,0,0,0,2.08-.52,21.48,21.48,0,0,0,4.45-2,26,26,0,0,0,5.27-4.17c.23-.21.42-.44.65-.67l.29-.32c.14,0,.28.07.42.1a2.44,2.44,0,0,1,.52.19,4.63,4.63,0,0,1,1.54,1.36,7.12,7.12,0,0,0,1.27,1.34,1.85,1.85,0,0,0,1.63.15c.28-.08.56-.24.85-.35.13-.07.25-.17.38-.25a1.41,1.41,0,0,0,.37-.27,3.38,3.38,0,0,0,1-1.46,5.63,5.63,0,0,0-.28-3.53,10.16,10.16,0,0,0-1.71-3,8.92,8.92,0,0,0-2.35-2,14.13,14.13,0,0,0-4.31-1.7A15.68,15.68,0,0,0,50.4,38a2.48,2.48,0,0,1,.47-.05,8,8,0,0,1,1.31.1,13.48,13.48,0,0,1,4.44,1.59,8.94,8.94,0,0,1,2.5,2A10.5,10.5,0,0,1,61,44.71a6.05,6.05,0,0,1,.35,3.85,4,4,0,0,1-1.12,1.73,2.12,2.12,0,0,1-.42.32c-.14.1-.28.2-.43.29-.32.13-.61.3-1,.41a2.8,2.8,0,0,1-1.08.15,2.16,2.16,0,0,1-1.07-.35,6.79,6.79,0,0,1-1.43-1.46,4.07,4.07,0,0,0-1.33-1.15l-.19-.09-.19,0h0l0,0c-.21.22-.42.47-.64.68A26.83,26.83,0,0,1,47,53.42a22,22,0,0,1-4.6,2.13,18.44,18.44,0,0,1-2.16.57,17.58,17.58,0,0,1-6,.11c-.41,0-.83-.17-1.28-.25s-.88-.22-1.33-.38a14.19,14.19,0,0,1-2.71-1.18,13.47,13.47,0,0,1-4.69-4.24,17,17,0,0,1-2.45-5.73,27.19,27.19,0,0,1-.64-5.34,37,37,0,0,1,.09-3.77c0-.46.08-.81.11-1.05S21.4,33.92,21.42,33.92Z"/><path class="cls-1" d="M35.16,35.81a4.28,4.28,0,0,0,4.08,2.26,10,10,0,0,0,4.63-1.63,26.85,26.85,0,0,1,4.35-2.35A1.62,1.62,0,0,1,49,34a1.48,1.48,0,0,1,.95.85c1.13,2.19-.19,4.86-1.88,6.65a16.74,16.74,0,0,1-5.59,3.9"/><path class="cls-2" d="M42.51,45.35c0-.06.74-.41,1.8-1.09a17.33,17.33,0,0,0,3.52-3,8.15,8.15,0,0,0,2.11-4,3.61,3.61,0,0,0-.24-2.12,2.21,2.21,0,0,0-.37-.63.62.62,0,0,0-.48-.23,2.93,2.93,0,0,0-.94.28,18,18,0,0,0-2.42,1.24,31.31,31.31,0,0,1-2.77,1.53,8.61,8.61,0,0,1-3.07.88,5.09,5.09,0,0,1-2.72-.53,3.67,3.67,0,0,1-1.47-1.27,1.47,1.47,0,0,1-.3-.67s.15.22.43.57a3.87,3.87,0,0,0,1.48,1.07,4.83,4.83,0,0,0,2.54.36,8.41,8.41,0,0,0,2.85-1c1.84-1,3.56-2.3,5.15-3a3.8,3.8,0,0,1,1.21-.36,1.46,1.46,0,0,1,1.11.46,2.69,2.69,0,0,1,.55.88,3.56,3.56,0,0,1,.24.79,4.47,4.47,0,0,1,0,1.79,8.65,8.65,0,0,1-2.45,4.26,15.71,15.71,0,0,1-3.79,2.82A6.81,6.81,0,0,1,42.51,45.35Z"/><path class="cls-2" d="M69,17.29a3,3,0,0,1-.35,1.92l-.19.43-.25.43a7,7,0,0,1-.61.89A10.57,10.57,0,0,1,66,22.62a22.12,22.12,0,0,1-5.82,3.13c-.06,0-.32.11-.79.24s-1.1.27-1.82.42a21.83,21.83,0,0,0-2.33.57,10.55,10.55,0,0,0-2.38,1.13,8.36,8.36,0,0,0-2,1.72,7.91,7.91,0,0,0-1.17,2C49.16,33.06,49.18,34,49,34a3.6,3.6,0,0,1,0-2.42,7.53,7.53,0,0,1,1-2.32,8.93,8.93,0,0,1,2-2.14,11.39,11.39,0,0,1,2.59-1.47,20.92,20.92,0,0,1,2.46-.77c1.43-.37,2.29-.71,2.42-.75a24.82,24.82,0,0,0,5.67-2.49,11.7,11.7,0,0,0,1.67-1.32,8.45,8.45,0,0,0,.65-.72l.29-.36.23-.35C68.68,18,68.89,17.26,69,17.29Z"/><circle class="cls-1" cx="29.58" cy="27.36" r="10.07"/><path class="cls-2" d="M39.65,27.36a10.44,10.44,0,0,1-.15-1.16,10.83,10.83,0,0,0-.89-2.91,10,10,0,0,0-7-5.5,10.23,10.23,0,0,0-4.9.29A10,10,0,0,0,23,20.31,10.13,10.13,0,0,0,21,22.86a9.67,9.67,0,0,0-.56,1.34,7.38,7.38,0,0,0-.42,1.67,9.69,9.69,0,0,0,2.83,8.53A9.78,9.78,0,0,0,28.33,37,10.12,10.12,0,0,0,31.44,37a10.38,10.38,0,0,0,2.84-1,11.52,11.52,0,0,0,2.28-1.66,10.46,10.46,0,0,0,1.57-2,9.81,9.81,0,0,0,1.32-3.55,8.89,8.89,0,0,0,.14-1.06,2,2,0,0,1,.06-.38s0,.13,0,.38a6.72,6.72,0,0,1-.06,1.09,9.4,9.4,0,0,1-1.2,3.69,10.93,10.93,0,0,1-1.57,2.1,11.89,11.89,0,0,1-2.34,1.8,10.37,10.37,0,0,1-6.25,1.22,10.42,10.42,0,0,1-9-11.9,9.64,9.64,0,0,1,.44-1.82,11,11,0,0,1,.64-1.45,10.55,10.55,0,0,1,6.16-5.06,10.74,10.74,0,0,1,5.23-.21,10.54,10.54,0,0,1,4.6,2.34,10.39,10.39,0,0,1,2.61,3.61,10.14,10.14,0,0,1,.76,3c0,.37,0,.67,0,.87S39.67,27.36,39.65,27.36Z"/></g></g></svg>