<?xml version="1.0"?>
<svg xmlns="http://www.w3.org/2000/svg" xmlns:xlink="http://www.w3.org/1999/xlink" version="1.1" id="Capa_1" x="0px" y="0px" viewBox="0 0 512 512" style="enable-background:new 0 0 512 512;" xml:space="preserve" width="512px" height="512px"><g><path style="fill:#FFB3B7;" d="M283.777,451.986c7.215,0,13.537-4.829,15.435-11.789l14.607-53.557  c3.897-14.289,0.979-29.578-7.908-41.427l-2.943-3.923c-4.03-5.373-4.321-12.669-0.633-18.282  c15.796-24.044,55.78-95.689,57.593-207.14c0.079-4.877-2.97-9.291-7.576-10.896c-13.319-4.64-44.437-12.96-96.352-12.96  s-83.033,8.319-96.352,12.96c-4.606,1.605-7.656,6.019-7.576,10.896c1.813,111.45,41.797,183.095,57.593,207.14  c3.688,5.614,3.397,12.909-0.633,18.282l-2.943,3.923c-8.887,11.849-11.805,27.137-7.908,41.427l14.607,53.557  c1.898,6.96,8.22,11.789,15.435,11.789H283.777z" data-original="#FFB3B7"/><path style="fill:#E6646E;" d="M509.419,92.473c-6.125-17.987-21.967-30.318-41.349-32.181c-1.922-0.184-3.89-0.277-5.937-0.277  c-20.147,0-47.004,13.448-78.104,29.021c-40.231,20.143-85.822,42.973-128.03,42.973s-87.798-22.83-128.03-42.973  C96.871,73.462,70.013,60.014,49.866,60.014c-2.047,0-4.015,0.094-5.937,0.277C24.548,62.155,8.705,74.486,2.581,92.473  c-6.093,17.893-1.219,37.114,12.741,50.172l29.904,27.881c1.539,1.437,3.5,2.148,5.453,2.148c2.14,0,4.273-0.855,5.851-2.543  c3.015-3.234,2.836-8.296-0.398-11.308l-29.888-27.869c-9.296-8.695-12.554-21.463-8.515-33.326  C21.861,85.493,32.227,77.49,45.46,76.22c1.422-0.137,2.89-0.207,4.406-0.207c16.366,0,42.88,13.272,70.94,27.326  c20.893,10.462,43.178,21.595,65.983,30.131c12.655,4.737,21.214,16.589,21.214,30.102v30.907c0,13.455,5.552,25.597,14.479,34.301  c6.113,5.96,9.52,14.149,9.52,22.686v31.174c0,8.194,3.9,15.79,10.027,20.471c3.842,2.936,5.972,7.584,5.972,12.419v48.616  c0,5.036-2.399,9.743-6.427,12.766c-5.805,4.356-9.572,11.254-9.572,19.078v55.996h47.997V395.99c0-7.823-3.767-14.722-9.572-19.078  c-4.028-3.023-6.427-7.73-6.427-12.766v-48.253c0-5.029,2.39-9.735,6.412-12.754c5.818-4.367,9.587-11.303,9.587-19.142v-32.532  c0-8.537,3.407-16.726,9.52-22.686c8.927-8.704,14.479-20.846,14.479-34.301v-30.907c0-13.513,8.559-25.365,21.214-30.102  c22.805-8.535,45.09-19.669,65.983-30.131c28.06-14.054,54.574-27.326,70.94-27.326c1.516,0,2.984,0.07,4.406,0.207  c13.233,1.269,23.6,9.273,27.732,21.409c4.039,11.862,0.781,24.631-8.484,33.298l-27.904,25.881  c-3.242,3.008-3.429,8.066-0.43,11.308c3.008,3.234,8.062,3.422,11.304,0.426l27.935-25.908  C510.638,129.587,515.512,110.366,509.419,92.473z" data-original="#E6646E"/><ellipse transform="matrix(-0.8374 -0.5465 0.5465 -0.8374 45.9272 383.4971)" style="fill:#FFB3B7;" cx="79.997" cy="184.918" rx="42.118" ry="34.46" data-original="#FFB3B7"/><path style="fill:#FF8087;" d="M76.777,167.526c9.202-4.914,18.972-7.043,28.12-6.761c-1.875-1.669-3.859-3.27-6.048-4.699  c-19.482-12.714-43.709-10.099-54.111,5.841c-7.874,12.066-5.538,28.29,4.497,40.987C51.756,189.122,61.631,175.614,76.777,167.526z  " data-original="#FF8087"/><ellipse transform="matrix(0.8374 -0.5465 0.5465 0.8374 -30.8295 266.158)" style="fill:#FFB3B7;" cx="432.001" cy="184.904" rx="42.118" ry="34.46" data-original="#FFB3B7"/><path style="fill:#FF8087;" d="M435.223,167.526c-9.202-4.914-18.972-7.043-28.12-6.761c1.875-1.669,3.859-3.27,6.048-4.699  c19.482-12.714,43.709-10.099,54.111,5.841c7.874,12.066,5.538,28.29-4.497,40.987C460.244,189.122,450.369,175.614,435.223,167.526  z" data-original="#FF8087"/><g>
	<path style="fill:#DC4655" d="M270.411,303.14c5.818-4.367,9.587-11.303,9.587-19.142V260c0,13.254-10.744,23.998-23.998,23.998   c-13.254,0-23.998-10.744-23.998-23.998v22.64c0,8.194,3.9,15.789,10.027,20.471c3.842,2.936,5.972,7.584,5.972,12.419v48.616   c0,5.036-2.399,9.743-6.427,12.766c-5.805,4.356-9.572,11.255-9.572,19.078v23.998c0-13.254,10.744-23.998,23.998-23.998   c13.254,0,23.998,10.744,23.998,23.998V395.99c0-7.824-3.766-14.722-9.572-19.078c-4.028-3.022-6.427-7.729-6.427-12.766v-48.252   C263.999,310.864,266.389,306.159,270.411,303.14z" data-original="#DC4655" class="active-path"/>
	<path style="fill:#DC4655" d="M256,132.009c-18.911,0-38.5-4.601-57.983-11.472c31.403,18.492,40.506,35.471,57.983,35.471   c17.477,0,26.58-16.979,57.983-35.471C294.5,127.408,274.911,132.009,256,132.009z" data-original="#DC4655" class="active-path"/>
</g></g> </svg>