<svg xmlns="http://www.w3.org/2000/svg" viewBox="0 0 35.41 38.13"><defs><style>.cls-1{fill:#325179;}</style></defs><title>Güncelle</title><g id="Layer_2" data-name="Layer 2"><g id="Layer_1-2" data-name="Layer 1"><path class="cls-1" d="M31.32,0A1.36,1.36,0,0,0,30,1.36v5A17.66,17.66,0,0,0,0,19.07a1.36,1.36,0,0,0,2.72,0A15,15,0,0,1,28.75,9l-6,2a1.36,1.36,0,0,0,.86,2.58l8.17-2.72a1.35,1.35,0,0,0,.93-1.3V1.36A1.36,1.36,0,0,0,31.32,0Z"/><path class="cls-1" d="M34.05,17.7a1.37,1.37,0,0,0-1.37,1.37,15,15,0,0,1-26,10.11l6-2a1.36,1.36,0,0,0-.86-2.59L3.66,27.3a1.38,1.38,0,0,0-.94,1.3v8.17a1.37,1.37,0,0,0,2.73,0v-5a17.68,17.68,0,0,0,30-12.73A1.36,1.36,0,0,0,34.05,17.7Z"/></g></g></svg>