<svg xmlns="http://www.w3.org/2000/svg" viewBox="0 0 86.52829 86.52829"><defs><style>.cls-1{fill:#345279;}</style></defs><title>HizmetSonlandırmaListesi</title><g id="Layer_2" data-name="Layer 2"><g id="Layer_1-2" data-name="Layer 1"><path class="cls-1" d="M76.38826,6.76h-4.056V0h-6.76V6.76H20.95607V0h-6.76V6.76H10.14A10.15154,10.15154,0,0,0,0,16.90006v59.4882a10.15154,10.15154,0,0,0,10.14,10.14H76.38826a10.15154,10.15154,0,0,0,10.14-10.14V16.90006A10.15154,10.15154,0,0,0,76.38826,6.76Zm3.38,69.62824a3.38384,3.38384,0,0,1-3.38,3.38H10.14a3.38385,3.38385,0,0,1-3.38-3.38V31.77211H79.76827Zm0-51.37618H6.76v-8.112a3.38385,3.38385,0,0,1,3.38-3.38h4.056v6.76h6.76v-6.76H65.57222v6.76h6.76v-6.76h4.056a3.38384,3.38384,0,0,1,3.38,3.38Z"/><rect class="cls-1" x="12.84404" y="38.87013" width="6.76002" height="6.76002"/><rect class="cls-1" x="26.36409" y="38.87013" width="6.76002" height="6.76002"/><rect class="cls-1" x="39.88413" y="38.87013" width="6.76002" height="6.76002"/><rect class="cls-1" x="53.40418" y="38.87013" width="6.76002" height="6.76002"/><rect class="cls-1" x="66.92422" y="38.87013" width="6.76002" height="6.76002"/><rect class="cls-1" x="12.84404" y="52.39018" width="6.76002" height="6.76002"/><rect class="cls-1" x="26.36409" y="52.39018" width="6.76002" height="6.76002"/><rect class="cls-1" x="39.88413" y="52.39018" width="6.76002" height="6.76002"/><rect class="cls-1" x="53.40418" y="52.39018" width="6.76002" height="6.76002"/><rect class="cls-1" x="12.84404" y="65.91022" width="6.76002" height="6.76002"/><rect class="cls-1" x="26.36409" y="65.91022" width="6.76002" height="6.76002"/><rect class="cls-1" x="39.88413" y="65.91022" width="6.76002" height="6.76002"/><rect class="cls-1" x="53.40418" y="65.91022" width="6.76002" height="6.76002"/><rect class="cls-1" x="66.92422" y="52.39018" width="6.76002" height="6.76002"/></g></g></svg>