<svg xmlns="http://www.w3.org/2000/svg" viewBox="0 0 49.31 61.72"><defs><style>.cls-1{fill:#f1f3f3;}.cls-2{fill:#325179;}</style></defs><title>Asset 18</title><g id="Layer_2" data-name="Layer 2"><g id="Layer_1-2" data-name="Layer 1"><rect class="cls-1" x="1.29" y="1.53" width="47" height="59.33" rx="4.23"/><path class="cls-2" d="M48.29,56.62a21.89,21.89,0,0,1-.27-3.8c-.09-2.42-.17-5.89-.25-10.06-.17-8.34-.31-19.49-.43-30.75,0-1.4,0-2.81-.05-4.22,0-.69,0-1.39,0-2.08a3.46,3.46,0,0,0-.43-1.51A3.19,3.19,0,0,0,44.3,2.63c-.21,0-.61,0-.94,0h-1l-2,0-14.76.12L9.81,2.88H6.22a4.43,4.43,0,0,0-1.74.19A2.92,2.92,0,0,0,3.05,4.23a2.69,2.69,0,0,0-.4,1l0,.27,0,.28c0,.27,0,.55,0,.82,0,2.24,0,4.74,0,7.44-.08,10.81-.19,24.91-.29,38.9l0,2.62v.65c0,.21,0,.46,0,.61a3.12,3.12,0,0,0,.2,1,3.34,3.34,0,0,0,1.23,1.6A3.48,3.48,0,0,0,5.59,60l10.06.1,17.78.23,7.08.13,3,.06a6.34,6.34,0,0,0,1.25,0,3.27,3.27,0,0,0,1.06-.31A4.18,4.18,0,0,0,48,57.8c.25-.74.25-1.18.31-1.18a2.32,2.32,0,0,1,0,1.26A4.28,4.28,0,0,1,46,60.67a3.79,3.79,0,0,1-1.2.42,6.82,6.82,0,0,1-1.35.1l-3,.07-7.08.12-17.78.23-10.06.11a5.76,5.76,0,0,1-1.53-.21,5.34,5.34,0,0,1-1.41-.66A5.17,5.17,0,0,1,.72,58.43a4.57,4.57,0,0,1-.33-1.55c0-.29,0-.47,0-.7v-.65l0-2.62C.23,38.92.13,24.82.05,14c0-2.7,0-5.2,0-7.44V5.74c0-.18,0-.35,0-.53S.07,4.87.1,4.7A5.39,5.39,0,0,1,.83,2.85,5.56,5.56,0,0,1,3.51.59,5.81,5.81,0,0,1,5,.22c.55,0,.84,0,1.19,0H9.81L25.57.29,40.33.41l2,0h1a11,11,0,0,1,1.11,0,5.29,5.29,0,0,1,4.84,5.2c0,.71,0,1.41,0,2.12,0,1.41,0,2.82,0,4.22-.13,11.26-.27,22.41-.43,30.75-.08,4.17-.17,7.64-.26,10.06A20.69,20.69,0,0,1,48.29,56.62Z"/><path class="cls-2" d="M33.16,0a.68.68,0,0,0-.68.69V12h-.57A1.69,1.69,0,0,0,30.4,13l-1.07,2.19a3.06,3.06,0,0,0-2.54,3V44.61h-.38a1.76,1.76,0,0,0-1.76,1.76v.87A1.77,1.77,0,0,0,26.41,49H29.1v5.29c0,.38.3-2.51.68-2.51s.69,2.89.69,2.51V49h5.25v7.12H30.47V54.28c0-.37-.31-2.51-.69-2.51s-.68,2.14-.68,2.51v1.84h-.55a1.76,1.76,0,0,0-1.76,1.76v.86a1.76,1.76,0,0,0,1.76,1.76h6c.37,0-.69-.31-.69-.68s1.06-.69.69-.69h-6a.38.38,0,0,1-.39-.39v-.86a.38.38,0,0,1,.39-.39h9.09a.38.38,0,0,1,.39.39v.86a.38.38,0,0,1-.39.39H34.51a.69.69,0,1,0,0,1.37h3.13a1.76,1.76,0,0,0,1.76-1.76v-.86a1.76,1.76,0,0,0-1.76-1.76h-.55V49h2.69a1.76,1.76,0,0,0,1.76-1.76v-.87a1.76,1.76,0,0,0-1.76-1.76H39.4V18.19a3.06,3.06,0,0,0-2.63-3L35.71,13A1.69,1.69,0,0,0,34.2,12h-.35V.69A.69.69,0,0,0,33.16,0Zm7,46.37v.87a.4.4,0,0,1-.39.39H26.41a.4.4,0,0,1-.39-.39v-.87a.4.4,0,0,1,.39-.39H39.78A.4.4,0,0,1,40.17,46.37ZM38,44.61H28.16V43H38Zm0-26.42V41.6H28.16V39.37h1.71a.68.68,0,0,0,.69-.68.7.7,0,0,0-.69-.69H28.16V35.69h1.71a.68.68,0,0,0,.69-.68.69.69,0,0,0-.69-.69H28.16V32h1.71a.68.68,0,0,0,.69-.68.69.69,0,0,0-.69-.69H28.16V28.33h1.71a.69.69,0,1,0,0-1.37H28.16V24.65h1.71a.69.69,0,1,0,0-1.37H28.16V21h1.71a.69.69,0,0,0,.69-.69.68.68,0,0,0-.69-.68H28.16V18.19a1.7,1.7,0,0,1,1.7-1.7h6.47A1.7,1.7,0,0,1,38,18.19Zm-3.55-4.61.75,1.54H30.88l.75-1.54a.32.32,0,0,1,.28-.17H34.2A.32.32,0,0,1,34.48,13.58Z"/></g></g></svg>