<svg xmlns="http://www.w3.org/2000/svg" viewBox="0 0 63.66 64.53"><defs><style>.cls-1{fill:#325179;}.cls-2{fill:#f1f3f3;stroke:#325179;stroke-miterlimit:10;stroke-width:0.25px;}.cls-3{fill:#fff;}</style></defs><title>Asset 1</title><g id="Layer_2" data-name="Layer 2"><g id="Layer_1-2" data-name="Layer 1"><rect class="cls-1" y="22.7" width="63.66" height="41.83" rx="4.19"/><path class="cls-1" d="M60.45,22.38c1.77,1.48,1.33,2.71-1,2.74l-55.28.65c-2.3,0-2.76-1.18-1-2.69L28.66,1.14A5.11,5.11,0,0,1,35,1.1Z"/><path class="cls-2" d="M55.9,30s1.45-1.24,3.22-2.72l1.33-1.11c1.77-1.48,1.47-2.7-.67-2.7a4.05,4.05,0,0,1-3.88-4.19V9.13a4.2,4.2,0,0,0-4.19-4.19H12A4.2,4.2,0,0,0,7.82,9.13V19.26a4.07,4.07,0,0,1-3.91,4.19c-2.15,0-2.46,1.22-.7,2.7l1.4,1.16L11,32.69,28.62,47.43a5.2,5.2,0,0,0,6.42,0L52.63,32.69C54.4,31.21,55.86,30,55.87,30S55.9,30,55.9,30Z"/><rect class="cls-3" x="13.14" y="12.89" width="36.06" height="2.68"/><rect class="cls-3" x="13.14" y="21.36" width="36.06" height="2.68"/><rect class="cls-3" x="13.14" y="29.41" width="36.06" height="2.68"/></g></g></svg>