<svg xmlns="http://www.w3.org/2000/svg" viewBox="0 0 76 76"><defs><style>.cls-1{fill:#a1b5c8;}.cls-2{fill:#325179;}.cls-3{fill:#dc3d45;}</style></defs><title>a</title><g id="Layer_2" data-name="Layer 2"><g id="Layer_1-2" data-name="Layer 1"><path class="cls-1" d="M24.52,74.77C24.52,65,1.23,56.39,1.23,38S24.52,11,24.52,1.23H2.45C2.45,11,25.74,19.61,25.74,38S2.45,65,2.45,74.77Z"/><path class="cls-2" d="M16.41,61.29l-1.16-1.1C21.05,54.49,27,47.49,27,38S21.05,21.51,15.25,15.81l1.16-1.1c5-4.73,9.33-8.82,9.33-13.48V0H23.29V1.23a6.19,6.19,0,0,1-.57,2.45H4.25a6.19,6.19,0,0,1-.57-2.45V0H1.23V1.23c0,4.66,4.32,8.75,9.32,13.48l1.17,1.1C5.91,21.51,0,28.51,0,38S5.91,54.49,11.72,60.19l-1.17,1.1c-5,4.73-9.32,8.82-9.32,13.48V76H3.68V74.77a6.19,6.19,0,0,1,.57-2.45H22.72a6.19,6.19,0,0,1,.57,2.45V76h2.45V74.77C25.74,70.11,21.42,66,16.41,61.29ZM7.35,51.62c-.61-.84-1.18-1.7-1.71-2.59H21.32a29,29,0,0,1-1.71,2.59v-.14H7.35ZM5.64,27c.53-.89,1.1-1.75,1.71-2.59v.14H19.61v-.14A29,29,0,0,1,21.32,27H18.39v2.45h4.23a22.49,22.49,0,0,1,.93,2.45H3.42a22.49,22.49,0,0,1,.93-2.45H15.94V27Zm18.54,7.35a21.85,21.85,0,0,1,.28,2.45h-22a19.74,19.74,0,0,1,.28-2.45ZM2.79,41.68a19.74,19.74,0,0,1-.28-2.45h22a21.85,21.85,0,0,1-.28,2.45H9.81v2.45H23.54a20.55,20.55,0,0,1-.92,2.45H4.35a22.49,22.49,0,0,1-.93-2.45H7.35V41.68ZM5.71,6.13H21.26a27.82,27.82,0,0,1-2.1,2.45H7.81A27.82,27.82,0,0,1,5.71,6.13Zm6.53,6.8-2-1.9h6.47l-2,1.9-1.25,1.18C13.06,13.71,12.65,13.31,12.24,12.93Zm1.24,4.58c1.49,1.45,2.95,3,4.31,4.55H9.18C10.53,20.47,12,19,13.48,17.51ZM9.18,53.94h8.61C16.43,55.53,15,57,13.48,58.49,12,57,10.53,55.53,9.18,53.94Zm3.06,9.13c.41-.38.82-.78,1.24-1.18l1.25,1.18,2,1.9H10.25Zm-6.53,6.8a27.82,27.82,0,0,1,2.1-2.45H19.16a27.82,27.82,0,0,1,2.1,2.45Z"/><path class="cls-2" d="M69.87,66.19h-2a35.49,35.49,0,0,0-7-43.21l3.33-3.33L61.81,17.2l5.27-5.27L65.34,10.2l-5.26,5.26L56.9,12.29,62.18,7,60.45,5.29l-5.28,5.26L52.73,8.11l-18,18,1.73,1.73,16.3-16.29,8.07,8.07L44.5,35.94l1.74,1.74L54,29.93A26,26,0,0,1,61.46,41.8a4.89,4.89,0,0,0,.94,9.67,26.14,26.14,0,0,1-.48,3.05,8.52,8.52,0,0,0-3.08-.58H40.45a6.13,6.13,0,0,0-6.13,6.12v1.23h16a8.28,8.28,0,0,0-.1,1.23v3.67H33.1A6.14,6.14,0,0,0,27,72.32V76H76V72.32A6.14,6.14,0,0,0,69.87,66.19ZM60.06,46.58A2.46,2.46,0,1,1,62.52,49,2.46,2.46,0,0,1,60.06,46.58Zm4.84,4.26A4.86,4.86,0,0,0,64,42,28.26,28.26,0,0,0,55.72,28.2l3.48-3.49a33.11,33.11,0,0,1,8.18,36.94,8.61,8.61,0,0,0-3.24-5.87A28.21,28.21,0,0,0,64.9,50.84ZM37,58.84a3.68,3.68,0,0,1,3.47-2.45H52.84a8.53,8.53,0,0,0-1.74,2.45ZM73.55,73.55H29.42V72.32a3.68,3.68,0,0,1,3.68-3.67H55.16V66.19H52.71V62.52a6.13,6.13,0,1,1,12.26,0v3.67H57.61v2.46H69.87a3.68,3.68,0,0,1,3.68,3.67Z"/><path class="cls-3" d="M44.14,44.16a1.24,1.24,0,0,1-.86-.35L28.57,29.1a1.23,1.23,0,0,1,0-1.74l3.68-3.67a1.22,1.22,0,0,1,1.73,0l14.71,14.7a1.23,1.23,0,0,1,0,1.74L45,43.81A1.21,1.21,0,0,1,44.14,44.16Z"/><path class="cls-3" d="M67.44,13.52a1.23,1.23,0,0,1-.87-.36L59.21,5.81a1.23,1.23,0,0,1,0-1.73L62.87.37A1.19,1.19,0,0,1,63.74,0h0a1.23,1.23,0,0,1,.87.36L72,7.73a1.23,1.23,0,0,1,0,1.73l-3.66,3.7a1.23,1.23,0,0,1-.87.36Z"/></g></g></svg>