<svg xmlns="http://www.w3.org/2000/svg" viewBox="0 0 49.31 61.54"><defs><style>.cls-1{fill:#f1f3f3;}.cls-2{fill:#325179;}.cls-3{fill:none;stroke:#a1b5c8;stroke-linecap:round;stroke-linejoin:round;stroke-width:3px;}.cls-4{fill:#a1b5c8;}</style></defs><title>Asset 17</title><g id="Layer_2" data-name="Layer 2"><g id="Layer_1-2" data-name="Layer 1"><rect class="cls-1" x="1.29" y="1.35" width="47" height="59.33" rx="4.23"/><path class="cls-2" d="M48.29,56.44a21.89,21.89,0,0,1-.27-3.8c-.09-2.42-.17-5.89-.25-10.06-.17-8.34-.31-19.49-.43-30.75,0-1.4,0-2.81-.05-4.22,0-.69,0-1.39,0-2.08A3.46,3.46,0,0,0,46.84,4,3.19,3.19,0,0,0,44.3,2.45c-.21,0-.61,0-.94,0h-1l-2,0-14.76.12L9.81,2.7H6.22a4.43,4.43,0,0,0-1.74.19A2.92,2.92,0,0,0,3.05,4.05a2.77,2.77,0,0,0-.4,1l0,.27,0,.28c0,.27,0,.55,0,.82,0,2.24,0,4.74,0,7.44-.08,10.81-.19,24.91-.29,38.9l0,2.62V56c0,.21,0,.46,0,.61a3.12,3.12,0,0,0,.2,1,3.34,3.34,0,0,0,1.23,1.6,3.48,3.48,0,0,0,1.94.61l10.06.1,17.78.23,7.08.13,3,.06a6.34,6.34,0,0,0,1.25,0,3.53,3.53,0,0,0,1.06-.3A4.2,4.2,0,0,0,48,57.62c.25-.74.25-1.18.31-1.18a2.32,2.32,0,0,1,0,1.26A4.28,4.28,0,0,1,46,60.49a3.79,3.79,0,0,1-1.2.42,6.82,6.82,0,0,1-1.35.1l-3,.07-7.08.12-17.78.23-10.06.11a5.76,5.76,0,0,1-1.53-.21,5.34,5.34,0,0,1-1.41-.66A5.17,5.17,0,0,1,.72,58.25,4.57,4.57,0,0,1,.39,56.7c0-.29,0-.47,0-.7v-.65l0-2.62c-.11-14-.21-28.09-.29-38.9,0-2.7,0-5.2,0-7.44V5.56C0,5.38,0,5.21,0,5s.05-.34.08-.51A5.39,5.39,0,0,1,.83,2.67,5.56,5.56,0,0,1,3.51.41,5.41,5.41,0,0,1,5,.05c.55,0,.84,0,1.19,0H9.81L25.57.11,40.33.23l2,0h1c.36,0,.64,0,1.11,0A5.32,5.32,0,0,1,48.65,3a5.26,5.26,0,0,1,.66,2.49c0,.71,0,1.42,0,2.12,0,1.41,0,2.82,0,4.22-.13,11.26-.27,22.41-.43,30.75-.08,4.17-.17,7.64-.26,10.06A20.69,20.69,0,0,1,48.29,56.44Z"/><polyline class="cls-3" points="38.7 20.56 27.54 20.56 24.57 12.6 22.11 28.14 18.7 20.56 12.25 20.56"/><rect class="cls-4" x="11.57" y="32.03" width="27.81" height="2.3"/><rect class="cls-4" x="11.57" y="36.45" width="27.81" height="2.3"/><rect class="cls-4" x="11.57" y="40.87" width="27.81" height="2.3"/><rect class="cls-4" x="11.57" y="45.3" width="27.81" height="2.3"/><rect class="cls-4" x="11.57" y="49.72" width="27.81" height="2.3"/></g></g></svg>