<svg xmlns="http://www.w3.org/2000/svg" viewBox="0 0 76.31 84.33"><defs><style>.cls-1{fill:#f1f3f3;}.cls-2{fill:#325179;}</style></defs><title>Asset 7</title><g id="Layer_2" data-name="Layer 2"><g id="Layer_1-2" data-name="Layer 1"><path class="cls-1" d="M41.6,77.73c8.87,6.86,24.75,8.72,34.05,2.45a37.76,37.76,0,0,1-10.83-21c-1.56-10,.94-20.07,1-30.14S62.57,7.59,53.51,3.18A27,27,0,0,0,43.19.91a61.25,61.25,0,0,0-12.62.59c-4.22.63-8.76,2.72-10.29,6.7C13.65,6.3,6.62,11.31,3.83,17.62S1.4,31.12,1.81,38l.88,14.39C3.25,61.75,4,71.62.5,80.33,4.33,82.81,9.27,82.79,13.76,82a56.39,56.39,0,0,0,12.79-4.5"/><path class="cls-2" d="M26.55,77.51a6.23,6.23,0,0,1-1.14.62c-.76.38-1.89.9-3.35,1.52a52.24,52.24,0,0,1-5.39,1.94,29.34,29.34,0,0,1-7.37,1.2,19.93,19.93,0,0,1-4.3-.3,15.11,15.11,0,0,1-2.21-.6,11.37,11.37,0,0,1-1.09-.45l-.54-.26L1,81.11.85,81l-.36-.21-.36-.21-.09,0,0,0,0,0,.07-.2c.1-.26.19-.53.29-.79s.27-.74.38-1.12c.23-.76.47-1.52.65-2.31s.34-1.6.51-2.41c.07-.41.12-.82.19-1.23s.12-.83.16-1.25c.79-6.74.12-14-.34-21.36-.24-3.66-.48-7.33-.72-11A97.44,97.44,0,0,1,.89,28.05,30.49,30.49,0,0,1,2.88,18,18.38,18.38,0,0,1,8.5,10.38a15.63,15.63,0,0,1,3.68-2.25A12.89,12.89,0,0,1,16,7.08L16.49,7H17l.92,0,.88.09.43,0,.42.09.18,0h0a.48.48,0,0,0,.05-.12L20,6.88c.06-.12.13-.23.19-.34a5.75,5.75,0,0,1,.42-.63A9.87,9.87,0,0,1,22.4,4c.3-.26.6-.46.87-.67s.55-.36.8-.5a14.82,14.82,0,0,1,2-1,18.14,18.14,0,0,1,2.37-.77A20.22,20.22,0,0,1,30.75.62c.88-.12,1.87-.24,3-.35A64.08,64.08,0,0,1,41.49,0c1.48.05,3,.14,4.69.34a26.64,26.64,0,0,1,5.1,1.09,17.91,17.91,0,0,1,2.6,1A20.15,20.15,0,0,1,56.37,4a10.11,10.11,0,0,1,1.17.9c.37.34.77.65,1.13,1l1,1.11c.34.38.64.8,1,1.2a26.51,26.51,0,0,1,3.11,5.48,34.94,34.94,0,0,1,1.87,6.22,40.46,40.46,0,0,1,.81,6.62,63.93,63.93,0,0,1-.13,6.78c-.3,4.53-.91,9.07-1.23,13.59a52.52,52.52,0,0,0,.47,13.4,37.74,37.74,0,0,0,8.12,17.1c.32.39.67.75,1,1.13l.51.55.77.78.19.2.1.1s.09.07,0,.09l-.47.3-.47.29L75.1,81l-.21.13c-.44.24-.87.49-1.33.69a23.21,23.21,0,0,1-5.43,1.84,29.4,29.4,0,0,1-5.31.63,36,36,0,0,1-9.24-.93,33,33,0,0,1-3.71-1.09,28.9,28.9,0,0,1-3-1.25,25.72,25.72,0,0,1-4-2.3c-.43-.3-.75-.56-1-.73s-.31-.27-.3-.28a1.62,1.62,0,0,1,.36.21c.22.15.55.38,1,.66a30.72,30.72,0,0,0,4,2.13,30.21,30.21,0,0,0,3,1.16,35,35,0,0,0,3.69,1,36,36,0,0,0,9.11.76A28.82,28.82,0,0,0,68,83a22.9,22.9,0,0,0,5.24-1.84c.43-.2.84-.45,1.26-.69l.11-.06.08-.05.16-.11.15-.1s0,0,0,0l0,0L74.86,80l-.28-.28c-.18-.18-.36-.36-.53-.56-.34-.38-.7-.74-1-1.14a38.83,38.83,0,0,1-3.71-5.13,38.13,38.13,0,0,1-4.79-12.33,52.68,52.68,0,0,1-.61-13.69c.28-4.57.85-9.11,1.11-13.59a61.29,61.29,0,0,0,.08-6.63,38.49,38.49,0,0,0-.82-6.4,34,34,0,0,0-1.84-6,24.69,24.69,0,0,0-3-5.14c-.3-.37-.58-.76-.9-1.11l-1-1c-.33-.33-.7-.62-1-.92a9.5,9.5,0,0,0-1.09-.83A19.67,19.67,0,0,0,53.2,3.89a18.56,18.56,0,0,0-2.39-1A26.65,26.65,0,0,0,46,2c-1.58-.18-3.1-.26-4.54-.3a62,62,0,0,0-7.57.28c-1.07.1-2,.23-2.89.35a21.08,21.08,0,0,0-2.16.43,16.61,16.61,0,0,0-2.15.71,14.28,14.28,0,0,0-1.76.85l-.7.44c-.23.18-.5.35-.75.57a8.11,8.11,0,0,0-1.53,1.6c-.11.17-.24.33-.34.51l-.16.28a2.81,2.81,0,0,0-.19.39l-.27.6L20.84,9l-.07.15s0,0-.07,0l-.09,0-1.32-.3-.36-.08-.37,0-.76-.08c-.25,0-.52,0-.79,0h-.4l-.41.06a11.48,11.48,0,0,0-3.38.9,14.33,14.33,0,0,0-3.34,2,17,17,0,0,0-5.22,6.92,28.84,28.84,0,0,0-2,9.6,97.49,97.49,0,0,0,.21,10.62c.21,3.63.41,7.3.61,11s.44,7.32.53,10.93a68.71,68.71,0,0,1-.44,10.61c0,.43-.11.86-.18,1.28l-.21,1.26c-.18.83-.33,1.65-.56,2.45s-.45,1.59-.69,2.37c-.12.38-.28.76-.42,1.13L1,80.06c-.1.11.09.15.17.22l.14.09.08,0,.12.06.49.26c.34.16.68.31,1,.44a14.19,14.19,0,0,0,2.09.6,19,19,0,0,0,4.14.36,36.45,36.45,0,0,0,12.64-2.8c1.48-.56,2.62-1,3.4-1.36A10.05,10.05,0,0,1,26.55,77.51Z"/><path class="cls-1" d="M60.91,40.14c.83,9.35-.76,19.2-6.1,26.92S40,79.93,30.68,78.56C22.5,77.35,15.56,71.32,11.8,64S7.12,48.08,7.58,39.83c5.6-.36,10.6-5.53,12.27-10.89a10.74,10.74,0,0,0,3.52,4.29C33.7,41.7,47.84,42.9,60.91,40.14Z"/><path class="cls-2" d="M60.91,40.14a4.15,4.15,0,0,1-1,.3l-1.25.29L56.91,41a54,54,0,0,1-10.57.74A42.68,42.68,0,0,1,32.06,39,36.85,36.85,0,0,1,25,35.2a38.35,38.35,0,0,1-3.19-2.52,11.49,11.49,0,0,1-1.42-1.53l-.24-.32-.07-.09a1.51,1.51,0,0,1-.09-.18s0,0,0,0l0,.07c0,.05,0,.1-.05.15l0,.07-.1.23c-.09.23-.21.44-.32.66a17.74,17.74,0,0,1-1.51,2.49,17.62,17.62,0,0,1-3.95,4,13.16,13.16,0,0,1-4.76,2.16,3.39,3.39,0,0,1-.62.12l-.21,0h0v0h0v.11c0,.73,0,1.43-.05,2.11A54.81,54.81,0,0,0,9,52.39,41.88,41.88,0,0,0,10,57a36,36,0,0,0,1.53,4.46,30.59,30.59,0,0,0,2.8,5.23,28.64,28.64,0,0,0,4.48,5.24,25.62,25.62,0,0,0,6.3,4.25,20.89,20.89,0,0,0,7.79,1.94,22.1,22.1,0,0,0,8.19-1.22A27.12,27.12,0,0,0,48.42,73a28.79,28.79,0,0,0,5.67-5.74,31,31,0,0,0,3.71-6.59,38.83,38.83,0,0,0,2.05-6.48A48.89,48.89,0,0,0,60.93,44c0-1.23,0-2.2,0-2.86a4.29,4.29,0,0,1,0-1,6.07,6.07,0,0,1,.16,1c.08.66.15,1.63.21,2.87a45.61,45.61,0,0,1-.79,10.27A37.85,37.85,0,0,1,58.55,61a32.18,32.18,0,0,1-3.69,6.84,29.19,29.19,0,0,1-5.79,6,28.15,28.15,0,0,1-7.6,4.2,23.34,23.34,0,0,1-8.64,1.38,22.06,22.06,0,0,1-8.32-2A27,27,0,0,1,17.8,73,30.47,30.47,0,0,1,13,67.54a32.24,32.24,0,0,1-3-5.47,37.78,37.78,0,0,1-1.64-4.64,45.35,45.35,0,0,1-1.07-4.77,55.1,55.1,0,0,1-.64-9.88c0-.7,0-1.42.08-2.16,0-.33,0-.65,0-1v-.51h0l.54-.06L8.34,39a4.94,4.94,0,0,0,.53-.1A11.7,11.7,0,0,0,13.1,37a16.1,16.1,0,0,0,3.66-3.58,16.42,16.42,0,0,0,1.43-2.27c.1-.21.22-.4.31-.61l.18-.42c.09-.2.17-.39.25-.61l.45-1.25.22-.62a3.56,3.56,0,0,1,.21-.55l.4,1c.14.33.27.68.41,1l.21.44c.07.15.16.26.23.39l.12.19a.49.49,0,0,1,.07.11l.14.19a11.64,11.64,0,0,0,1.26,1.39,34.67,34.67,0,0,0,3,2.45A35.56,35.56,0,0,0,32.46,38,42.78,42.78,0,0,0,46.38,41a59,59,0,0,0,10.47-.38l1.71-.21,1.27-.19A5,5,0,0,1,60.91,40.14Z"/><path class="cls-2" d="M23.13,47.92c-.08.09-.3.06-.58,0s-.66-.17-1-.22a7,7,0,0,0-1.5-.12,6.73,6.73,0,0,0-1.83-.12,7.41,7.41,0,0,0-1.27.19c-.35.07-.61.12-.68,0s.07-.33.38-.61a4.23,4.23,0,0,1,1.29-.77,6.1,6.1,0,0,1,2.29-.4,6,6,0,0,1,.62.16,5.8,5.8,0,0,1,1.15.53,4,4,0,0,1,.93.79C23.11,47.62,23.2,47.83,23.13,47.92Z"/><path class="cls-2" d="M52.16,47.92c-.08.09-.3.06-.58,0s-.66-.17-1-.22a7,7,0,0,0-1.5-.12,6.73,6.73,0,0,0-1.83-.12,7.41,7.41,0,0,0-1.27.19c-.35.07-.61.12-.68,0s.07-.33.38-.61A4.23,4.23,0,0,1,47,46.27a6.1,6.1,0,0,1,2.29-.4,6,6,0,0,1,.62.16,5.8,5.8,0,0,1,1.15.53,4,4,0,0,1,.93.79C52.14,47.62,52.23,47.83,52.16,47.92Z"/><path class="cls-2" d="M39.6,66.32c0,.07-.23.27-.66.53a7.49,7.49,0,0,1-1.71.69,10.26,10.26,0,0,1-1.87.33c-.54,0-.91,0-1,0A10.82,10.82,0,0,1,31,67a8.44,8.44,0,0,1-1.94-1.23c-.47-.4-.73-.73-.68-.78s.4.15.93.42a11.33,11.33,0,0,0,2,.84,11.44,11.44,0,0,0,3.16.54l.87.06a11.91,11.91,0,0,0,1.74-.07,14.63,14.63,0,0,0,1.71-.32C39.24,66.32,39.56,66.25,39.6,66.32Z"/></g></g></svg>