<svg xmlns="http://www.w3.org/2000/svg" viewBox="0 0 54.7 83.6"><defs><style>.cls-1{fill:#335179;}</style></defs><title>Kan Sekeri</title><g id="Layer_2" data-name="Layer 2"><g id="Layer_1-2" data-name="Layer 1"><path class="cls-1" d="M27.35,5.63A15.69,15.69,0,0,0,11.68,21.31v6.33a5.08,5.08,0,0,0,5.08,5.08H37.94A5.09,5.09,0,0,0,43,27.64V21.31A15.7,15.7,0,0,0,27.35,5.63Zm13.23,22a2.64,2.64,0,0,1-2.64,2.63H16.76a2.64,2.64,0,0,1-2.64-2.63V21.31a13.23,13.23,0,1,1,26.46,0Z"/><path class="cls-1" d="M8.57,38.72a3.41,3.41,0,0,0-3.41,3.41V44a3.41,3.41,0,0,0,3.41,3.41h3.7A3.42,3.42,0,0,0,15.69,44V42.13a3.42,3.42,0,0,0-3.42-3.41Zm4.67,3.41V44a1,1,0,0,1-1,1H8.57a1,1,0,0,1-1-1V42.13a1,1,0,0,1,1-1h3.7A1,1,0,0,1,13.24,42.13Z"/><path class="cls-1" d="M24,38.72a3.41,3.41,0,0,0-3.41,3.41V44A3.41,3.41,0,0,0,24,47.43h6.8A3.41,3.41,0,0,0,34.16,44V42.13a3.41,3.41,0,0,0-3.41-3.41Zm7.76,3.41V44a1,1,0,0,1-1,1H24a1,1,0,0,1-1-1V42.13a1,1,0,0,1,1-1h6.8A1,1,0,0,1,31.71,42.13Z"/><path class="cls-1" d="M39,42.13V44a3.42,3.42,0,0,0,3.42,3.41h3.7A3.42,3.42,0,0,0,49.55,44V42.13a3.42,3.42,0,0,0-3.42-3.41h-3.7A3.42,3.42,0,0,0,39,42.13Zm8.09,0V44a1,1,0,0,1-1,1h-3.7a1,1,0,0,1-1-1V42.13a1,1,0,0,1,1-1h3.7A1,1,0,0,1,47.1,42.13Z"/><path class="cls-1" d="M41,0H38.62a1.23,1.23,0,1,0,0,2.45H41A11.24,11.24,0,0,1,52.25,13.68V53.81a5.51,5.51,0,0,1-5.51,5.51H34.16V53.86h1.46a1.23,1.23,0,0,0,0-2.45H19.08a1.23,1.23,0,0,0,0,2.45h1.46v5.46H8a5.51,5.51,0,0,1-5.51-5.51V13.68A11.24,11.24,0,0,1,13.67,2.45H31.6A1.23,1.23,0,1,0,31.6,0H13.67A13.68,13.68,0,0,0,0,13.68V53.81a8,8,0,0,0,8,8H20.54v.55a1.23,1.23,0,1,0,2.45,0V53.86h8.72V69.15H23v-1a1.23,1.23,0,1,0-2.45,0V82.38a1.22,1.22,0,0,0,1.22,1.22H32.94a1.22,1.22,0,0,0,1.22-1.22V61.77H46.74a8,8,0,0,0,8-8V13.68A13.68,13.68,0,0,0,41,0ZM23,81.15V71.6h8.72v9.55Z"/><path class="cls-1" d="M29.2,76.58a1.85,1.85,0,1,1-1.85-1.85A1.85,1.85,0,0,1,29.2,76.58Z"/><path class="cls-1" d="M23.32,15.38H18.85a1.22,1.22,0,0,0-1.22,1.22v8.92a1.23,1.23,0,0,0,1.22,1.23h4.47a1.23,1.23,0,0,0,1.22-1.23V16.6A1.22,1.22,0,0,0,23.32,15.38Zm-1.23,2.45v2h-2v-2Zm-2,6.47v-2h2v2Z"/><path class="cls-1" d="M31.38,15.38a1.22,1.22,0,0,0-1.22,1.22v8.92a1.23,1.23,0,0,0,1.22,1.23h4.47a1.23,1.23,0,0,0,1.22-1.23V21.06a1.23,1.23,0,0,0-1.22-1.23H32.61v-2h3.24a1.23,1.23,0,0,0,0-2.45Zm1.23,8.92v-2h2v2Z"/><path class="cls-1" d="M27.05,24.52l-.9,1.79a1.23,1.23,0,1,0,2.19,1.1l.9-1.8a1.22,1.22,0,1,0-2.19-1.09Z"/></g></g></svg>