<svg xmlns="http://www.w3.org/2000/svg" viewBox="0 0 59.86 92.01"><defs><style>.cls-1{fill:#f1f3f3;}.cls-2{fill:#325179;}</style></defs><title>Asset 11</title><g id="Layer_2" data-name="Layer 2"><g id="Layer_1-2" data-name="Layer 1"><path class="cls-1" d="M47.15,92C27.3,77.75,11,56.61,2.88,33.91,1,28.78.46,23,2.41,17.91A34.61,34.61,0,0,1,7.1,10.09c1.37-1.88,5.31-7.74,7.51-5.81,1.35,1.19,1.61,9.59,2.13,11.65a93.53,93.53,0,0,0,9,22.57A93,93,0,0,0,58.66,72.82c-3.72,1.12-7.48,2-11.2,3.09.11,5.44-.12,10.65-.31,16.1"/><path class="cls-2" d="M47.15,92a5.19,5.19,0,0,1-.06-1.08c0-.7,0-1.73,0-3,0-2.62.11-6.37,0-10.86,0-.34,0-.69,0-1v-.31s0-.06,0-.07l.07,0,.14,0,.59-.18,1.77-.53c1.17-.34,2.39-.67,3.63-1l1.9-.53,1-.27.65-.19.45-.14.11,0s.12,0,0,0l-.22-.13-1.11-.67c-2.39-1.54-4.83-3.21-7.18-5.07s-4.69-3.84-6.9-6-4.33-4.35-6.3-6.66-3.83-4.66-5.5-7.05S27,42.33,25.64,40s-2.55-4.6-3.59-6.76a94.46,94.46,0,0,1-4.43-11c-.94-2.84-1.42-4.69-1.54-5.14,0-.11-.09-.33-.17-.66l-.07-.26c0-.09-.06-.23-.08-.35s-.09-.49-.12-.77c-.16-1.1-.28-2.56-.47-4.35-.1-.89-.21-1.86-.37-2.88-.08-.51-.18-1-.3-1.55q-.09-.39-.21-.75A2.49,2.49,0,0,0,14,5l0,0a.27.27,0,0,1-.08-.07.61.61,0,0,0-.17-.07.88.88,0,0,0-.45,0A4.12,4.12,0,0,0,12,5.65a19.54,19.54,0,0,0-2.7,3c-.44.57-.87,1.16-1.31,1.78L6.59,12.25a37.29,37.29,0,0,0-2.52,4,17.55,17.55,0,0,0-1.66,4.55,20.57,20.57,0,0,0-.41,5,26.17,26.17,0,0,0,.79,5.22c.21.87.49,1.73.78,2.58s.65,1.73,1,2.6c.62,1.75,1.39,3.45,2.11,5.18l.28.65.3.64L7.84,44c.41.85.79,1.71,1.22,2.55A128.93,128.93,0,0,0,20.62,65.24,128.83,128.83,0,0,0,33.14,79.72c4,4,7.52,7,10,9,1.26,1,2.29,1.8,3,2.36a6.56,6.56,0,0,1,1,.88A8.12,8.12,0,0,1,46,91.28c-.71-.5-1.78-1.22-3.08-2.21a123.52,123.52,0,0,1-10.32-8.82A126.81,126.81,0,0,1,19.78,65.88,127.32,127.32,0,0,1,7.87,47.12c-.44-.84-.84-1.71-1.26-2.56L6,43.28l-.31-.64L5.39,42c-.75-1.74-1.55-3.46-2.2-5.22l-1-2.63c-.31-.89-.61-1.79-.84-2.7A27.6,27.6,0,0,1,.44,25.9a22,22,0,0,1,.39-5.45,19.13,19.13,0,0,1,1.77-5,38.88,38.88,0,0,1,2.6-4.2L6.55,9.38c.44-.61.88-1.23,1.33-1.82a20.37,20.37,0,0,1,2.94-3.27,5.73,5.73,0,0,1,2-1.17,2.58,2.58,0,0,1,1.41,0,2.25,2.25,0,0,1,.67.3l.29.21c.09.1.21.22.28.31A4.18,4.18,0,0,1,16,5c.11.32.19.62.27.92.14.59.24,1.15.33,1.69.18,1.08.3,2.07.4,3,.21,1.8.35,3.26.49,4.29,0,.25.08.48.12.66a2,2,0,0,0,.06.26l.06.26c.09.31.14.53.17.64.12.44.58,2.25,1.47,5.05a95.4,95.4,0,0,0,4.26,10.8c1,2.12,2.13,4.37,3.45,6.67s2.79,4.66,4.4,7,3.43,4.7,5.33,7,4,4.51,6.12,6.64,4.42,4.11,6.71,6,4.68,3.56,7,5.12l2.46,1.56.65.42.08,0s0,0,0,0l0,0-.19,0-.39.11-1.5.44-1.3.36-1,.25-1.91.49-3.64.93-1.68.45-.25.07-.07,0s0,0,0,0V77c0,4.52-.22,8.27-.37,10.88-.07,1.31-.14,2.34-.2,3A4.73,4.73,0,0,1,47.15,92Z"/><path class="cls-1" d="M12.71,92C32.56,77.75,48.84,56.61,57,33.91c1.84-5.13,2.41-10.91.47-16a34.61,34.61,0,0,0-4.69-7.82c-1.38-1.88-5.32-7.74-7.51-5.81-1.35,1.19-1.61,9.59-2.13,11.65a93.55,93.55,0,0,1-9,22.57A92.86,92.86,0,0,1,1.2,72.82c3.71,1.12,7.48,2,11.2,3.09-.11,5.44.12,10.65.31,16.1"/><path class="cls-2" d="M12.71,92a5,5,0,0,1-.14-1.07c-.05-.7-.12-1.73-.2-3C12.23,85.29,12,81.54,12,77v-.8s0,0,0,0l-.06,0-.25-.07L10,75.64l-3.65-.93-1.91-.49-1-.25-1.3-.36L.64,73.17l-.38-.11L.07,73l0,0s0,0,0,0l.08,0,.66-.42L3.2,70.94c2.34-1.56,4.72-3.25,7-5.12s4.57-3.86,6.72-6,4.21-4.34,6.12-6.64,3.71-4.64,5.32-7,3.12-4.71,4.41-7,2.46-4.55,3.45-6.67a93.19,93.19,0,0,0,4.25-10.8c.9-2.8,1.36-4.61,1.47-5.05l.17-.64.07-.26a2,2,0,0,0,.06-.26c0-.18.08-.41.11-.66.15-1,.29-2.49.49-4.29.11-.9.23-1.89.4-3,.09-.54.2-1.1.34-1.69A9.36,9.36,0,0,1,43.86,5a3.86,3.86,0,0,1,.52-1,3.73,3.73,0,0,1,.28-.31l.28-.21a2.31,2.31,0,0,1,.68-.3,2.58,2.58,0,0,1,1.41,0,5.73,5.73,0,0,1,2,1.17A20.85,20.85,0,0,1,52,7.56c.45.59.89,1.21,1.33,1.82l1.34,1.89a37.41,37.41,0,0,1,2.61,4.2,19.51,19.51,0,0,1,1.77,5,22,22,0,0,1,.39,5.45,27.6,27.6,0,0,1-.89,5.53c-.23.91-.53,1.81-.84,2.7l-1,2.63c-.65,1.76-1.45,3.48-2.2,5.22l-.29.66-.31.64-.62,1.28c-.42.85-.82,1.72-1.26,2.56A128.15,128.15,0,0,1,40.08,65.88,127.78,127.78,0,0,1,27.24,80.25a125.17,125.17,0,0,1-10.32,8.82c-1.3,1-2.37,1.71-3.08,2.21a8.12,8.12,0,0,1-1.13.73,6.11,6.11,0,0,1,1-.88c.68-.56,1.7-1.33,3-2.36,2.52-2.08,6.07-5.1,10-9A128.81,128.81,0,0,0,39.23,65.24,128.11,128.11,0,0,0,50.8,46.52c.43-.84.81-1.7,1.22-2.55l.6-1.27.3-.64.27-.65c.72-1.73,1.5-3.43,2.12-5.18l1-2.6c.29-.85.56-1.71.78-2.58a26.14,26.14,0,0,0,.78-5.22,20.57,20.57,0,0,0-.4-5,17.92,17.92,0,0,0-1.66-4.55,35.84,35.84,0,0,0-2.53-4c-.45-.63-.91-1.25-1.35-1.86S51,9.18,50.6,8.61a19.54,19.54,0,0,0-2.7-3,4.12,4.12,0,0,0-1.35-.81.92.92,0,0,0-.46,0,.71.71,0,0,0-.16.07L45.85,5s0,0,0,0a2.15,2.15,0,0,0-.25.56q-.12.36-.21.75c-.13.52-.22,1-.3,1.55-.16,1-.27,2-.37,2.88-.19,1.79-.32,3.25-.47,4.35,0,.28-.08.53-.12.77s-.06.26-.08.35l-.07.26c-.08.33-.14.55-.17.66-.12.45-.6,2.3-1.54,5.14a93,93,0,0,1-4.44,11c-1,2.16-2.22,4.43-3.59,6.76s-2.89,4.71-4.55,7.09-3.54,4.74-5.5,7.05-4.1,4.53-6.3,6.66-4.54,4.11-6.9,6-4.79,3.53-7.19,5.07l-1.1.67-.22.13c-.07,0,0,0,0,0l.12,0,.45.14.65.19,1,.27,1.89.53c1.25.34,2.47.67,3.64,1l1.77.53.58.18.15,0,.07,0s0,0,0,.07V76l0,1c-.11,4.49,0,8.24,0,10.86,0,1.31,0,2.34,0,3A5.19,5.19,0,0,1,12.71,92Z"/><path class="cls-1" d="M41.23,18.59a71.75,71.75,0,0,0-22.66,0A64.05,64.05,0,0,1,16.26,3C26.6.34,33.31,0,43.55,3A63.59,63.59,0,0,1,41.23,18.59Z"/><path class="cls-2" d="M41.23,18.59c-.13,0,.37-2.19.88-5.47.26-1.64.5-3.56.66-5.63.07-1,.12-2.11.14-3.2V3.44h0l-.07,0-.14,0-.41-.11-.8-.2A51.29,51.29,0,0,0,35,1.92a39.83,39.83,0,0,0-5.77-.18c-.85,0-1.64.12-2.35.17L25,2.14l-1.91.31c-.16,0-1,.15-2.21.4-.63.11-1.37.28-2.21.46l-1.34.31-.14,0h0s0,0,0,0v.7c0,.26,0,.54,0,.81,0,.56.06,1.13.1,1.72.09,1.17.22,2.4.39,3.67s.4,2.57.66,3.89c.13.65.27,1.32.41,2l.33,1.41h.22l.24,0,1.07-.11c.71-.08,1.41-.14,2.12-.2,1.4-.12,2.79-.19,4.13-.23a68.31,68.31,0,0,1,7.33.16,44.39,44.39,0,0,1,5.14.68,6.93,6.93,0,0,1,1.9.5c0,.16-2.83-.33-7.08-.44-2.12,0-4.6,0-7.24.16-1.32.1-2.68.22-4.07.38-.69.08-1.38.16-2.08.26l-2.69.39-.69-2.58q-.25-1-.48-2c-.3-1.34-.56-2.66-.77-4s-.38-2.55-.5-3.76c-.06-.6-.11-1.19-.14-1.76,0-.29,0-.57-.05-.85l0-.41c0-.22,0-.44,0-.66s0-.45,0-.68V2.34c0-.07.06-.06.11-.08l.18,0,1.26-.32,1.35-.34c.85-.2,1.61-.38,2.25-.51C21.8.75,22.62.63,22.79.59s.87-.14,2-.28C25.32.24,26,.19,26.72.12S28.29,0,29.18,0a38.06,38.06,0,0,1,6,.36,49.14,49.14,0,0,1,6.59,1.42l1.89.56.34.1.16,0s0,.12,0,.17l0,.7,0,.56,0,.42c-.06,1.11-.16,2.2-.29,3.25-.26,2.1-.62,4-1,5.67A23.29,23.29,0,0,1,41.23,18.59Z"/></g></g></svg>