<svg xmlns="http://www.w3.org/2000/svg" viewBox="0 0 72.94 82"><defs><style>.cls-1{fill:#325179;}</style></defs><title>KronikHastalıklar</title><g id="Layer_2" data-name="Layer 2"><g id="Layer_1-2" data-name="Layer 1"><path class="cls-1" d="M63.5,40.41V37.92a26.49,26.49,0,0,0-1.29-8.21L71.8,22a3,3,0,0,0-1.9-5.4H65.77L72.12,5.38a3.55,3.55,0,0,0,0-3.59A3.56,3.56,0,0,0,69,0H57.25A3.62,3.62,0,0,0,54,2h0L48.28,13.79A26.75,26.75,0,0,0,19.4,17.63a1.22,1.22,0,0,0,.79,2.14,1.18,1.18,0,0,0,.79-.3A24.3,24.3,0,0,1,47.21,16l-2,4.18a3,3,0,0,0,2.69,4.31h3.9l-3.56,9.44a2.94,2.94,0,0,0,1,3.45,2.93,2.93,0,0,0,3.6-.1l7.33-5.9a24.48,24.48,0,0,1,.89,6.56v2.53c-8.34-.11-19.83-1.28-29.5-6-6-2.94-8.54-5.92-8.56-5.94a1.22,1.22,0,0,0-2.16.77,10.34,10.34,0,0,1-3,6.61,16.94,16.94,0,0,1-5.38,4v-2a24.07,24.07,0,0,1,5-14.72,1.22,1.22,0,1,0-1.94-1.48,26.48,26.48,0,0,0-5.47,16.2v2.49H9.57a9.58,9.58,0,0,0,0,19.15c.28,0,.55,0,.83,0a26.72,26.72,0,0,0,48.81,10.3,1.22,1.22,0,1,0-2-1.33A24.29,24.29,0,0,1,12.5,55.28V42.54a18.81,18.81,0,0,0,7.19-5,14.24,14.24,0,0,0,3.24-5.7,34.83,34.83,0,0,0,7.38,4.74c5.7,2.8,15.61,6.13,30.75,6.32V55.28a24.27,24.27,0,0,1-1.81,9.24,1.22,1.22,0,0,0,.66,1.59,1.25,1.25,0,0,0,.46.09,1.22,1.22,0,0,0,1.13-.76,26.29,26.29,0,0,0,1.66-5.9h.16a9.57,9.57,0,0,0,.18-19.14Zm-12.19-5a.49.49,0,0,1-.64,0,.48.48,0,0,1-.18-.61l4.18-11.09a1.2,1.2,0,0,0-.14-1.12,1.22,1.22,0,0,0-1-.53H47.87a.53.53,0,0,1-.47-.26.52.52,0,0,1,0-.54L56.2,3.09h0a1.16,1.16,0,0,1,1-.65H69A1.15,1.15,0,0,1,70,3a1.17,1.17,0,0,1,0,1.16l-7.39,13A1.21,1.21,0,0,0,63.68,19H69.9a.6.6,0,0,1,.37,1.08ZM9.57,57.11a7.14,7.14,0,0,1,0-14.27h.49v4.08a4.75,4.75,0,0,0-4.73,2.81A1.21,1.21,0,0,0,6,51.34a1.18,1.18,0,0,0,.48.1,1.22,1.22,0,0,0,1.12-.73,2.41,2.41,0,0,1,2.5-1.35v5.92c0,.61,0,1.21.07,1.81Zm53.87,0q.06-.91.06-1.83V49.36A2.41,2.41,0,0,1,66,50.71a1.22,1.22,0,0,0,1.12.73,1.18,1.18,0,0,0,.48-.1,1.21,1.21,0,0,0,.63-1.6,4.75,4.75,0,0,0-4.73-2.81V42.84a7.14,7.14,0,0,1-.06,14.27Z"/><path class="cls-1" d="M30.62,66.24a8.72,8.72,0,0,1,12.32,0,1.22,1.22,0,0,0,1.72-1.72,11.15,11.15,0,0,0-15.76,0,1.21,1.21,0,0,0,0,1.72A1.23,1.23,0,0,0,30.62,66.24Z"/><path class="cls-1" d="M22.41,55.08a1.21,1.21,0,0,0,1.16.86,1.49,1.49,0,0,0,.36,0l6.44-2a1.22,1.22,0,0,0,.5-2l-4.33-4.33a1.23,1.23,0,0,0-1.72,0,1.21,1.21,0,0,0,0,1.72l2.9,2.9-4.5,1.39A1.21,1.21,0,0,0,22.41,55.08Z"/><path class="cls-1" d="M49.81,55.94a1.22,1.22,0,0,0,.36-2.38l-4.5-1.39,2.9-2.9a1.21,1.21,0,0,0,0-1.72,1.23,1.23,0,0,0-1.72,0l-4.33,4.33a1.22,1.22,0,0,0,.5,2l6.44,2A1.48,1.48,0,0,0,49.81,55.94Z"/><path class="cls-1" d="M7.46,14.82l-4.7,1.09a1.21,1.21,0,0,0-.86.74A1.18,1.18,0,0,0,2,17.77L7,25.2a1.21,1.21,0,0,0,1,.54,1.21,1.21,0,0,0,1-1.89l-4-6L9.74,16.8a1.21,1.21,0,0,0,.73-1.87L3.62,4.78a1.21,1.21,0,1,0-2,1.36Z"/><path class="cls-1" d="M16.7,15a1.2,1.2,0,0,0,1.11.74,1.15,1.15,0,0,0,.48-.1,1.21,1.21,0,0,0,.64-1.6L17,9.47l3.22-.14a1.22,1.22,0,0,0,1.06-1.7L18.73,1.87a1.22,1.22,0,1,0-2.23,1L18.3,7l-3.2.14A1.21,1.21,0,0,0,14,8.82Z"/></g></g></svg>