<svg xmlns="http://www.w3.org/2000/svg" viewBox="0 0 68.3 85.99"><defs><style>.cls-1{fill:#3a648a;}.cls-2{fill:#fff;}.cls-3{fill:#dc3c45;}</style></defs><title>KısaAnamnez</title><g id="Layer_2" data-name="Layer 2"><g id="Layer_1-2" data-name="Layer 1"><path class="cls-1" d="M62.27,11.59H6a6,6,0,0,0-6,6V80a6,6,0,0,0,6,6H62.28a6,6,0,0,0,6-6V17.62A6,6,0,0,0,62.27,11.59Z"/><path class="cls-2" d="M7,18.58H61.31V79H7Z"/><path class="cls-3" d="M42.94,34.05H37.59V28.69H30.72v5.36H25.36v6.87h5.36v5.36h6.87V40.92h5.35Z"/><path class="cls-1" d="M48.21,56.66H20.09a1.3,1.3,0,0,1,0-2.6H48.21a1.3,1.3,0,0,1,0,2.6Z"/><path class="cls-1" d="M48.21,63.39H20.09a1.3,1.3,0,1,1,0-2.6H48.21a1.3,1.3,0,0,1,0,2.6Z"/><path class="cls-1" d="M48.21,70.11H20.09a1.3,1.3,0,1,1,0-2.59H48.21a1.3,1.3,0,1,1,0,2.59Z"/><path class="cls-1" d="M53.65,8.56H45.26a2.93,2.93,0,0,1-2.83-2.2,8.56,8.56,0,0,0-16.55,0,3,3,0,0,1-2.83,2.2h-8.4a3,3,0,0,0-3,3v7.62a3,3,0,0,0,3,3h39a3,3,0,0,0,3-3V11.59A3,3,0,0,0,53.65,8.56Z"/><path class="cls-2" d="M36.93,7.16a2.78,2.78,0,1,1-2.78-2.78A2.77,2.77,0,0,1,36.93,7.16Z"/></g></g></svg>