<svg id="Layer_1" data-name="Layer 1" xmlns="http://www.w3.org/2000/svg" viewBox="0 0 283.46 283.46"><defs><style>.cls-1{fill:none;stroke:#000;stroke-miterlimit:10;}</style></defs><title>melissalogo2</title><path d="M113.76,127c-.24-.08.85-3.36,1.87-8.75a84.3,84.3,0,0,0,1.21-9.49c.12-1.79.2-3.66.18-5.6,0-.9,0-2.19,0-2.43s0-.49-.19-.59-.42.06-.6.14l-.43.21-.87.42-1.76.85a37.54,37.54,0,0,0-3.49,1.84A63.34,63.34,0,0,0,103,108a38.94,38.94,0,0,0-3,2.55l-2.9,2.59-1.33,1.37-.65.68-.5.65c-.21.28-.42.55-.71.87a3.18,3.18,0,0,1-.74.59l-.27.12-.15,0-.22,0a2.13,2.13,0,0,1-.62,0,1.9,1.9,0,0,1-.34-.12,2,2,0,0,1-.86-.72,2.84,2.84,0,0,1-.4-1.06,5.92,5.92,0,0,1-.06-.67l0-.84a19.57,19.57,0,0,0-2.72-7.88c-.33-.56-.68-1.09-1-1.6a8,8,0,0,0-.55-.72l-.23-.29,0,0c-.06-.07-.08,0-.14.07l-1.91,2.15-1.43,1.74-1.5,1.83a105.5,105.5,0,0,0-10,14.67,76.09,76.09,0,0,0-7.07,15.27c-1,2.91-1.91,6-2.77,9.08l-.32,1.17a12.06,12.06,0,0,1-.38,1.24c-.16.43-.29.88-.48,1.3l-.63,1.21a18.08,18.08,0,0,1-3.39,4.1c-5.2,4.66-11.47,7.14-17,9.74s-10.84,4.88-15.41,6.62-8.41,3.09-11.11,4S7.93,179.13,7.88,179a21.69,21.69,0,0,1,4-1.93l10.83-4.62c4.48-2,9.63-4.31,15-7.15,2.76-1.39,5.59-2.75,8.37-4.31a37.77,37.77,0,0,0,7.7-5.47A15.38,15.38,0,0,0,56.66,152l.48-1c.15-.33.23-.68.35-1s.21-.71.31-1.11l.3-1.2c.8-3.17,1.65-6.3,2.62-9.31a78.19,78.19,0,0,1,7-16,105.08,105.08,0,0,1,10.06-15.3l1.58-1.87,1.52-1.78,2-2.19L84,100.08a2.68,2.68,0,0,1,1.22-.68,2.18,2.18,0,0,1,1.38.16,3.15,3.15,0,0,1,1.19,1.07l.92,1.18c.21.28.42.56.61.86.4.58.78,1.2,1.15,1.85a22.84,22.84,0,0,1,3,9.31c0,.32,0,.48,0,.63v.39c0,.11,0,.22,0,.26.29,0-.73.19-.91.38a.54.54,0,0,0-.18.16h0l0,.21a.14.14,0,0,0,0-.09,1,1,0,0,0-.14-.35,2.41,2.41,0,0,0-.33-.5l-.22-.3h0l.07-.07a6.94,6.94,0,0,0,.52-.59c.21-.26.32-.43.7-.85l.71-.7L95,111l3.12-2.63a40,40,0,0,1,3.23-2.57,67.39,67.39,0,0,1,7-4.37c1.21-.65,2.43-1.26,3.68-1.78l4.12-1.8a2.16,2.16,0,0,1,2,.05,1.66,1.66,0,0,1,.63.78l.1,1.1a19.75,19.75,0,0,1,.07,3.45c-.07,2-.24,3.9-.44,5.72a72.32,72.32,0,0,1-1.78,9.59,58,58,0,0,1-2,6.29A7.57,7.57,0,0,1,113.76,127Z"/><path d="M19.33,180.38a5.5,5.5,0,0,1,1.3-.43c.86-.24,2.13-.58,3.79-1,3.31-.82,8.13-2,14.21-3.14,1.52-.28,3.12-.56,4.79-.82s3.36-.6,5.15-1a54.83,54.83,0,0,1,5.65-1,15.66,15.66,0,0,1,6.28.3,9.52,9.52,0,0,1,3.07,1.47,6,6,0,0,1,1.29,1.28,11.5,11.5,0,0,1,1,1.47c1.12,2,1.67,4.21,2.63,6.21.46,1,.93,2.09,1.39,3.14l1.51,3.16c1,2.11,2.07,4.27,3.1,6.5.51,1.1,1,2.19,1.62,3.21L78,202.92c1.31,2.12,2.66,4.24,4.15,6.25a32.54,32.54,0,0,0,5,5.52,10.26,10.26,0,0,0,2.9,1.81,2.27,2.27,0,0,0,2.44-.69,9.08,9.08,0,0,0,1.83-2.95,27.4,27.4,0,0,0,1.19-3.62A67,67,0,0,0,97,201.52l.49-4,.25-2a5.85,5.85,0,0,1,.83-2.46c1.43-2,3.95-1.67,5.29-1.05a15.13,15.13,0,0,1,3.62,2.46A42.64,42.64,0,0,0,121.27,201a58.42,58.42,0,0,0,15,2.07,58.3,58.3,0,0,0,7.38-.05c2.31-.19,4.65-.79,5.79-2a3.05,3.05,0,0,0,.6-.93,4.72,4.72,0,0,0,.15-1.3,19,19,0,0,0-.29-3.24c-.09-.54-.2-1.08-.33-1.61a10.35,10.35,0,0,1-.49-2.54,3,3,0,0,1,4.29-2.5l1.63.66,1.24.46c.83.3,1.66.58,2.49.83q2.49.76,4.94,1.28c1.6.34,3.27.6,4.86.86a40.31,40.31,0,0,0,4.58.48,16.34,16.34,0,0,0,4.09-.29,7.23,7.23,0,0,0,3.07-1.43,6.52,6.52,0,0,0,1-1.14,8.24,8.24,0,0,0,.68-1.4,12.23,12.23,0,0,0,.68-3.21,13.26,13.26,0,0,1,.4-2,4.58,4.58,0,0,1,1.52-2.25,4.84,4.84,0,0,1,2.28-.9,10,10,0,0,1,1.85-.08,23.07,23.07,0,0,1,5.37,1.11,33.25,33.25,0,0,0,3.22.87c.78.14,1.46.23,1.75.29a82.43,82.43,0,0,0,8.69.9,50.52,50.52,0,0,0,8.55-.3,40,40,0,0,0,5.07-1c.88-.24,1.77-.49,2.66-.81a13.81,13.81,0,0,0,1.35-.51,10,10,0,0,0,1.15-.49,2.32,2.32,0,0,0,.3-.22c0-.09.15-.14.18-.25a1.62,1.62,0,0,0,.2-.77,6.59,6.59,0,0,0-.51-2.52c-.18-.46-.39-.93-.63-1.4l-.37-.7-.15-.26s0,0-.05-.06l-.16-.21a10.06,10.06,0,0,1-1.74-2.68,2.5,2.5,0,0,1,.17-2.39,2.32,2.32,0,0,1,2.23-1l1.69.13a6,6,0,0,1,.67.07l.54.07c.8.11,1.34.14,2,.2s1.22.08,1.84.1a40.19,40.19,0,0,0,7.61-.46,37.19,37.19,0,0,0,7.69-2.08c1.38-.54,2.72-1,3.85-1.55s1.95-1.28,2.1-2a2.59,2.59,0,0,0-.06-1.29,5.93,5.93,0,0,0-.84-1.47,17.72,17.72,0,0,0-3-2.86q-.86-.66-1.77-1.29l-.93-.61-1.44-.9c-.24-.21-.51-.42-.74-.63a2.79,2.79,0,0,1-.47-.75,3,3,0,0,1-.17-1.79,3,3,0,0,1,.9-1.56,3.09,3.09,0,0,1,1.71-.78l1.46-.23c.32,0,.63-.12,1-.18.63-.12,1.27-.25,1.9-.41,1.27-.3,2.52-.67,3.77-1.09a45.06,45.06,0,0,0,14-7.63c.53-.41,1.05-.85,1.56-1.31.25-.22.51-.44.76-.68l.5-.47a.38.38,0,0,0,.17-.4.36.36,0,0,0-.37-.23l-7.45-.69c-2.61-.27-5.24-.42-7.86-.6-5.26-.41-10.54-.59-15.81-.81-2.64-.1-5.27-.1-7.9-.15s-5.25-.09-7.87,0l-7.82.09-7.73.28a408,408,0,0,0-56.68,6.35,374.18,374.18,0,0,0-40.29,9.72c-4.88,1.38-8.66,2.69-11.28,3.51l-3,.92a4.44,4.44,0,0,1-1.06.25,3.92,3.92,0,0,1,1-.46l2.93-1.12c2.57-.95,6.32-2.39,11.17-3.9a340.83,340.83,0,0,1,40.23-10.51,398.3,398.3,0,0,1,56.88-7.06l7.78-.37,7.86-.16c2.63-.08,5.26-.06,7.91,0s5.3,0,8,.09c5.3.17,10.62.3,15.91.67,2.65.15,5.29.28,7.92.53l8.24.69a2.9,2.9,0,0,1,1.69,5.07l-1,1c-.25.25-.53.48-.8.73-.54.48-1.09,1-1.65,1.41a47.8,47.8,0,0,1-14.88,8.25c-1.32.46-2.66.86-4,1.19q-1,.25-2,.45c-.34.07-.67.15-1,.2l-.52.09c-.12,0-.26.06-.27.19a.24.24,0,0,0,.18.27l.53.32,1,.66c.66.45,1.32.91,1.95,1.4a20.15,20.15,0,0,1,3.58,3.41,8.92,8.92,0,0,1,1.36,2.42,5.82,5.82,0,0,1,.15,3.1,5.5,5.5,0,0,1-1.59,2.67,9.1,9.1,0,0,1-2.18,1.49,44.62,44.62,0,0,1-4.13,1.71,40.36,40.36,0,0,1-8.37,2.32,43.86,43.86,0,0,1-8.25.56c-.67,0-1.33-.06-2-.1s-1.37-.11-1.82-.17l-.68-.07s-.09,0-.11,0,0,.11.13.22l.11.14.21.29a3.76,3.76,0,0,1,.3.5c.16.27.31.55.45.83a17,17,0,0,1,.79,1.73,10.1,10.1,0,0,1,.76,4,5.12,5.12,0,0,1-1.41,3.35,6.58,6.58,0,0,1-.95.74,11.82,11.82,0,0,1-1.68.77c-.5.2-1,.4-1.49.56-1,.36-2,.65-2.93.91a42.32,42.32,0,0,1-5.53,1.08,54.51,54.51,0,0,1-9.16.37,80.16,80.16,0,0,1-9.11-.9c-.34-.06-.91-.14-1.91-.33a35,35,0,0,1-3.57-1,19.32,19.32,0,0,0-4.48-1,3.2,3.2,0,0,0-1.74.23c-.07.05-.15.12-.26.46a7.58,7.58,0,0,0-.27,1.39,15.92,15.92,0,0,1-.92,4,11,11,0,0,1-1.07,2.11,9.43,9.43,0,0,1-1.71,1.87A10.7,10.7,0,0,1,178,196.7a19.85,19.85,0,0,1-5,.32,41.8,41.8,0,0,1-5-.55c-1.65-.28-3.3-.55-5.05-.94s-3.47-.84-5.22-1.39q-1.32-.42-2.64-.9l-1.31-.51-.94-.38a.16.16,0,0,0-.26.13c-.1-.36.4,1.49.55,2.59a22.93,22.93,0,0,1,.3,3.85,8.11,8.11,0,0,1-.33,2.27,6.35,6.35,0,0,1-1.34,2.11,8.85,8.85,0,0,1-3.85,2.19,18.72,18.72,0,0,1-4,.71,60.7,60.7,0,0,1-7.75,0c-10.33-.25-21.47-2.79-30.46-9.57a13.12,13.12,0,0,0-2.95-2.11,4.28,4.28,0,0,0-.72-.23,1.68,1.68,0,0,0-.59,0,1,1,0,0,0-.75.35,10.94,10.94,0,0,0-.66,3.28l-.55,4a69.51,69.51,0,0,1-1.61,8,29.1,29.1,0,0,1-1.35,3.94,11.53,11.53,0,0,1-2.41,3.71A5,5,0,0,1,92,218.82a4.55,4.55,0,0,1-2.59-.07,7.58,7.58,0,0,1-2-1c-.59-.39-1.12-.83-1.65-1.26a34.24,34.24,0,0,1-5.31-6c-1.52-2.12-2.88-4.3-4.17-6.46l-1.91-3.23c-.63-1.13-1.15-2.28-1.65-3.39-1-2.21-2-4.37-3-6.54l-1.47-3.21q-.67-1.6-1.35-3.18c-1-2.12-1.51-4.33-2.46-6.13a7,7,0,0,0-1.75-2.27,8.44,8.44,0,0,0-2.55-1.26,14.38,14.38,0,0,0-5.7-.36c-1.91.17-3.74.5-5.53.84s-3.55.68-5.24.88-3.27.46-4.78.7c-6.08,1-10.93,2-14.28,2.62l-3.85.74A4.9,4.9,0,0,1,19.33,180.38Z"/><path d="M156.34,110.23c.13.2-1.43,1.64-4.16,3.3a41.12,41.12,0,0,1-10.92,4.52,11.52,11.52,0,0,1-3.55.5,4.55,4.55,0,0,1-2.16-.64,3.75,3.75,0,0,1-1.55-2,4.51,4.51,0,0,1-.05-2.27,7,7,0,0,1,.65-1.74,12.87,12.87,0,0,1,1.77-2.48,15.36,15.36,0,0,1,5.36-3.91,14,14,0,0,1,2.38-.75c.35-.07.73-.16,1.14-.21a6.89,6.89,0,0,1,1.6-.1,3.16,3.16,0,0,1,1.34.39,2.75,2.75,0,0,1,1.24,1.41,2.79,2.79,0,0,1,0,1.85,3.66,3.66,0,0,1-.64,1.18,4.9,4.9,0,0,1-.81.83,5.85,5.85,0,0,1-.48.34l-.4.24a16.54,16.54,0,0,1-1.62.85,25.54,25.54,0,0,1-3.59,1.34c-2.5.75-5.13,1.22-7.66,1.79a58.43,58.43,0,0,0-13.38,4.48c-3.44,1.71-5.45,3.37-5.64,3.15s1.56-2.22,4.92-4.41a51.27,51.27,0,0,1,13.44-5.77c2.57-.75,5.12-1.37,7.36-2.17a22.76,22.76,0,0,0,3.1-1.35,13.87,13.87,0,0,0,1.32-.77l.29-.19.16-.13a1.68,1.68,0,0,0,.26-.3.41.41,0,0,0,.06-.11c.06,0-.1-.07.2,0a1.26,1.26,0,0,0,.64.07l-.06,0a.31.31,0,0,0-.11.09l.08-.08h0l0,.08c-.1.09-.22.86-.22.66a5.2,5.2,0,0,0-.77.11c-.32,0-.61.13-.87.19a14.82,14.82,0,0,0-6.1,3.46,10.47,10.47,0,0,0-1.41,1.73A2.52,2.52,0,0,0,137,115c.05.27.21.54,1,.66a9,9,0,0,0,2.73-.21,49,49,0,0,0,10.82-3.24C154.36,111,156.18,110,156.34,110.23Z"/><path d="M182.34,102.39c.17.16-1.2,2-3.77,4.18a42,42,0,0,1-10.68,6.61,13.58,13.58,0,0,1-3.55,1.13,5.32,5.32,0,0,1-4.24-1.16,4.07,4.07,0,0,1-1.31-2.16,4.76,4.76,0,0,1,.09-2.28,18.67,18.67,0,0,1,1.23-2.9,36,36,0,0,1,3.42-5.64,27.66,27.66,0,0,1,3-3.28,24,24,0,0,1,3.57-2.73c.35-.24.74-.43,1.12-.65l.31-.17.5-.22,1-.44a2.91,2.91,0,0,1,3.69.85c.66,1,.44,2.61-.23,4l-.27.52-.22.35a7.47,7.47,0,0,1-.48.63,9.34,9.34,0,0,1-1.06,1.11,42.89,42.89,0,0,1-4.55,3.34,101.77,101.77,0,0,1-9,5.37c-5.65,3-10.06,4.58-10.19,4.29s4-2.47,9.27-5.87c2.64-1.7,5.57-3.72,8.43-5.89a44.07,44.07,0,0,0,4-3.32,7.21,7.21,0,0,0,.74-.86c.12-.15.2-.29.3-.44l.12-.21,0-.07a.52.52,0,0,0,0-.39c-.11-.11-.26,0-.37,0l-.4.25c-.32.21-.64.38-.93.59A20.69,20.69,0,0,0,169,99.47a27.81,27.81,0,0,0-2.54,3,37,37,0,0,0-3.34,5,17.47,17.47,0,0,0-1.11,2.2,1.64,1.64,0,0,0-.12.71.85.85,0,0,0,.27.52,1.94,1.94,0,0,0,.78.47,3.07,3.07,0,0,0,1.1.12,11.5,11.5,0,0,0,2.9-.73,48.49,48.49,0,0,0,10.75-5.31C180.45,103.61,182.15,102.19,182.34,102.39Z"/><path d="M185.72,118.09c-.14-.52,5.67-2,11.42-4.49a34.47,34.47,0,0,0,4.08-2,6.22,6.22,0,0,0,1.38-1.16.19.19,0,0,0,0-.27,2.37,2.37,0,0,0-.57-.36s-1.51-.42-2.3-.72A4,4,0,0,1,198,108a2,2,0,0,1-.47-1,1.68,1.68,0,0,1,0-.56,2.29,2.29,0,0,1,.66-1.31,8.4,8.4,0,0,1,1.41-1.22,8.91,8.91,0,0,1,2.2-1.09l1.23,3.34-8.1,2.72a86.83,86.83,0,0,1-9.92,2.87,29,29,0,0,1-4.82.56,5.77,5.77,0,0,1-2.35-.4,2.67,2.67,0,0,1-1.55-1.71,3,3,0,0,1,.07-1.77,4.84,4.84,0,0,1,.52-1.09c.34-.56.61-.8.7-.76s0,.41-.14,1a3.56,3.56,0,0,0,0,2.22c.61,1.55,4.12.59,7.07-.22s6.36-2.3,9.41-3.56l7.85-3.18,1.23,3.34c-.24.1-.13.06-.17.08v0s0,0,0,0h0s-.06,0-.05.06-.28-.1.78.37a5.2,5.2,0,0,1,1.13.8,4.12,4.12,0,0,1,1,1.43,3.31,3.31,0,0,1-.76,3.65,9,9,0,0,1-2.25,1.61A32.14,32.14,0,0,1,198,116a57.48,57.48,0,0,1-8.47,1.93C187.27,118.23,185.77,118.33,185.72,118.09Z"/><path d="M204.8,119.73c-.08-.38,2.69-1.17,6.11-2.33a36.82,36.82,0,0,0,5.23-2.23,6.74,6.74,0,0,0,2-1.33.93.93,0,0,0,.21-.5.17.17,0,0,0-.07-.14l-.08,0a3.76,3.76,0,0,0-.41-.24,5.81,5.81,0,0,1-1.63-1.17,3.17,3.17,0,0,1-.9-2.87,3.37,3.37,0,0,1,.18-.55,3.28,3.28,0,0,1,.55-.83,8.3,8.3,0,0,1,1.56-1.21,11.45,11.45,0,0,1,4.29-1.53l.73,3.29c-4,1-9.41,2.43-13.84,3.76s-7.88,2.41-8,2.06,3.05-2.08,7.34-4a140.33,140.33,0,0,1,13.63-5.11l.74,3.29a8,8,0,0,0-2.9,1.26c-.45.32-.23.19-.28.23h0a.06.06,0,0,0-.05,0s-.15,0,.42.31a7.7,7.7,0,0,1,.78.58,3.79,3.79,0,0,1,.9,1.14,3.46,3.46,0,0,1,.22,2.4,4,4,0,0,1-1.12,1.91,8.91,8.91,0,0,1-3,1.73,31.1,31.1,0,0,1-5.89,1.64C207.71,120,204.87,120.07,204.8,119.73Z"/><path d="M263.72,127.89c-.33.3-4.35-4.53-10.68-7.69A39.37,39.37,0,0,0,243,116.77a11.74,11.74,0,0,1-2.8-.89,5.78,5.78,0,0,1-2.42-2.19,4.07,4.07,0,0,1,1.69-5.85l2.46-1v2.7a5.43,5.43,0,0,1-.77,2.78,6.51,6.51,0,0,1-.72,1,8.63,8.63,0,0,1-2.48,1.87,11.92,11.92,0,0,1-6.37,1.22c-.35,0-.61-.07-1.05-.14a9.33,9.33,0,0,1-1.59-.44A2.82,2.82,0,0,1,227,113.7a3.16,3.16,0,0,1,1.13-2.84l.7-.58a2.74,2.74,0,0,1,.35-.27l.24-.17c.31-.21.64-.4,1-.59a24.42,24.42,0,0,1,8.58-2.54l.29,2.53a43.89,43.89,0,0,0-13.59,2.56c-3.55,1.26-5.75,2.47-5.89,2.24s1.85-1.81,5.35-3.53a40.33,40.33,0,0,1,14-3.82l.29,2.54a22.06,22.06,0,0,0-7.47,2.64c-.25.17-.51.33-.74.51l-.17.13-.05,0,0,.06c-.06.07-.11.15-.07.23s.14.1.2.1h.1l.66.06a8.44,8.44,0,0,0,4.43-1,5.11,5.11,0,0,0,1.4-1.12,2.38,2.38,0,0,0,.67-1.33l2.43,1.59c.09.12,0,0-.08.24a.75.75,0,0,0,0,.68,2.55,2.55,0,0,0,1,1,9.41,9.41,0,0,0,2,.77,38.59,38.59,0,0,1,10.45,4.45,32.15,32.15,0,0,1,7.33,6.26C263.13,126.38,263.88,127.77,263.72,127.89Z"/><path d="M186,96.08c-.05-.11,0-.29.24-.43a1.31,1.31,0,0,1,1.13,0,2.21,2.21,0,0,1,1.09,1.17,2.41,2.41,0,0,1,.17,1,3.18,3.18,0,0,1-.16.93,5.87,5.87,0,0,1-.71,1.42,10,10,0,0,1-.72,1,5.44,5.44,0,0,1-1.09,1,5.6,5.6,0,0,1-.6.27,3.81,3.81,0,0,1-1.78.22,3.12,3.12,0,0,1-1.23-.45,2.8,2.8,0,0,1-1-1.05,3.32,3.32,0,0,1,1-4.25,3.75,3.75,0,0,1,1.43-.64c.84-.17,1.38,0,1.46.18s-.32.62-.8,1.11-.91,1.19-.74,1.56a.48.48,0,0,0,.22.37c-.13.08-.15.15-.12.09h0l.09-.18h0l0,0s0,.07,0,.05h0a.13.13,0,0,0,0-.06c0-.35,0-.26.08-.34L184,99a4.4,4.4,0,0,0,.68-.35c.19-.11.48-.32.74-.51s.48-.36.64-.5l.34-.33a.8.8,0,0,0,0-.51,1,1,0,0,0-.2-.43C186.18,96.28,186.05,96.21,186,96.08Z"/><rect class="cls-1" x="7.88" y="9.8" width="267.7" height="263.86"/></svg>