<svg xmlns="http://www.w3.org/2000/svg" viewBox="0 0 77.25 71.6"><defs><style>.cls-1{fill:#f1f3f3;}.cls-2{fill:#325179;}</style></defs><title>Asset 13</title><g id="Layer_2" data-name="Layer 2"><g id="Layer_1-2" data-name="Layer 1"><path class="cls-1" d="M69.54,38.17c.14,9.48,1.9,22.32-7.73,27.51-8,4.3-17.52,5.08-26.42,5.32-7.63.21-16.2-1.56-21.46-7.53-5.55-6.28-6-15.42-6.1-23.8-.15-9.12-1.07-17.27,4.05-25.34,8.24-13,23.79-16.64,37.86-11.4a29.46,29.46,0,0,1,16.57,15C69.16,24.2,69.43,31.29,69.54,38.17Z"/><path class="cls-2" d="M69.54,38.17a4.75,4.75,0,0,1-.11-1.06c0-.69-.09-1.7-.16-3s-.18-2.85-.38-4.63a45.2,45.2,0,0,0-1-5.92c-.26-1.07-.6-2.17-1-3.28A28.65,28.65,0,0,0,65.4,17a25.45,25.45,0,0,0-2.06-3.27l-.29-.4-.31-.39c-.21-.26-.41-.53-.63-.78-.45-.5-.89-1-1.38-1.5s-1-1-1.51-1.43-1.06-.91-1.63-1.33S56.44,7,55.85,6.62,54.64,5.85,54,5.51a27.88,27.88,0,0,0-3.95-1.85,32,32,0,0,0-4.2-1.33,32.92,32.92,0,0,0-17.16.16,28.74,28.74,0,0,0-7.3,3.3,28.43,28.43,0,0,0-5.57,4.66,29.33,29.33,0,0,0-3.7,5,10.9,10.9,0,0,0-.66,1.2c-.2.39-.4.77-.57,1.15s-.31.75-.45,1.11-.26.71-.38,1a27.21,27.21,0,0,0-1.15,4.93c-.05.22-.12.87-.23,1.9s-.19,2.44-.2,4.2,0,3.86.07,6.24,0,5,.21,7.89a46.46,46.46,0,0,0,1.23,9,24.72,24.72,0,0,0,1.63,4.57,19.18,19.18,0,0,0,2.71,4.2A20.38,20.38,0,0,0,23,68.62a33.7,33.7,0,0,0,10.73,1.81c7.38-.05,14.85-.51,21.43-2.5a36.75,36.75,0,0,0,4.72-1.76c.38-.16.74-.36,1.11-.54s.73-.36,1.06-.56A13.09,13.09,0,0,0,64,63.74a13.28,13.28,0,0,0,2.85-3.45,17.34,17.34,0,0,0,1.6-3.9,32.19,32.19,0,0,0,1-7.38c.1-2.23.07-4.18,0-5.79s0-2.87,0-3.73a6.45,6.45,0,0,1,.06-1.32,8.63,8.63,0,0,1,.11,1.31c0,.86.11,2.12.2,3.73S70,46.77,70,49A32.15,32.15,0,0,1,69,56.56a18,18,0,0,1-1.6,4.08,13.79,13.79,0,0,1-3,3.69,14.1,14.1,0,0,1-2,1.45c-.36.22-.73.41-1.1.6s-.74.39-1.13.56a38.43,38.43,0,0,1-4.81,1.88A56.56,56.56,0,0,1,44.86,71c-1.83.21-3.68.35-5.53.46s-3.71.19-5.61.19a34.78,34.78,0,0,1-11.14-1.78,23.82,23.82,0,0,1-5.06-2.43,19.66,19.66,0,0,1-4.21-3.59,20.59,20.59,0,0,1-3-4.49A25,25,0,0,1,8.6,54.49a47.6,47.6,0,0,1-1.35-9.26c-.18-2.9-.19-5.57-.26-7.94s-.13-4.5-.12-6.29.1-3.27.18-4.34.19-1.76.23-2a29.81,29.81,0,0,1,1.26-5.22c.14-.36.24-.74.41-1.11l.5-1.18c.18-.4.4-.8.61-1.22a13.48,13.48,0,0,1,.71-1.27,30.65,30.65,0,0,1,4-5.27,29.69,29.69,0,0,1,13.6-8.23,34,34,0,0,1,17.83,0,38.28,38.28,0,0,1,4.32,1.42,30.49,30.49,0,0,1,4.06,2c.65.36,1.27.78,1.89,1.17s1.21.85,1.77,1.31,1.12.93,1.67,1.4,1,1,1.53,1.5,1,1,1.4,1.57c.22.26.43.54.64.81l.32.41.29.42a27.5,27.5,0,0,1,2.06,3.4,29.08,29.08,0,0,1,1.45,3.47,31.8,31.8,0,0,1,.94,3.37,42.61,42.61,0,0,1,.89,6c.15,1.8.2,3.37.22,4.66s0,2.31,0,3A5.87,5.87,0,0,1,69.54,38.17Z"/><path class="cls-1" d="M7.5,33.79A7.65,7.65,0,0,0,6.07,48.66c.41.13.94.19,1.19-.15"/><path class="cls-2" d="M7.26,48.51s0,.06,0,.14a.65.65,0,0,1-.27.24,1.81,1.81,0,0,1-1.2,0,7,7,0,0,1-3-1.64,8.51,8.51,0,0,1-2.11-2.9,8.39,8.39,0,0,1-.56-1.77,7.86,7.86,0,0,1,0-2.26,8,8,0,0,1,1.94-4A8.56,8.56,0,0,1,3.8,34.8,7.57,7.57,0,0,1,5.6,34a3.12,3.12,0,0,1,1.9-.17c0,.13-.71.29-1.66.77a8.06,8.06,0,0,0-1.5,1A8.24,8.24,0,0,0,3,37a7.07,7.07,0,0,0-1.34,3.48,6.75,6.75,0,0,0,.09,1.8A8.22,8.22,0,0,0,2,43.79a7.87,7.87,0,0,0,4,4.5,1.91,1.91,0,0,0,.89.28C7.09,48.57,7.21,48.47,7.26,48.51Z"/><path class="cls-1" d="M69.75,33.79a7.65,7.65,0,0,1,1.43,14.87c-.41.13-.94.19-1.19-.15"/><path class="cls-2" d="M70,48.51c.05,0,.16.06.37.06a1.88,1.88,0,0,0,.89-.28,7.84,7.84,0,0,0,4-4.5,8.22,8.22,0,0,0,.34-1.47,6.75,6.75,0,0,0,.09-1.8A7.17,7.17,0,0,0,74.3,37a8.61,8.61,0,0,0-1.39-1.49,8.4,8.4,0,0,0-1.5-1c-1-.48-1.68-.64-1.66-.77a3.12,3.12,0,0,1,1.9.17,8,8,0,0,1,1.8.84,8.56,8.56,0,0,1,1.76,1.51,8,8,0,0,1,1.93,4,7.1,7.1,0,0,1,0,2.26,7.46,7.46,0,0,1-.55,1.77,8.64,8.64,0,0,1-2.11,2.9,7.09,7.09,0,0,1-3,1.64,1.81,1.81,0,0,1-1.2,0,.65.65,0,0,1-.27-.24C70,48.57,70,48.52,70,48.51Z"/><path class="cls-2" d="M21.76,40.44c0-.1.5-.19,1.19.12a3.16,3.16,0,0,1,1.74,2.15,3,3,0,0,1-.08,1.64,3.46,3.46,0,0,1-.75,1.26,3.4,3.4,0,0,1-1.33.89l-.19,0a1.91,1.91,0,0,1-.43.07,2.91,2.91,0,0,1-1.4-.21,3.26,3.26,0,0,1-1.43-1.13,3.06,3.06,0,0,1-.6-2,3.17,3.17,0,0,1,.74-1.77,3.84,3.84,0,0,1,1.22-1,2.23,2.23,0,0,1,1.07-.26c.26,0,.4.09.4.14s-.55.16-1.12.66a4,4,0,0,0-.82,1,2.23,2.23,0,0,0-.32,1.25,1.84,1.84,0,0,0,.5,1.09A2.11,2.11,0,0,0,21,45a1.57,1.57,0,0,0,1-.05,2.15,2.15,0,0,0,.79-.41,2,2,0,0,0,.74-1.63,2.33,2.33,0,0,0-.31-1,3,3,0,0,0-.62-.77C22.16,40.71,21.74,40.57,21.76,40.44Z"/><path class="cls-2" d="M55.87,40.44c0-.1.51-.19,1.19.12a3.22,3.22,0,0,1,1,.77,3.37,3.37,0,0,1,.72,1.38,3,3,0,0,1-.09,1.64A3.46,3.46,0,0,1,58,45.61a3.4,3.4,0,0,1-1.33.89l-.19,0a1.81,1.81,0,0,1-.42.07,2.88,2.88,0,0,1-1.4-.21,3.29,3.29,0,0,1-1.44-1.13,3,3,0,0,1-.59-2,3.09,3.09,0,0,1,.73-1.77,4,4,0,0,1,1.22-1,2.23,2.23,0,0,1,1.07-.26c.27,0,.41.09.4.14s-.55.16-1.12.66a3.94,3.94,0,0,0-.81,1,2.16,2.16,0,0,0-.33,1.25,1.9,1.9,0,0,0,.5,1.09,2.07,2.07,0,0,0,.89.56,1.6,1.6,0,0,0,1-.05,2.15,2.15,0,0,0,.78-.41,2,2,0,0,0,.75-1.63,2.63,2.63,0,0,0-.31-1,3.06,3.06,0,0,0-.63-.77C56.27,40.71,55.85,40.57,55.87,40.44Z"/><path class="cls-2" d="M45,50.46c.08.08-.12.42-.54.85a7.9,7.9,0,0,1-1.76,1.32,9.66,9.66,0,0,1-2.13.84,10.6,10.6,0,0,1-1.15.21A9.65,9.65,0,0,1,38,53.6a9.24,9.24,0,0,1-2.72-.79A8.1,8.1,0,0,1,33,51.28c-.53-.52-.78-.94-.7-1s.48.18,1.08.5a10.88,10.88,0,0,0,2.29,1,9,9,0,0,0,3.61.31,9.22,9.22,0,0,0,1-.06,10.25,10.25,0,0,0,1.94-.41,12.77,12.77,0,0,0,1.85-.77C44.58,50.55,44.92,50.37,45,50.46Z"/><path class="cls-2" d="M32.22,1.27a3.1,3.1,0,0,1,1.08-.06c.34,0,.76.07,1.24.13l.75.15.4.09.42.12a15.25,15.25,0,0,1,3.74,1.64,16.39,16.39,0,0,1,3.65,3,15.67,15.67,0,0,1,2.63,4,13.37,13.37,0,0,1,1.12,4.19,9,9,0,0,1-.3,3.29,8,8,0,0,1-.36,1,2.6,2.6,0,0,1-.21.44,7.67,7.67,0,0,1-1,1.5,9.32,9.32,0,0,1-3.2,2.45,8.35,8.35,0,0,1-2.54.73,8.57,8.57,0,0,1-2.89-.13,9.67,9.67,0,0,1-2.84-1.1,9.46,9.46,0,0,1-2.39-2,8.64,8.64,0,0,1-.92-1.26A6.26,6.26,0,0,1,30,18.05a5.81,5.81,0,0,1,0-3,6.49,6.49,0,0,1,1.33-2.46,6.38,6.38,0,0,1,2-1.5,5.4,5.4,0,0,1,3.57-.43,2.3,2.3,0,0,1,1.23.57c0,.06-.47-.15-1.29-.24a5.41,5.41,0,0,0-3.22.67,6,6,0,0,0-1.65,1.44,5.46,5.46,0,0,0-1,2.17,4.83,4.83,0,0,0,.68,3.69A7.92,7.92,0,0,0,32.38,20a8.56,8.56,0,0,0,2.15,1.65,8.35,8.35,0,0,0,2.48.87,7.37,7.37,0,0,0,2.43,0,7.26,7.26,0,0,0,2.08-.67,7.74,7.74,0,0,0,2.61-2.11,7,7,0,0,0,.79-1.23,3.07,3.07,0,0,0,.18-.35c.09-.19.19-.45.31-.77a7.57,7.57,0,0,0,.32-2.71,12,12,0,0,0-.86-3.77,15,15,0,0,0-2.26-3.82,16.14,16.14,0,0,0-3.26-3,15.51,15.51,0,0,0-3.44-1.81C33.77,1.48,32.2,1.43,32.22,1.27Z"/></g></g></svg>