<svg xmlns="http://www.w3.org/2000/svg" viewBox="0 0 79.24 61.62"><defs><style>.cls-1{fill:#335179;}</style></defs><title>Nabız</title><g id="Layer_2" data-name="Layer 2"><g id="Layer_1-2" data-name="Layer 1"><path class="cls-1" d="M78.08,32.65H73.22c7-14.62-1-29.16-14.15-32.13a1.16,1.16,0,0,0-.51,2.27c12,2.7,19.3,16.33,12.08,29.86h-4.3l-4-8.07a1.17,1.17,0,0,0-2.15.16l-3.7,11.49-4.16-9.49a1.16,1.16,0,1,0-2.12.94L55.58,40a1.16,1.16,0,0,0,2.17-.11l3.77-11.68,3.06,6.16a1.17,1.17,0,0,0,1,.64h3.61c-7.39,11.24-23.4,19.81-29.61,24.1C29.72,52.66,16.6,45,10,35h5.62a1.17,1.17,0,0,0,1-.65l4.95-10.2,6.21,18.22a1.16,1.16,0,0,0,2.21,0L35,25.68l4.43,7.45A1.16,1.16,0,0,0,41.47,33l5.31-13.09,1.59,3.62a1.16,1.16,0,1,0,2.12-.93L47.8,16.43a1.16,1.16,0,0,0-2.14,0L40.2,29.93l-4.6-7.72a1.16,1.16,0,0,0-2.11.27L28.86,38.14,22.92,20.7a1.16,1.16,0,0,0-2.14-.13L14.91,32.65H8.6C.44,17.34,10.81,2.32,24.91,2.32A19,19,0,0,1,38.78,8.25a1.16,1.16,0,0,0,1.68,0,19.11,19.11,0,0,1,12-5.84A1.16,1.16,0,0,0,52.28.1,21.49,21.49,0,0,0,39.62,5.81,21.35,21.35,0,0,0,24.91,0C9.64,0-2,15.91,6,32.65H1.16a1.16,1.16,0,1,0,0,2.32H7.28C14,46.19,28.07,54.36,39,61.43a1.15,1.15,0,0,0,1.26,0C51.16,54.37,65.28,46.19,72,35h6.12a1.16,1.16,0,0,0,0-2.32Z"/></g></g></svg>