<svg xmlns="http://www.w3.org/2000/svg" viewBox="0 0 62.43 62.43"><defs><style>.cls-1{fill:#fff;}.cls-2{fill:#325179;}.cls-3{fill:#dc3d45;}</style></defs><title>Asset 3</title><g id="Layer_2" data-name="Layer 2"><g id="Layer_1-2" data-name="Layer 1"><path class="cls-1" d="M10.83,48.43C7.26,44,4.37,37.35,4.37,31.21,4.37,17,17,4.31,31.28,4.31c6.13,0,12.79,2.88,17.22,6.45L10.83,48.43"/><path class="cls-1" d="M51.73,14a28.77,28.77,0,0,1,6.46,17.22c0,14.26-12.65,26.91-26.91,26.91a28.7,28.7,0,0,1-17.22-6.46"/><path class="cls-2" d="M33.76,38.23A13.68,13.68,0,0,0,39.6,23.52l-1.92-7.88a.76.76,0,0,0-.74-.58H25.48a.75.75,0,0,0-.73.58l-1.92,7.88a13.68,13.68,0,0,0,5.84,14.71l1.79,1.16v10l-5.9,3a.76.76,0,0,0-.39.85.75.75,0,0,0,.73.58H37.52a.75.75,0,0,0,.34-1.43l-5.89-3v-10ZM26.08,16.57H36.35L37.9,23H24.53Zm2,35.74,3.1-1.55,3.11,1.55Z"/><path class="cls-2" d="M38.25,24.46a12,12,0,0,1,.08,4.14A12.17,12.17,0,0,1,32.93,37l-1.72,1.12L29.49,37a12.16,12.16,0,0,1-5.32-12.5Z"/><path class="cls-3" d="M31.21,0A31.22,31.22,0,1,0,62.43,31.21,31.21,31.21,0,0,0,31.21,0ZM4.31,31.21C4.31,17,17,4.31,31.21,4.31c6.14,0,12.79,2.88,17.22,6.45L10.76,48.43C7.19,44,4.31,37.35,4.31,31.21Zm26.9,26.91A28.7,28.7,0,0,1,14,51.66L51.66,14a28.7,28.7,0,0,1,6.46,17.22C58.12,45.47,45.47,58.12,31.21,58.12Z"/></g></g></svg>