<svg xmlns="http://www.w3.org/2000/svg" viewBox="0 0 62.09 62.09"><defs><style>.cls-1{fill:#fff;}.cls-2{fill:#325179;}.cls-3{fill:#dc3d45;}</style></defs><title>MaddeHayır</title><g id="Layer_2" data-name="Layer 2"><g id="Layer_1-2" data-name="Layer 1"><path class="cls-1" d="M10.77,48.17C7.22,43.76,4.35,37.15,4.35,31c0-14.18,12.58-26.76,26.76-26.76,6.1,0,12.72,2.87,17.13,6.43L10.77,48.17"/><path class="cls-1" d="M51.45,13.92A28.53,28.53,0,0,1,57.87,31c0,14.19-12.57,26.77-26.76,26.77A28.54,28.54,0,0,1,14,51.38"/><path class="cls-1" d="M13.45,51.38,50.92,13.92"/><path class="cls-2" d="M44.75,31.08A9.59,9.59,0,1,1,31.68,44.15l-2.07,2.06A9.6,9.6,0,1,1,16,32.64l17.2-17.2A9.6,9.6,0,0,1,46.81,29Zm2.74,8.35A7.48,7.48,0,0,0,41.09,32V46.81A7.48,7.48,0,0,0,47.49,39.43ZM45.3,27.51A7.46,7.46,0,0,0,45.3,17a6.7,6.7,0,0,0-1.18-1,7.45,7.45,0,0,0-9.37,1l-7.91,7.91L31,29.07,34,32A9.54,9.54,0,0,1,40,29.83a9.64,9.64,0,0,1,2.59.36ZM39,46.81V32a7.46,7.46,0,0,0,0,14.77Zm-6.48-13.3-7.15-7.14-7.78,7.78A7.46,7.46,0,0,0,28.1,44.7L30.79,42a9.55,9.55,0,0,1,1.69-8.51Z"/><path class="cls-2" d="M25.33,26.37l7.15,7.14A9.55,9.55,0,0,0,30.79,42L28.1,44.7A7.46,7.46,0,0,1,17.55,34.15Z"/><path class="cls-3" d="M31,0A31,31,0,1,0,62.09,31,31,31,0,0,0,31,0ZM4.28,31C4.28,16.86,16.86,4.28,31,4.28c6.11,0,12.72,2.87,17.13,6.43L10.71,48.17C7.15,43.76,4.28,37.15,4.28,31ZM31,57.81a28.54,28.54,0,0,1-17.12-6.43L51.38,13.92A28.54,28.54,0,0,1,57.81,31C57.81,45.23,45.23,57.81,31,57.81Z"/></g></g></svg>