<svg xmlns="http://www.w3.org/2000/svg" viewBox="0 0 62.33 62.33"><defs><style>.cls-1{fill:#fff;}.cls-2{fill:#dc3d45;}.cls-3{fill:#325179;}</style></defs><title>Asset 1</title><g id="Layer_2" data-name="Layer 2"><g id="Layer_1-2" data-name="Layer 1"><path class="cls-1" d="M10.68,48.36C7.11,43.93,4.23,37.29,4.23,31.17,4.23,16.93,16.86,4.3,31.1,4.3c6.13,0,12.77,2.88,17.2,6.45L10.68,48.36"/><path class="cls-1" d="M51.52,14A28.68,28.68,0,0,1,58,31.17C58,45.41,45.34,58,31.1,58a28.76,28.76,0,0,1-17.2-6.45"/><path class="cls-1" d="M13.5,51.59,51.12,14"/><path class="cls-2" d="M31.17,0A31.17,31.17,0,1,0,62.33,31.17,31.16,31.16,0,0,0,31.17,0ZM4.3,31.17C4.3,16.93,16.93,4.3,31.17,4.3c6.12,0,12.76,2.88,17.19,6.45L10.75,48.36C7.18,43.93,4.3,37.29,4.3,31.17ZM31.17,58A28.74,28.74,0,0,1,14,51.59L51.59,14A28.74,28.74,0,0,1,58,31.17C58,45.41,45.41,58,31.17,58Z"/><path class="cls-3" d="M28.8,30.31l-6.45,6.45H19.89V30.31Z"/><path class="cls-3" d="M52.13,30.31v6.45H28.8L35,30.31Z"/><path class="cls-3" d="M15.59,36.76h-4.3V30.31h4.3Z"/><path class="cls-3" d="M11.29,27.09A1.07,1.07,0,0,1,10.22,26c0-.08.11-8,9.55-8.56a6,6,0,0,1,1.09-4A4.13,4.13,0,0,1,24.19,12a1.08,1.08,0,0,1,0,2.15,2,2,0,0,0-1.66.65A4.85,4.85,0,0,0,22,18.28a1.09,1.09,0,0,1-.22.89,1.08,1.08,0,0,1-.83.39c-8.5,0-8.6,6.19-8.6,6.45A1.08,1.08,0,0,1,11.29,27.09Z"/><path class="cls-3" d="M15.59,27.07h0A1.06,1.06,0,0,1,14.52,26s.07-4.3,6.45-4.3c5.37,0,5.37-1.07,5.37-3.22a1.08,1.08,0,0,1,1.07-1.08c.13,0,3.23,0,3.23-2.14s-.83-2.15-3.23-2.15a1.08,1.08,0,0,1,0-2.15c2,0,5.38,0,5.38,4.3,0,2.84-2.46,3.93-4.35,4.21-.36,3.68-2.87,4.38-7.47,4.38-4.08,0-4.29,1.95-4.3,2.18A1.09,1.09,0,0,1,15.59,27.07Z"/></g></g></svg>