<svg xmlns="http://www.w3.org/2000/svg" viewBox="0 0 76.61 85.81"><defs><style>.cls-1{fill:#f1f3f3;}.cls-2{fill:#325179;}</style></defs><title>Asset 9</title><g id="Layer_2" data-name="Layer 2"><g id="Layer_1-2" data-name="Layer 1"><path class="cls-1" d="M36,77V47.88a5.49,5.49,0,0,0-3.25-5,31,31,0,0,1-12-9.7q-.86-1.14-1.62-2.34C14.28,23.1,2.36,25.36,1,34.4l0,.25A8.93,8.93,0,0,0,.9,35.92V61.46a19.89,19.89,0,0,0,2.36,9.46A30.48,30.48,0,0,0,17.87,84.39a11.92,11.92,0,0,0,4.71,1h5.14A8.32,8.32,0,0,0,36,77Z"/><path class="cls-2" d="M36,77a2.92,2.92,0,0,1,0,.77c0,.26,0,.57-.09.93A8.19,8.19,0,0,1,35.68,80a8.62,8.62,0,0,1-2.48,3.69l-.43.34a2.51,2.51,0,0,1-.46.32,8.39,8.39,0,0,1-2.15,1,9.39,9.39,0,0,1-2.57.39l-2.68,0c-.94,0-1.85,0-2.86,0A12.89,12.89,0,0,1,19,85.34,28.88,28.88,0,0,1,8.13,78.5a32.53,32.53,0,0,1-4.2-5.11,30.63,30.63,0,0,1-1.66-2.82,20.35,20.35,0,0,1-1.21-3,21.09,21.09,0,0,1-.95-6.09c0-1.9,0-3.71,0-5.4C0,49.33,0,44.59,0,43.94c0-.33,0-1.94,0-4.51,0-.64,0-1.34,0-2.1V36.15a12.8,12.8,0,0,1,.06-1.34,10.74,10.74,0,0,1,2.34-5.66,10.13,10.13,0,0,1,2.66-2.28,11.27,11.27,0,0,1,3.46-1.31,11.41,11.41,0,0,1,3.87-.06,11,11,0,0,1,3.79,1.38,11.09,11.09,0,0,1,3.05,2.79l1.14,1.66c.37.53.72,1.08,1.1,1.6A32.19,32.19,0,0,0,27,38.59a30.27,30.27,0,0,0,3.24,2.26c.56.34,1.13.65,1.71.95l.88.43.46.22c.17.08.32.18.48.27a6,6,0,0,1,2.55,3.37,6.21,6.21,0,0,1,.22,1,9,9,0,0,1,0,1c0,.64,0,1.27,0,1.9-.06,5-.11,9.69-.15,13.69s-.11,7.32-.17,9.65c0,1.16-.06,2.08-.09,2.7A4,4,0,0,1,36,77a3.14,3.14,0,0,1-.1-1c0-.62-.06-1.54-.09-2.7-.05-2.33-.11-5.65-.16-9.65s-.1-8.67-.16-13.69c0-.63,0-1.26,0-1.9a5.14,5.14,0,0,0,0-.89,4.17,4.17,0,0,0-.19-.85,4.9,4.9,0,0,0-2.13-2.71,2.93,2.93,0,0,0-.39-.21l-.2-.1-.23-.11c-.3-.14-.62-.27-.92-.43q-.91-.45-1.8-1a29.91,29.91,0,0,1-3.4-2.31,33.11,33.11,0,0,1-5.79-5.8c-.41-.54-.78-1.11-1.18-1.66l-1.11-1.58a9.4,9.4,0,0,0-2.67-2.37A9.51,9.51,0,0,0,12.19,27a9.76,9.76,0,0,0-3.33.1,9.29,9.29,0,0,0-2.93,1.15A8.11,8.11,0,0,0,3.72,30.2,9,9,0,0,0,1.8,35a11.09,11.09,0,0,0,0,1.16v1.18c0,.76,0,1.46,0,2.1,0,2.57,0,4.18,0,4.51,0,.65,0,5.39-.07,12.13,0,1.69,0,3.5,0,5.4a19.39,19.39,0,0,0,.8,5.66,17.38,17.38,0,0,0,1.08,2.8,28.14,28.14,0,0,0,1.52,2.71A31.67,31.67,0,0,0,9,77.6a30.51,30.51,0,0,0,4.86,4c.44.27.87.57,1.32.82l.67.38.68.36c.44.24.91.44,1.36.66a11,11,0,0,0,1.37.52,11.37,11.37,0,0,0,2.8.5c.93,0,1.9,0,2.82,0l2.68,0A8.33,8.33,0,0,0,30,84.67a7.93,7.93,0,0,0,3.59-2.11,8.18,8.18,0,0,0,1.79-2.71,9.69,9.69,0,0,0,.38-1.16c.07-.35.14-.65.18-.89A2.14,2.14,0,0,1,36,77Z"/><path class="cls-1" d="M40.58,77V47.88a5.49,5.49,0,0,1,3.25-5,30.94,30.94,0,0,0,12-9.7c.58-.76,1.12-1.54,1.63-2.34,4.9-7.72,16.82-5.46,18.16,3.58,0,.08,0,.17,0,.25a8.93,8.93,0,0,1,.08,1.27V61.46a20,20,0,0,1-2.36,9.46A30.48,30.48,0,0,1,58.74,84.39a11.92,11.92,0,0,1-4.71,1H48.89A8.31,8.31,0,0,1,40.58,77Z"/><path class="cls-2" d="M40.58,77a2.46,2.46,0,0,1,.13.76c0,.24.11.54.17.89a9.89,9.89,0,0,0,.39,1.16,8.18,8.18,0,0,0,1.79,2.71,8,8,0,0,0,3.58,2.11A8.4,8.4,0,0,0,49,85l2.68,0c.91,0,1.89,0,2.82,0a11.46,11.46,0,0,0,2.8-.5,10.26,10.26,0,0,0,1.36-.52c.45-.22.92-.42,1.37-.66l.68-.36.67-.38c.45-.25.88-.55,1.32-.82a30.38,30.38,0,0,0,8.79-9A30.58,30.58,0,0,0,73,69.93a18.37,18.37,0,0,0,1.08-2.8,19.72,19.72,0,0,0,.79-5.66c0-1.9,0-3.71,0-5.4,0-6.74-.07-11.48-.07-12.13,0-.33,0-1.94,0-4.51,0-.64,0-1.34,0-2.1,0-.38,0-.77,0-1.18a9.26,9.26,0,0,0-2-5.95,8.42,8.42,0,0,0-2.21-1.93,9.35,9.35,0,0,0-2.94-1.15,9.7,9.7,0,0,0-3.32-.1,9.56,9.56,0,0,0-3.26,1.15,9.37,9.37,0,0,0-2.66,2.37l-1.12,1.58c-.39.55-.76,1.12-1.18,1.66a32.71,32.71,0,0,1-5.78,5.8A29.91,29.91,0,0,1,47,41.89c-.59.34-1.2.66-1.81,1-.3.16-.61.29-.92.43l-.23.11-.2.1a3.72,3.72,0,0,0-.39.21,4.94,4.94,0,0,0-2.13,2.71,6.14,6.14,0,0,0-.19.85,6.37,6.37,0,0,0,0,.89c0,.64,0,1.27,0,1.9,0,5-.1,9.69-.15,13.69s-.11,7.32-.17,9.65c0,1.16-.06,2.08-.09,2.7a4,4,0,0,1-.09,1,4,4,0,0,1-.09-1c0-.62-.06-1.54-.09-2.7-.06-2.33-.12-5.65-.17-9.65s-.1-8.67-.15-13.69c0-.63,0-1.26,0-1.9a9,9,0,0,1,0-1,6.18,6.18,0,0,1,.21-1,6.09,6.09,0,0,1,2.56-3.37c.16-.09.31-.19.48-.27l.46-.22.88-.43c.58-.3,1.15-.61,1.71-.95a31.18,31.18,0,0,0,3.23-2.26,31.84,31.84,0,0,0,5.47-5.66c.39-.52.74-1.07,1.11-1.6l1.13-1.66a10.56,10.56,0,0,1,6.84-4.17,11.4,11.4,0,0,1,3.87.06,11.18,11.18,0,0,1,3.46,1.31,10,10,0,0,1,2.66,2.28,10.87,10.87,0,0,1,2.4,7c0,.41,0,.8,0,1.18,0,.76,0,1.46,0,2.1,0,2.57,0,4.18,0,4.51,0,.65,0,5.39-.07,12.13,0,1.69,0,3.5,0,5.4a21.09,21.09,0,0,1-1,6.09,20.41,20.41,0,0,1-1.22,3,30.54,30.54,0,0,1-1.65,2.82,32.53,32.53,0,0,1-4.2,5.11A28.84,28.84,0,0,1,57.6,85.34a12.89,12.89,0,0,1-3,.47c-1,0-1.93,0-2.86,0l-2.68,0a9.28,9.28,0,0,1-2.57-.39,8.46,8.46,0,0,1-2.16-1,2.83,2.83,0,0,1-.45-.32l-.43-.34a7.31,7.31,0,0,1-.74-.73,8.3,8.3,0,0,1-1.74-3,8.19,8.19,0,0,1-.31-1.23c0-.36-.09-.67-.09-.93A2.46,2.46,0,0,1,40.58,77Z"/><circle class="cls-1" cx="38.34" cy="20.36" r="19.7"/><path class="cls-2" d="M58,20.36s-.07-.2-.12-.59c0-.19-.05-.43-.08-.71s0-.61-.12-1A21,21,0,0,0,56,12.41a19.74,19.74,0,0,0-5.12-6.6,9,9,0,0,0-.92-.71c-.32-.23-.63-.47-1-.68l-1-.61c-.17-.1-.34-.21-.52-.3l-.55-.25-1.1-.52-1.15-.4L44,2.14,43.43,2,42.24,1.7a20,20,0,0,0-9.56.56,19.1,19.1,0,0,0-11,9.34c-.17.35-.33.68-.46,1a5.72,5.72,0,0,0-.33.77l-.31.86a7.74,7.74,0,0,0-.33,1,16.42,16.42,0,0,0-.5,2.25,18.92,18.92,0,0,0,5.53,16.64,19,19,0,0,0,10.6,5.17,13.18,13.18,0,0,0,1.53.14l.76.05a6.43,6.43,0,0,0,.76,0c.51,0,1,0,1.52-.08l1.5-.21a20.25,20.25,0,0,0,5.55-1.91A21.64,21.64,0,0,0,52,34l.88-1a4.79,4.79,0,0,0,.43-.47l.38-.49.75-1,.62-1a19.26,19.26,0,0,0,2.6-6.94,18.93,18.93,0,0,0,.28-2.07,2.34,2.34,0,0,1,.13-.75,2.32,2.32,0,0,1,.05.75,12.35,12.35,0,0,1-.1,2.13,18.54,18.54,0,0,1-2.35,7.23L55,31.52c-.23.35-.49.68-.74,1l-.38.53c-.13.18-.29.33-.43.5l-.9,1A22.49,22.49,0,0,1,48,38.12a21.67,21.67,0,0,1-5.82,2.15l-1.58.26c-.53.06-1.07.07-1.61.11a7.31,7.31,0,0,1-.81,0l-.81,0a12.77,12.77,0,0,1-1.63-.12,20.38,20.38,0,0,1-11.47-5.34,14,14,0,0,1-1.08-1.1,11.81,11.81,0,0,1-1-1.15c-.3-.4-.61-.79-.89-1.19l-.77-1.24A20.55,20.55,0,0,1,18,17.18a17.76,17.76,0,0,1,.52-2.47,6.71,6.71,0,0,1,.35-1.1l.35-.94a5.71,5.71,0,0,1,.37-.84l.52-1.06A20.64,20.64,0,0,1,32.24.84,21.1,21.1,0,0,1,42.49.45l1.27.34.63.18L45,1.2l1.22.46,1.15.57.58.29.54.33,1.07.67c.34.24.66.5,1,.75a8.84,8.84,0,0,1,.94.78,20.14,20.14,0,0,1,5.11,7.07,19.64,19.64,0,0,1,1.48,5.94,8.45,8.45,0,0,1,0,1c0,.28,0,.53,0,.72Q58.09,20.36,58,20.36Z"/><path class="cls-2" d="M24,20.32a10.32,10.32,0,0,1-2.33.3,15.8,15.8,0,0,1-2.89-.3,16.73,16.73,0,0,1,2.89-.3A10.92,10.92,0,0,1,24,20.32Z"/><path class="cls-2" d="M58,20.32a10.32,10.32,0,0,1-2.33.3,15.8,15.8,0,0,1-2.89-.3,16.73,16.73,0,0,1,2.89-.3A10.92,10.92,0,0,1,58,20.32Z"/><path class="cls-2" d="M38.29,40.07a11.6,11.6,0,0,1-.3-2.41,17.8,17.8,0,0,1,.3-3,16.81,16.81,0,0,1,.3,3A11,11,0,0,1,38.29,40.07Z"/><path class="cls-2" d="M40.1,20.36c-.05,0-.05-.3-.26-.68a1.71,1.71,0,0,0-1.19-.84,1.67,1.67,0,0,0-.77.07,1.71,1.71,0,0,0-.57.37,1.44,1.44,0,0,0-.36.6,1.51,1.51,0,0,0-.06.86,1.45,1.45,0,0,0,.4.72,1.53,1.53,0,0,0,.85.45,1.66,1.66,0,0,0,1-.14,1.78,1.78,0,0,0,.66-.57,3.59,3.59,0,0,0,.34-.84,1.18,1.18,0,0,1-.14.95,1.84,1.84,0,0,1-.7.75,2,2,0,0,1-1.18.27,2,2,0,0,1-1.13-.5,1.94,1.94,0,0,1-.59-1,2,2,0,0,1,0-1.18,1.93,1.93,0,0,1,.56-.81,2,2,0,0,1,.79-.44,2,2,0,0,1,1.87.46,1.78,1.78,0,0,1,.45.69A1,1,0,0,1,40.1,20.36Z"/><path class="cls-2" d="M47.56,28.7c-.33.38-4.07-2.33-4.2-2.45s-4.2-4.17-3.87-4.55,4.92,3.08,5,3.19S47.88,28.33,47.56,28.7Z"/><path class="cls-2" d="M38.29,6.05A11.6,11.6,0,0,1,38,3.64a17.8,17.8,0,0,1,.3-3,16.81,16.81,0,0,1,.3,3A11,11,0,0,1,38.29,6.05Z"/></g></g></svg>