<svg xmlns="http://www.w3.org/2000/svg" viewBox="0 0 80.08 79.66"><defs><style>.cls-1{fill:#f1f3f3;}.cls-2{fill:#325179;}</style></defs><title>Asset 12</title><g id="Layer_2" data-name="Layer 2"><g id="Layer_1-2" data-name="Layer 1"><path class="cls-1" d="M1.44,44.91h12a5,5,0,0,1,4.89-4.12,4.87,4.87,0,0,1,4.74,4.12H45.33c-.53-6.65,11.85-6.88,11.27.21h13V77.78l-68.16.5,0,0V15.57H33.14v9.92c2.37,0,4.31,2.76,4.1,5.13a4.93,4.93,0,0,1-4.81,4.32v24.5a4.51,4.51,0,0,0-1.93.29,5.33,5.33,0,0,0-2.45,6.46,5.47,5.47,0,0,0,4.2,3.36V78"/><path class="cls-2" d="M32.25,78a12.37,12.37,0,0,1-.16-2.24c0-.73-.05-1.63-.08-2.68,0-.52,0-1.09,0-1.69,0-.29,0-.59,0-.9a4.26,4.26,0,0,0-.05-.73,5.67,5.67,0,0,1-2.75-1.34A5.81,5.81,0,0,1,28,67a5.33,5.33,0,0,1-.62-1.89A6.09,6.09,0,0,1,28.3,61,5,5,0,0,1,30,59.41l.26-.15a2.69,2.69,0,0,1,.32-.13,4,4,0,0,1,.6-.15,3.91,3.91,0,0,1,.68-.06s0,0,0-.07v-.72c0-.46,0-.92,0-1.39q0-1.4,0-2.85c0-1.94,0-4-.06-6s0-4.18-.06-6.35c0-1.09,0-2.18,0-3.29,0-.55,0-1.11,0-1.67V34.48c0-.1,0-.24,0-.3.45,0,.93,0,1.4-.09l.17,0,.13,0,.17,0,.34-.13a4.19,4.19,0,0,0,1.22-.79,3.93,3.93,0,0,0,1.3-2.52,4.25,4.25,0,0,0-.88-2.76,4,4,0,0,0-1.06-1,3.11,3.11,0,0,0-.62-.28,12.34,12.34,0,0,0-1.57-.17c0-3.23-.07-6.5-.1-9.79l-29.57.2c.12,26,.23,47.26.24,49.32,0,.62,0,3.41,0,7.87,0,.9,0,1.88,0,2.94,0,0,0,0,0,0H5l10.05,0,53.5-.16c0-10.15.11-20.55.17-30.66l-12.95-.1,0-.91,0-.89a.85.85,0,0,0,0-.29l0-.22c0-.15-.1-.29-.14-.43a3.3,3.3,0,0,0-1.05-1.43,5.64,5.64,0,0,0-3.57-1.13,5.81,5.81,0,0,0-3.54,1.11,3.55,3.55,0,0,0-1,1.36,3.25,3.25,0,0,0-.15.4l-.05.21a1.21,1.21,0,0,0,0,.28l0,.8v.8c-.33,0-.76,0-1.13,0H42.34l-3,0-5.75,0-10.94-.12c-.11-.43-.23-.9-.36-1.27a5.23,5.23,0,0,0-.38-.79,4.19,4.19,0,0,0-1.1-1.26,4.42,4.42,0,0,0-3-.84,4.17,4.17,0,0,0-2.65,1.28,5.19,5.19,0,0,0-.84,1.16,3.18,3.18,0,0,0-.16.32,2.34,2.34,0,0,0-.15.37c-.11.29-.2.58-.29.87-.27,0-.58,0-.86,0h-.76l-1.31,0-2.38,0-3.78-.09L2.26,45a3,3,0,0,1-.82-.09,3,3,0,0,1,.82-.09l2.36-.09,8.58-.18a4.64,4.64,0,0,1,.16-.53c0-.07.07-.19.12-.31s.11-.25.17-.36A6.08,6.08,0,0,1,14.58,42a5.08,5.08,0,0,1,3.13-1.61,5.39,5.39,0,0,1,3.7.94,5.16,5.16,0,0,1,1.38,1.52,5.41,5.41,0,0,1,.47.93,3.33,3.33,0,0,1,.2.61l10.16-.08,5.75,0,3,0h2c.12,0,.28,0,.36,0a1.81,1.81,0,0,1,0-.52,1.12,1.12,0,0,1,0-.24l.07-.29a4,4,0,0,1,.2-.58,4.88,4.88,0,0,1,1.46-1.95,7.68,7.68,0,0,1,9-.08,5,5,0,0,1,1.57,2.07c.07.21.16.41.21.62l.07.32c0,.1.05.25.05.27a2.57,2.57,0,0,1,0,.47l13.12-.06c.06,11.43.12,23.18.18,34.65L15,79.51,5,79.62l-2.24,0H1.46l-.21-.05-.42-.11c-.15,0-.2-.12-.3-.18S.39,79.1.34,79s-.19-.47-.29-.7,0-.64,0-1V75.69c0-.61,0-1.19,0-1.75,0-4.46,0-7.25,0-7.87C0,63.91.11,41.61.24,14.4l33.88.19q0,3,0,6c0,.83,0,1.66,0,2.49v1.24a1.93,1.93,0,0,0,0,.42,1.25,1.25,0,0,1,.3.05,4.34,4.34,0,0,1,1,.48,5.84,5.84,0,0,1,1.54,1.47,5.93,5.93,0,0,1,1.16,4,5.66,5.66,0,0,1-1.89,3.6,5.88,5.88,0,0,1-1.72,1.06l-.48.17-.24.06-.13,0a2.34,2.34,0,0,1-.38,0c0,.07,0,.23,0,.34v.59c0,.56,0,1.12,0,1.67,0,1.11,0,2.2,0,3.29q0,3.26-.06,6.35c0,2.06,0,4.07-.06,6,0,1,0,1.92,0,2.85,0,.47,0,.93,0,1.39s0,.64,0,1v.7c0,.07,0,.18,0,.2a11.76,11.76,0,0,0-1.58,0,3.8,3.8,0,0,0-.47.1l-.19.07-.2.11a4.07,4.07,0,0,0-1.39,1.25A5.22,5.22,0,0,0,28.23,65a4.49,4.49,0,0,0,1.44,2.87,5.56,5.56,0,0,0,1.25.88,5.39,5.39,0,0,0,.74.3,9.08,9.08,0,0,0,.9.22,9.45,9.45,0,0,1,0,1.19c0,.33,0,.65,0,1,0,.6,0,1.17,0,1.69,0,1-.06,1.95-.08,2.68A10.71,10.71,0,0,1,32.25,78Z"/><path class="cls-1" d="M78.28.49,43.57.88V13.61c1.17-1.37,3.61-1.06,5.2-.21a4.93,4.93,0,0,1,2.29,5,5.12,5.12,0,0,1-2.74,3.83,4.51,4.51,0,0,1-4.36.26l.4,12.31h11c-.61-1.21,0-3.81.79-4.81a5.38,5.38,0,0,1,7.68-.79c1.39,1.21,1.57,3.79,1.46,5.6H79.06Z"/><path class="cls-2" d="M78.28.49a13,13,0,0,1,.35,2.92c.13,1.86.28,4.52.44,7.73s.31,7,.49,11c.08,2,.16,4.11.25,6.24l.12,3.21.15,4.27L64,36c0-.7.06-1.42.07-2.12v-.45l0-.25c0-.17,0-.33,0-.49A6.06,6.06,0,0,0,63.54,31a2.37,2.37,0,0,0-.39-.61,1.61,1.61,0,0,0-.23-.22l-.32-.23a3.85,3.85,0,0,0-1.41-.57,4.4,4.4,0,0,0-2.8.44,4.18,4.18,0,0,0-1,.8l-.2.24a.76.76,0,0,0-.12.19,2.8,2.8,0,0,0-.24.52,5.84,5.84,0,0,0-.38,2.19,2.43,2.43,0,0,0,0,.35s0,.1,0,.11.05,0-.08,0l-.95.15a15.32,15.32,0,0,0-2.21.61c-.21,0-.87.34-2.19.69a15,15,0,0,1-2.36.4c-.9.08-1.83.11-2.88.12h-1.5l-.15,0-.62-.13L43.3,36l-.16,0S43,36,43,35.87c0-.81,0-1.65-.07-2.51,0-1-.05-2.15-.08-3.33-.06-2.89-.13-6.1-.21-9.53l1.29.63.64.3a5.1,5.1,0,0,0,.57.22l.27.05.21,0h.21l.42,0A4.13,4.13,0,0,0,48,21.05a4.39,4.39,0,0,0,1.37-1.3A4.08,4.08,0,0,0,50,17.93a3.9,3.9,0,0,0-1.51-3.43,5.09,5.09,0,0,0-2-.7,3.9,3.9,0,0,0-1,0l-.48.13c-.2.15-.42.34-.63.51l-.8.76-.91.88,0-.36a1.4,1.4,0,0,0,0-.26l0-.12a.06.06,0,0,1,0,0V13.53l0-2.61c0-1.12,0-2.24,0-3.36,0-2.54,0-5.07.08-7.56L56.79,0,67.86.12c3.18,0,5.79.09,7.59.15a12.35,12.35,0,0,1,2.83.22,13.05,13.05,0,0,1-2.82.28c-1.81.1-4.41.21-7.59.32l-11.06.34-12.35.34v.77c0,.55,0,1.11,0,1.66,0,1.12,0,2.24,0,3.36s0,2.24,0,3.36v1c0,.06,0,0,0,0l.09-.08.15-.08.08,0,.17,0a6.14,6.14,0,0,1,1.6,0,8.07,8.07,0,0,1,1.49.34,5.77,5.77,0,0,1,4,6.12A6.65,6.65,0,0,1,52,19.59,5.71,5.71,0,0,1,51.38,21a6.63,6.63,0,0,1-2.07,2.08,6.39,6.39,0,0,1-2.68,1.07,4.49,4.49,0,0,1-.73.06h-.48l-.12,0h0v.2c0,.64.05,1.27.08,1.88,0,1.29.1,2.53.15,3.7s.09,2.28.13,3.32c0,.13,0,.26,0,.39s0,.06,0,.07h0v0h0l0,0,0-.08-.09-.15a13.55,13.55,0,0,1,1.93.12,5.49,5.49,0,0,1,1.38.4c.79.35,1.45.63,1.63.69a12.51,12.51,0,0,0,2.38.61l1.1.15c.17.08,0-.15,0-.29a4.59,4.59,0,0,1-.14-.45,5.33,5.33,0,0,1-.11-.86,8.38,8.38,0,0,1,.61-3.31,5.7,5.7,0,0,1,.44-.9,3.14,3.14,0,0,1,.33-.48l.34-.4a6.64,6.64,0,0,1,1.72-1.31,6.89,6.89,0,0,1,4.55-.62,6.45,6.45,0,0,1,2.31,1c.18.12.35.27.52.4a3.59,3.59,0,0,1,.51.52,4.93,4.93,0,0,1,.74,1.2,8.44,8.44,0,0,1,.62,2.48c0,.21,0,.41,0,.62l0,.3v.12l0,.19h.45l1.7,0,3.45,0,3.5,0,1.76,0H78c0-4,0-8-.06-11.69,0-4,0-7.79,0-11s0-5.88.09-7.74A11.79,11.79,0,0,1,78.28.49Z"/></g></g></svg>