<svg xmlns="http://www.w3.org/2000/svg" viewBox="0 0 90 90"><defs><style>.cls-1{fill:#325179;}.cls-2{fill:#dc3d45;}</style></defs><title>Rapor</title><g id="Layer_2" data-name="Layer 2"><g id="Layer_1-2" data-name="Layer 1"><path class="cls-1" d="M89.72,57.63A1.49,1.49,0,0,0,88.5,57H75V13.5A1.5,1.5,0,0,0,73.5,12H69V7.5A1.5,1.5,0,0,0,67.5,6h-36a6,6,0,0,0-12,0H15a1.5,1.5,0,0,0-1.5,1.5V57H1.5A1.5,1.5,0,0,0,0,58.5a1.41,1.41,0,0,0,.19.72l16.5,30A1.49,1.49,0,0,0,18,90H78a1.44,1.44,0,0,0,1.41-1h0l10.5-30A1.5,1.5,0,0,0,89.72,57.63ZM69,69V15h3V74.48L69,69ZM25.5,3a3,3,0,0,1,3,3h-6A3,3,0,0,1,25.5,3Zm-9,6h12v4.5a1.5,1.5,0,0,1-3,0V12h-3v1.5a4.5,4.5,0,0,0,9,0V9H66V63.57l-3.19-5.79A1.49,1.49,0,0,0,61.5,57h-45Zm2.39,78L4,60H60.61L75.46,87ZM77.7,84.83,75,79.93V60H86.38Z"/><path class="cls-1" d="M75,6H72V9h3a3,3,0,0,1,3,3V33h3V12A6,6,0,0,0,75,6Z"/><rect class="cls-1" x="78" y="36" width="3" height="3"/><rect class="cls-1" x="7.5" y="30" width="3" height="21"/><rect class="cls-1" x="7.5" y="24" width="3" height="3"/><path class="cls-2" d="M52.5,21v6A1.5,1.5,0,0,1,51,28.5H46.5V33A1.5,1.5,0,0,1,45,34.5H39A1.5,1.5,0,0,1,37.5,33V28.5H33A1.5,1.5,0,0,1,31.5,27V21A1.5,1.5,0,0,1,33,19.5h4.5V15A1.5,1.5,0,0,1,39,13.5h6A1.5,1.5,0,0,1,46.5,15v4.5H51A1.5,1.5,0,0,1,52.5,21Zm-3,4.5v-3H45A1.5,1.5,0,0,1,43.5,21V16.5h-3V21A1.5,1.5,0,0,1,39,22.5H34.5v3H39A1.5,1.5,0,0,1,40.5,27v4.5h3V27A1.5,1.5,0,0,1,45,25.5Z"/><path class="cls-2" d="M49.5,22.5v3H45A1.5,1.5,0,0,0,43.5,27v4.5h-3V27A1.5,1.5,0,0,0,39,25.5H34.5v-3H39A1.5,1.5,0,0,0,40.5,21V16.5h3V21A1.5,1.5,0,0,0,45,22.5Z"/><rect class="cls-1" x="24" y="37.5" width="3" height="3"/><rect class="cls-1" x="30" y="37.5" width="31.5" height="3"/><rect class="cls-1" x="21" y="43.5" width="40.5" height="3"/><rect class="cls-1" x="21" y="49.5" width="34.5" height="3"/><rect class="cls-1" x="59.74" y="13.5" width="3.09" height="3"/><rect class="cls-1" x="60" y="19.5" width="3" height="3"/></g></g></svg>