<svg xmlns="http://www.w3.org/2000/svg" viewBox="0 0 37 37"><defs><style>.cls-1{fill:#325179;}</style></defs><title>SecilenleriAta</title><g id="Layer_2" data-name="Layer 2"><g id="Layer_1-2" data-name="Layer 1"><path class="cls-1" d="M18.5,37A18.5,18.5,0,1,0,0,18.5,18.52,18.52,0,0,0,18.5,37Zm0-34.39A15.89,15.89,0,1,1,2.61,18.5,15.91,15.91,0,0,1,18.5,2.61Z"/><path class="cls-1" d="M14.23,27.73a1.29,1.29,0,0,0,1.85,0l8.41-8.4a1.32,1.32,0,0,0,.38-.93,1.29,1.29,0,0,0-.38-.92L16.08,9.07a1.33,1.33,0,0,0-1.85,0,1.31,1.31,0,0,0,0,1.85l7.49,7.48-7.49,7.49A1.3,1.3,0,0,0,14.23,27.73Z"/></g></g></svg>