<?xml version="1.0"?>
<svg xmlns="http://www.w3.org/2000/svg" height="512px" viewBox="0 -69 508.81133 508" width="512px"><g><path d="m260.5 218.519531-54.058594 51.3125c-8.328125 8.359375-19.644531 13.058594-31.445312 13.054688h-67.140625c-7.3125 0-13.242188 5.929687-13.242188 13.242187v65.128906c.460938 4.179688-2.0625 8.109376-6.058593 9.425782-3.992188 1.3125-8.359376-.351563-10.46875-3.984375l-75.863282-113.824219c-2.964844-4.449219-2.964844-10.242188 0-14.691406l75.863282-113.792969c2.113281-3.644531 6.488281-5.308594 10.484374-3.988281 4 1.320312 6.523438 5.265625 6.042969 9.449218v60.347657c0 7.3125 5.929688 13.242187 13.242188 13.242187h36.386719c10.132812.910156 20.203124-2.34375 27.886718-9.015625l26.304688-26.296875 33.378906 14.355469 11.394531 9.929687zm0 0" fill="#2980ba" data-original="#2980BA"/><path d="m462.078125 13.648438v52.964843c0 7.3125-5.925781 13.242188-13.242187 13.242188h-44.703126c-3.476562.183593-6.785156 1.550781-9.382812 3.875l-54.730469 54.730469-29.640625 29.667968-67.171875-44.859375 110.539063-108.378906c9.273437-9.273437 21.851562-14.484375 34.96875-14.484375h60.121094c3.511718 0 6.882812 1.394531 9.363281 3.878906 2.484375 2.480469 3.878906 5.851563 3.878906 9.363282zm0 0" fill="#285680" data-original="#285680"/><path d="m506.597656 252.875-75.867187 113.824219c-2.386719 3.652343-6.898438 5.296875-11.078125 4.042969-4.179688-1.257813-7.035156-5.117188-7.015625-9.484376v-65.128906c0-7.3125-5.929688-13.242187-13.242188-13.242187h-65.554687c-11.800782.003906-23.113282-4.695313-31.441406-13.054688l-48.007813-45.734375-18.09375-18.097656-11.574219-11.574219-55.957031-55.964843-46.53125-44.136719c-9.273437-9.269531-21.851563-14.476563-34.964844-14.46875h-27.285156c-7.316406 0-13.242187-5.929688-13.242187-13.242188v-52.964843c0-7.3125 5.925781-13.242188 13.242187-13.242188h60.121094c13.113281 0 25.6875 5.210938 34.957031 14.484375l155.316406 153.238281 26.304688 23.746094c7.398437 7.390625 17.425781 11.550781 27.886718 11.566406h34.824219c7.3125 0 13.242188-5.929687 13.242188-13.242187v-60.347657c-.019531-4.363281 2.835937-8.222656 7.015625-9.480468 4.179687-1.253906 8.691406.390625 11.078125 4.042968l75.867187 113.796876c2.953125 4.441406 2.953125 10.222656 0 14.664062zm0 0" fill="#3b97d3" data-original="#3B97D3" class="active-path" style="fill:#3B97D3"/></g> </svg>