<svg xmlns="http://www.w3.org/2000/svg" viewBox="0 0 151.42596 151.42592"><defs><style>.cls-1{fill:#dc3d45;}.cls-2{fill:#fff;}.cls-3{fill:#325179;}</style></defs><title>Asset 1</title><g id="Layer_2" data-name="Layer 2"><g id="Layer_1-2" data-name="Layer 1"><path class="cls-1" d="M75.713,0a75.713,75.713,0,1,0,75.713,75.713A75.71345,75.71345,0,0,0,75.713,0ZM10.44317,75.713c0-34.593,30.67681-65.2698,65.2698-65.2698,14.88205,0,31.01593,6.99738,41.7727,15.66475L26.10792,117.48565C17.44055,106.72888,10.44317,90.595,10.44317,75.713Zm65.2698,65.2698A69.64544,69.64544,0,0,1,33.9403,125.318L125.318,33.9403A69.64544,69.64544,0,0,1,140.98279,75.713C140.98279,110.306,110.306,140.98277,75.713,140.98277Z"/><path class="cls-2" d="M32.797,125.318l91.37772-91.37773"/><path class="cls-2" d="M25.94368,117.48564C17.27631,106.72887,10.27893,90.595,10.27893,75.713c0-34.593,30.6768-65.2698,65.2698-65.2698,14.882,0,31.0159,6.99738,41.77267,15.66475L25.94368,117.48564"/><path class="cls-2" d="M125.15378,33.94029A69.64544,69.64544,0,0,1,140.81853,75.713c0,34.593-30.67681,65.26981-65.2698,65.26981A69.64544,69.64544,0,0,1,33.77606,125.318"/><circle class="cls-2" cx="75.38021" cy="76.42592" r="67"/><path class="cls-3" d="M126.64429,73.63448V89.29923l-78.26408.12669V73.63448Z"/><path class="cls-3" d="M37.87736,89.29923H27.43419V73.63448H37.87736Z"/><path class="cls-3" d="M27.43419,65.8021a2.61092,2.61092,0,0,1-2.61079-2.61079c0-.20142.27663-19.31961,23.21285-20.79455a14.4989,14.4989,0,0,1,2.63884-9.66044A9.94593,9.94593,0,0,1,58.7637,29.251a2.6108,2.6108,0,0,1,0,5.22159,4.88876,4.88876,0,0,0-4.04112,1.56673,11.85524,11.85524,0,0,0-1.23018,8.37544,2.61035,2.61035,0,0,1-2.56108,3.11179c-20.64922,0-20.88633,15.0248-20.88633,15.66475A2.61093,2.61093,0,0,1,27.43419,65.8021Z"/><path class="cls-3" d="M37.87736,65.76768h-.05991a2.58374,2.58374,0,0,1-2.55088-2.57637c0-.10453.17975-10.44317,15.66475-10.44317,13.054,0,13.054-2.61079,13.054-7.83238A2.61092,2.61092,0,0,1,66.59607,42.305c.31361,0,7.83238-.10963,7.83238-5.22158,0-4.96025-2.01291-5.22159-7.83238-5.22159a2.61079,2.61079,0,1,1,0-5.22158c4.88249,0,13.054,0,13.054,10.44317,0,6.903-5.961,9.561-10.55536,10.24685-.88216,8.9236-6.98718,10.63949-18.16336,10.63949-9.90265,0-10.41767,4.73843-10.44317,5.279A2.64014,2.64014,0,0,1,37.87736,65.76768Z"/></g></g></svg>