<svg xmlns="http://www.w3.org/2000/svg" viewBox="0 0 79.69 69.11"><defs><style>.cls-1{fill:#335179;}</style></defs><title>Solunum</title><g id="Layer_2" data-name="Layer 2"><g id="Layer_1-2" data-name="Layer 1"><path class="cls-1" d="M60,66.77H55.8a9.41,9.41,0,0,1-9.37-10.2l.73-11.44c.42.25.86.44,1.29.67A18.51,18.51,0,0,0,52,47.28c.11,2.31,1.14,5.72,4.6,6.52a1.17,1.17,0,0,0,.53-2.28c-2-.45-2.55-2.37-2.72-3.7a20,20,0,0,0,3,.27,1.17,1.17,0,0,0,0-2.34h0C52.06,45.68,47,43,43.24,38.94a4.8,4.8,0,0,0-7,0c-6.87,7.26-13.91,6.76-14.14,6.81a1.17,1.17,0,0,0,0,2.34A19.15,19.15,0,0,0,25,47.84c-.17,1.33-.76,3.23-2.72,3.68a1.17,1.17,0,0,0,.53,2.28c3.45-.79,4.48-4.19,4.59-6.5a18.93,18.93,0,0,0,2.85-1.08s2-1,2.26-1.19c.86,13.45.72,11.31.74,11.56a9.4,9.4,0,0,1-9.37,10.18H20.17a1.17,1.17,0,0,0,0,2.34h3.72a11.75,11.75,0,0,0,11.7-12.7l-.83-13A28.56,28.56,0,0,0,38,40.54a2.44,2.44,0,0,1,1.78-.76c1.7,0,1.55,1,5.15,3.79L44.1,56.41a11.74,11.74,0,0,0,11.7,12.7H60a1.17,1.17,0,0,0,0-2.34Z"/><path class="cls-1" d="M79.61,64.07c-2.44-18.24-4.75-35.47-16.07-43a9.17,9.17,0,0,0-5.07-1.52c-4.66,0-11.87,3.54-12.28,8.44l-.26,3.11a6,6,0,0,1-1.49-3.65V1.17a1.17,1.17,0,0,0-2.34,0v26.3a7,7,0,0,0,1,3.64A33,33,0,0,0,46,35a19.33,19.33,0,0,0,5.21,4.31c.08,0,.16.12.24.16a2.16,2.16,0,0,0,.4.18,13.33,13.33,0,0,0,5.61,1.44,1,1,0,0,0,.45-.18c.12-.06.28-.06.37-.16a1.17,1.17,0,0,0-.8-2,10.36,10.36,0,0,1-1.66-.23,6.84,6.84,0,0,0,2.69-3.94A1.17,1.17,0,0,0,56.22,34a4.36,4.36,0,0,1-3.71,3.4,16.91,16.91,0,0,1-4.45-3.55l.46-5.6c.29-3.41,6.31-6.29,9.95-6.29A6.78,6.78,0,0,1,62.24,23C72.68,30,74.92,46.68,77.29,64.38l0,.29a1.8,1.8,0,0,1-.44,1.46,1.83,1.83,0,0,1-1.4.64H65.12a1.17,1.17,0,0,0,0,2.34H75.49a4.21,4.21,0,0,0,3.16-1.44,4.16,4.16,0,0,0,1-3.31Z"/><path class="cls-1" d="M17.44,23a6.82,6.82,0,0,1,3.78-1.13c3.63,0,9.66,2.88,9.94,6.29l.45,5.42c-.4.46-.82.82-1.23,1.22A9.53,9.53,0,0,1,28,36.76c-.31.2-.61.45-.92.61A4.4,4.4,0,0,1,23.22,34a1.17,1.17,0,0,0-2.26.61,6.84,6.84,0,0,0,2.7,3.95,10.67,10.67,0,0,1-1.59.22,1.17,1.17,0,0,0-.8,2c.08.08.19.07.28.12a1.14,1.14,0,0,0,.56.22,16,16,0,0,0,5.94-1.56,23.64,23.64,0,0,0,8.35-8.4,6.94,6.94,0,0,0,1-3.63V1.17a1.17,1.17,0,0,0-2.34,0V27.48a5.05,5.05,0,0,1-1.35,3.32L33.5,28c-.41-4.9-7.62-8.44-12.28-8.44a9.17,9.17,0,0,0-5.07,1.52c-12,8-14,27.67-16.11,43.27a4.19,4.19,0,0,0,4.15,4.75h9.28a1.17,1.17,0,0,0,0-2.34H4.19a1.83,1.83,0,0,1-1.39-.64,2,2,0,0,1-.41-1.75C4.77,46.68,7,30,17.44,23Z"/></g></g></svg>