<svg xmlns="http://www.w3.org/2000/svg" viewBox="0 0 54.52 54.52"><defs><style>.cls-1{fill:#325179;}</style></defs><title>SürekliKullandığıİlaçlar</title><g id="Layer_2" data-name="Layer 2"><g id="Layer_1-2" data-name="Layer 1"><path class="cls-1" d="M18.38,20.83l10.7,10.71A14.27,14.27,0,0,0,26,40.39a14.67,14.67,0,0,0,.53,3.89l-4,4A11.18,11.18,0,0,1,6.72,32.49Z" transform="translate(-0.25 -0.25)"/><path class="cls-1" d="M47.47,27.88A14.38,14.38,0,1,1,27.88,47.47l-3.09,3.09a14.36,14.36,0,0,1-20.33,0A14.56,14.56,0,0,1,2.62,48.3,14.37,14.37,0,0,1,4.46,30.23L30.23,4.46A14.38,14.38,0,0,1,48.83,3a15.94,15.94,0,0,1,1.73,1.48,14.36,14.36,0,0,1,0,20.33Zm4.11,12.51A11.2,11.2,0,0,0,42,29.33V51.46A11.2,11.2,0,0,0,51.58,40.39ZM48.3,22.53a11.17,11.17,0,0,0,0-15.81,10.94,10.94,0,0,0-1.77-1.44,11.17,11.17,0,0,0-14,1.44L20.64,18.57l6.3,6.3,4.38,4.39A14.27,14.27,0,0,1,40.39,26a14.67,14.67,0,0,1,3.89.53ZM38.8,51.46V29.33a11.18,11.18,0,0,0,0,22.13ZM29.08,31.54,18.38,20.83,6.72,32.49A11.18,11.18,0,0,0,22.53,48.3l4-4A14.67,14.67,0,0,1,26,40.39,14.27,14.27,0,0,1,29.08,31.54Z" transform="translate(-0.25 -0.25)"/></g></g></svg>