<svg xmlns="http://www.w3.org/2000/svg" viewBox="0 0 86.69 86.69"><defs><style>.cls-1{fill:#325179;}</style></defs><title>Tansiyon</title><g id="Layer_2" data-name="Layer 2"><g id="Layer_1-2" data-name="Layer 1"><path class="cls-1" d="M82.68,5.44a12.63,12.63,0,0,0-20.77,0,20.18,20.18,0,0,0-4,12.34,20.13,20.13,0,0,0,4,12.33,13.61,13.61,0,0,0,7.85,5.17v25a21.34,21.34,0,1,1-42.67,0V49.1H46.56a2.54,2.54,0,0,0,2.54-2.54v-44A2.54,2.54,0,0,0,46.56,0h-44A2.54,2.54,0,0,0,0,2.54v44A2.54,2.54,0,0,0,2.54,49.1H22V60.27a26.42,26.42,0,1,0,52.83,0v-25a13.62,13.62,0,0,0,7.84-5.17,20.13,20.13,0,0,0,4-12.33A20.18,20.18,0,0,0,82.68,5.44ZM5.08,5.08H44V44H5.08ZM78.67,27a7.57,7.57,0,0,1-12.75,0A15,15,0,0,1,63,17.78a15.07,15.07,0,0,1,2.94-9.22,7.58,7.58,0,0,1,12.75,0,15.07,15.07,0,0,1,2.94,9.22A15,15,0,0,1,78.67,27Z"/><path class="cls-1" d="M38,56.41a7.63,7.63,0,0,0,0,10.78l8.67,8.6a2.56,2.56,0,0,0,1.79.74,2.53,2.53,0,0,0,1.79-.74l8.68-8.6A7.62,7.62,0,0,0,48.42,56.12,7.62,7.62,0,0,0,38,56.41ZM51.71,60A2.54,2.54,0,0,1,56,61.8a2.53,2.53,0,0,1-.73,1.79l-6.89,6.82-6.87-6.82A2.54,2.54,0,0,1,45.14,60l1.49,1.49a2.54,2.54,0,0,0,3.59,0Z"/><path class="cls-1" d="M38.94,24.55A14.39,14.39,0,1,0,24.55,38.94,14.4,14.4,0,0,0,38.94,24.55Zm-23.7,0a9.31,9.31,0,1,1,9.31,9.31A9.33,9.33,0,0,1,15.24,24.55Z"/><path class="cls-1" d="M27.09,24.55V21.16a2.54,2.54,0,0,0-5.08,0v3.39a2.54,2.54,0,0,0,5.08,0Z"/></g></g></svg>