<svg xmlns="http://www.w3.org/2000/svg" viewBox="0 0 35.2 43.34"><defs><style>.cls-1{fill:#325179;}</style></defs><title>Temizle</title><g id="Layer_2" data-name="Layer 2"><g id="Layer_1-2" data-name="Layer 1"><path class="cls-1" d="M23.59,15.7a1,1,0,0,0-1,1V35.9a1,1,0,1,0,2,0V16.72A1,1,0,0,0,23.59,15.7Z"/><path class="cls-1" d="M11.61,15.7a1,1,0,0,0-1,1V35.9a1,1,0,1,0,2,0V16.72A1,1,0,0,0,11.61,15.7Z"/><path class="cls-1" d="M2.88,12.9v25a5.57,5.57,0,0,0,1.49,3.86A5,5,0,0,0,8,43.34H27.2a5,5,0,0,0,3.63-1.57,5.57,5.57,0,0,0,1.49-3.86v-25a3.87,3.87,0,0,0-1-7.62H26.13V4a4,4,0,0,0-4-4h-9a4,4,0,0,0-2.84,1.16A4,4,0,0,0,9.07,4V5.28H3.88a3.87,3.87,0,0,0-1,7.62ZM27.2,41.31H8a3.21,3.21,0,0,1-3.09-3.4V13H30.29V37.91A3.21,3.21,0,0,1,27.2,41.31ZM11.1,4a2,2,0,0,1,2-2h9a2,2,0,0,1,2,2V5.28h-13ZM3.88,7.31H31.32a1.83,1.83,0,1,1,0,3.65H3.88a1.83,1.83,0,1,1,0-3.65Z"/><path class="cls-1" d="M17.6,15.7a1,1,0,0,0-1,1V35.9a1,1,0,1,0,2,0V16.72A1,1,0,0,0,17.6,15.7Z"/></g></g></svg>