<svg xmlns="http://www.w3.org/2000/svg" viewBox="0 0 72.21 83.48"><defs><style>.cls-1{fill:#f1f3f3;}.cls-2{fill:#325179;}</style></defs><title>Asset 15</title><g id="Layer_2" data-name="Layer 2"><g id="Layer_1-2" data-name="Layer 1"><path class="cls-1" d="M9.81,42.64a7.86,7.86,0,0,0-7.62,3.41,7.86,7.86,0,0,0,0,8.36,7.85,7.85,0,0,0,7.61,3.45"/><path class="cls-2" d="M9.78,57.86c0,.12-.68.43-1.82.44a7.88,7.88,0,0,1-4-1.13A8.05,8.05,0,0,1,.85,54,7.74,7.74,0,0,1,.1,51.8a8.3,8.3,0,0,1,0-2.75,8.38,8.38,0,0,1,.82-2.48,8.05,8.05,0,0,1,1.81-2.31,8.18,8.18,0,0,1,4.79-2c1.42-.08,2.3.27,2.27.39A18.68,18.68,0,0,1,7.66,43a8.18,8.18,0,0,0-3.92,2.26,7,7,0,0,0-1.27,2,7.06,7.06,0,0,0-.49,2,7.26,7.26,0,0,0,.12,2.16,7.48,7.48,0,0,0,.45,1.7A6.84,6.84,0,0,0,4.71,56,8.34,8.34,0,0,0,8,57.51C9,57.73,9.75,57.71,9.78,57.86Z"/><path class="cls-1" d="M62.4,43.09a7.7,7.7,0,1,1,0,15.22"/><path class="cls-2" d="M62.43,58.31c0-.15.74-.13,1.75-.35a8.36,8.36,0,0,0,3.32-1.53,6.84,6.84,0,0,0,2.16-2.82,6.92,6.92,0,0,0,.45-1.7,7.26,7.26,0,0,0,.12-2.16,6.74,6.74,0,0,0-.49-2,7,7,0,0,0-1.27-2,8.2,8.2,0,0,0-3.91-2.26,18.61,18.61,0,0,1-2.16-.39c0-.12.85-.47,2.27-.39a8.23,8.23,0,0,1,4.8,2A8,8,0,0,1,71.27,47a8.38,8.38,0,0,1,.82,2.48,8.3,8.3,0,0,1,0,2.75,7.74,7.74,0,0,1-.75,2.16,8.05,8.05,0,0,1-3.06,3.21,8,8,0,0,1-4,1.13C63.11,58.74,62.41,58.43,62.43,58.31Z"/><path class="cls-1" d="M8.35,36.89c0,7.44,0,14.93,1.35,22.23A34.9,34.9,0,0,0,12.92,69a26.57,26.57,0,0,0,19.9,13.59c15.82,2,28.27-9.73,31-24.79A67.46,67.46,0,0,0,64.46,46c0-8.75,1.43-17.45.74-26.14-.29-3.68-1.12-7.43-3.28-10.41a17.58,17.58,0,0,0-9-6.08A61.09,61.09,0,0,0,31.18.84c-4.94.24-10,.76-14.46,2.91-4.82,2.34-8.39,6.46-8.4,11.79C8.3,22.65,8.37,29.78,8.35,36.89Z"/><path class="cls-2" d="M8.35,36.89a4.64,4.64,0,0,1-.11-1.14c0-.74-.07-1.83-.1-3.21C8.07,29.76,8,25.79,7.93,21c0-1.19,0-2.44,0-3.72,0-.65,0-1.29,0-2a11.48,11.48,0,0,1,.21-2.09A12.1,12.1,0,0,1,9.65,9.15a14.62,14.62,0,0,1,3-3.45A21.46,21.46,0,0,1,21.1,1.49,48.69,48.69,0,0,1,30.72.14,64.36,64.36,0,0,1,49.86,1.66c.76.18,1.5.39,2.24.6s1.46.43,2.19.7a21.85,21.85,0,0,1,4.06,2,17.23,17.23,0,0,1,3.35,2.8A14.81,14.81,0,0,1,64,11.18a21.81,21.81,0,0,1,2,6.92,51.35,51.35,0,0,1,.38,5.59c.06,3.19-.06,5.2-.07,5.69s-.14,2.9-.41,6.71c-.13,1.9-.29,4.16-.4,6.7,0,1.27-.07,2.6-.07,4s0,2.93-.09,4.49-.17,3.2-.4,4.88a36.06,36.06,0,0,1-1.07,5.13A33.55,33.55,0,0,1,59,71.43a29.57,29.57,0,0,1-8.67,8.16,26.56,26.56,0,0,1-11.61,3.79,27.31,27.31,0,0,1-12-1.7,27.71,27.71,0,0,1-9.8-6.37,25.43,25.43,0,0,1-5.83-9.19,45.52,45.52,0,0,1-2.22-9.43,80.73,80.73,0,0,1-.67-8.11c-.09-2.42-.09-4.53-.07-6.26s.06-3.08.09-4a7.19,7.19,0,0,1,.11-1.42,7.89,7.89,0,0,1,.1,1.42c0,.92.06,2.28.11,4s.11,3.83.26,6.23.39,5.1.85,8A45.28,45.28,0,0,0,12,65.77c.31.78.65,1.56,1,2.33.19.38.4.76.62,1.14s.43.76.68,1.11a23.39,23.39,0,0,0,3.4,4.15,26.57,26.57,0,0,0,9.44,6A26.08,26.08,0,0,0,38.63,82a25.16,25.16,0,0,0,10.91-3.69,28.22,28.22,0,0,0,8.11-7.8,31.93,31.93,0,0,0,4.49-9.64,33.16,33.16,0,0,0,1-4.88c.21-1.6.3-3.18.35-4.71s0-3,0-4.42,0-2.8,0-4.09c.09-2.58.23-4.85.35-6.76.25-3.82.36-6.19.37-6.67s.14-2.47.11-5.56a53,53,0,0,0-.31-5.39A20.42,20.42,0,0,0,62.34,12a13.19,13.19,0,0,0-2-3,14.82,14.82,0,0,0-3-2.52,18.87,18.87,0,0,0-3.7-1.87c-.66-.26-1.36-.47-2.07-.69s-1.42-.42-2.16-.6A62.77,62.77,0,0,0,30.8,1.58a48,48,0,0,0-9.37,1.16,20.42,20.42,0,0,0-8.06,3.83,13.55,13.55,0,0,0-2.83,3.14A11.16,11.16,0,0,0,9,13.42a10.48,10.48,0,0,0-.23,1.92c0,.65,0,1.32,0,2,0,1.29,0,2.53,0,3.72-.05,4.78-.11,8.74-.17,11.52,0,1.38-.07,2.47-.1,3.21A5.08,5.08,0,0,1,8.35,36.89Z"/><path class="cls-1" d="M29.7,10.38c-1.27,2.87-4.56,4.32-7.67,4.75s-6.32.14-9.4.79A15.77,15.77,0,0,0,1.19,26.13c2-3.48,6.62-3.64,10.5-2.69S19,26.73,22.63,28.3a27,27,0,0,0,17.28,1.46A22.71,22.71,0,0,0,53.72,19.49a17.68,17.68,0,0,0,7.89,18.9c.66.39,1.57.72,2.14.21"/><path class="cls-2" d="M63.75,38.6s-.08.21-.45.33a2.23,2.23,0,0,1-1.54-.24,16.06,16.06,0,0,1-4.33-3.32,7.4,7.4,0,0,1-.58-.66L56.27,34c-.34-.51-.74-1-1.06-1.61a17.91,17.91,0,0,1-1.71-3.81A20.24,20.24,0,0,1,53,26.41a17.06,17.06,0,0,1-.27-2.29l0-.56v-.3c0-.19,0-.41,0-.51a5.87,5.87,0,0,1,.08-.67l0,0,0,0-.05.1-.11.19-.22.33-.21.29-.37.44-.44.48a23.43,23.43,0,0,1-3.89,3.32A24.26,24.26,0,0,1,38.88,31a26.09,26.09,0,0,1-6.85.56,25.24,25.24,0,0,1-3.1-.32,25.82,25.82,0,0,1-3-.7,32.53,32.53,0,0,1-6.52-2.7c-2.51-1.28-5.27-2.94-8.51-3.65a13.45,13.45,0,0,0-5-.21,6.41,6.41,0,0,0-2.31.84A5,5,0,0,0,1.85,26.5L.48,25.89A16.28,16.28,0,0,1,15.06,15.07c1.91-.13,3.69-.09,5.31-.18a15.83,15.83,0,0,0,4.34-.74,9.77,9.77,0,0,0,3-1.54A7.15,7.15,0,0,0,29.23,11c.29-.42.43-.67.47-.65a1.8,1.8,0,0,1-.28.76A6.18,6.18,0,0,1,28,12.94a10,10,0,0,1-3.07,1.82,16.34,16.34,0,0,1-4.48,1c-1.67.16-3.45.18-5.29.37a15.41,15.41,0,0,0-5.46,1.46,15.21,15.21,0,0,0-7.78,8.82l-1.37-.6a6.38,6.38,0,0,1,2.15-2.32,8.28,8.28,0,0,1,2.85-1.12,15,15,0,0,1,5.67.12,22.57,22.57,0,0,1,4.94,1.65c1.49.68,2.83,1.39,4.08,2a29.11,29.11,0,0,0,9,3.09c.24,0,1.26.23,2.88.34a25.34,25.34,0,0,0,6.37-.4,22.94,22.94,0,0,0,8-3.21,22.4,22.4,0,0,0,3.7-3l.42-.44L51,22a22.2,22.2,0,0,0,1.4-1.87c.12-.17.23-.32.35-.51l.36-.56.72-1.13,1.26-2c-.15.78-.31,1.55-.46,2.32s-.31,1.62-.46,2.42a11.44,11.44,0,0,0-.23,2l-.06.87c0,.23,0,.38,0,.57a17,17,0,0,0,.18,2.15,19.64,19.64,0,0,0,.45,2.05A16.86,16.86,0,0,0,56,31.93,17.33,17.33,0,0,0,57,33.51l.51.7a6.73,6.73,0,0,0,.52.65,17.58,17.58,0,0,0,3.94,3.48,2.25,2.25,0,0,0,1.32.4C63.58,38.7,63.72,38.56,63.75,38.6Z"/><path class="cls-2" d="M23.87,49.52c-.11.09-.39,0-.73-.2a9.53,9.53,0,0,0-1.3-.51,6.85,6.85,0,0,0-1.32-.25c-.38,0-.63,0-.67,0a6.64,6.64,0,0,0-2.46,0,6.74,6.74,0,0,0-1.64.51c-.45.19-.76.36-.87.26s0-.45.38-.88a4.73,4.73,0,0,1,1.66-1.25,6.72,6.72,0,0,1,3.15-.64,5.76,5.76,0,0,1,.87.22,6.25,6.25,0,0,1,1.56.8,4.61,4.61,0,0,1,1.18,1.21C23.9,49.14,24,49.44,23.87,49.52Z"/><path class="cls-2" d="M57,49.52c-.12.09-.4,0-.74-.2a9.53,9.53,0,0,0-1.3-.51,6.85,6.85,0,0,0-1.32-.25c-.38,0-.63,0-.67,0a6.64,6.64,0,0,0-2.46,0,6.74,6.74,0,0,0-1.64.51c-.45.19-.76.36-.87.26s0-.45.38-.88A4.82,4.82,0,0,1,50,47.15a6.72,6.72,0,0,1,3.15-.64,5.76,5.76,0,0,1,.87.22,6.25,6.25,0,0,1,1.56.8,4.61,4.61,0,0,1,1.18,1.21C57,49.14,57.09,49.44,57,49.52Z"/><path class="cls-2" d="M46.32,68.67c.07.11-.3.51-1,1a12.72,12.72,0,0,1-2.68,1.51,16.49,16.49,0,0,1-3,1c-.88.16-1.5.26-1.59.25h-.6c-.17,0-.37,0-.6,0l-.75,0c-.55,0-1.17-.15-1.83-.25l-1-.23c-.34-.08-.67-.2-1-.3a14,14,0,0,1-3.44-1.64,7,7,0,0,1-1-.77c-.21-.21-.32-.35-.28-.41s.22,0,.5.06.65.27,1.13.41a19.11,19.11,0,0,0,3.44,1,19.46,19.46,0,0,0,5.31.2c.08,0,.64,0,1.44-.07a21,21,0,0,0,2.85-.47A25.53,25.53,0,0,0,45,69C45.72,68.72,46.24,68.55,46.32,68.67Z"/><path class="cls-2" d="M45.16,49.32c0,.19-7.91.34-8.21.34s-10.17-.15-10.17-.34S36.64,49,37,49,45.16,49.14,45.16,49.32Z"/><path class="cls-2" d="M26.3,54.32a4.44,4.44,0,0,1-.84,0h-2.3l-7.11-.11-1,0h-.92L14,53.79,13.5,52l-.94-3.26c-.56-1.94-1-3.3-1-3.49l-.29-1.06,16.15.13c-.27,2.76-.53,5.33-.71,7.21-.1.91-.19,1.66-.24,2.17,0,.26-.06.46-.08.6a.15.15,0,0,1-.06.09h-.06s0,0,0,0,0,0,0,0,0,0,0,0h0s0,0,0,0,0,0,0-.07,0-.34,0-.6c0-.51.07-1.26.13-2.18.12-1.76.29-4.18.48-6.77l-14.81.12h0l.05.2c0,.19.42,1.56.95,3.5L14,51.82c.16.59.33,1.2.49,1.82v.06h.06l.47,0,1,0,7,.34,2.33.13A6.22,6.22,0,0,1,26.3,54.32Z"/><path class="cls-2" d="M45.63,54.32a6.26,6.26,0,0,1,.91-.09l2.33-.13,7-.34,1,0,.47,0h0v-.06c.17-.62.33-1.23.49-1.82l.88-3.28c.53-1.94.9-3.31.95-3.5l.06-.2h0L45,44.71c.18,2.59.35,5,.48,6.77,0,.92.09,1.67.12,2.18q0,.39,0,.6c0,.07,0,.07,0,.07l0,0s0,0,0,0,0,0,0,0,0,0,.05,0,0,0,0,0h0a.11.11,0,0,1-.06-.09c0-.14,0-.34-.08-.6-.06-.51-.14-1.26-.24-2.17-.19-1.88-.44-4.45-.71-7.21l16.15-.13c-.17.59-.27,1-.3,1.06s-.44,1.55-1,3.49L58.43,52c-.17.59-.35,1.2-.52,1.82l-.12.41h-.92l-1,0-7.11.11h-2.3A4.61,4.61,0,0,1,45.63,54.32Z"/></g></g></svg>